<svg xmlns="http://www.w3.org/2000/svg" xmlns:xlink="http://www.w3.org/1999/xlink" contentStyleType="text/css" height="830px" preserveAspectRatio="none" style="width:631px;height:830px;background:#FFFFFF;" version="1.1" viewBox="0 0 631 830" width="631px" zoomAndPan="magnify"><defs/><g><line style="stroke:#181818;stroke-width:0.5;stroke-dasharray:5.0,5.0;" x1="23" x2="23" y1="81.2969" y2="750.0859"/><line style="stroke:#181818;stroke-width:0.5;stroke-dasharray:5.0,5.0;" x1="177.652" x2="177.652" y1="81.2969" y2="750.0859"/><line style="stroke:#181818;stroke-width:0.5;stroke-dasharray:5.0,5.0;" x1="305.3264" x2="305.3264" y1="81.2969" y2="750.0859"/><line style="stroke:#181818;stroke-width:0.5;stroke-dasharray:5.0,5.0;" x1="425.5843" x2="425.5843" y1="81.2969" y2="750.0859"/><line style="stroke:#181818;stroke-width:0.5;stroke-dasharray:5.0,5.0;" x1="580.145" x2="580.145" y1="81.2969" y2="750.0859"/><text fill="#000000" font-family="sans-serif" font-size="14" lengthAdjust="spacing" textLength="31.9102" x="5" y="77.9951">User</text><ellipse cx="23.9551" cy="13.5" fill="#E2E2F0" rx="8" ry="8" style="stroke:#181818;stroke-width:0.5;"/><path d="M23.9551,21.5 L23.9551,48.5 M10.9551,29.5 L36.9551,29.5 M23.9551,48.5 L10.9551,63.5 M23.9551,48.5 L36.9551,63.5 " fill="none" style="stroke:#181818;stroke-width:0.5;"/><text fill="#000000" font-family="sans-serif" font-size="14" lengthAdjust="spacing" textLength="31.9102" x="5" y="762.0811">User</text><ellipse cx="23.9551" cy="773.8828" fill="#E2E2F0" rx="8" ry="8" style="stroke:#181818;stroke-width:0.5;"/><path d="M23.9551,781.8828 L23.9551,808.8828 M10.9551,789.8828 L36.9551,789.8828 M23.9551,808.8828 L10.9551,823.8828 M23.9551,808.8828 L36.9551,823.8828 " fill="none" style="stroke:#181818;stroke-width:0.5;"/><text fill="#000000" font-family="sans-serif" font-size="14" lengthAdjust="spacing" textLength="78.6064" x="135.652" y="77.9951">ProfilePage</text><path d="M157.4552,37 L157.4552,61 M157.4552,49 L174.4552,49 " fill="none" style="stroke:#181818;stroke-width:0.5;"/><ellipse cx="186.4552" cy="49" fill="#E2E2F0" rx="12" ry="12" style="stroke:#181818;stroke-width:0.5;"/><text fill="#000000" font-family="sans-serif" font-size="14" lengthAdjust="spacing" textLength="78.6064" x="135.652" y="762.0811">ProfilePage</text><path d="M157.4552,769.3828 L157.4552,793.3828 M157.4552,781.3828 L174.4552,781.3828 " fill="none" style="stroke:#181818;stroke-width:0.5;"/><ellipse cx="186.4552" cy="781.3828" fill="#E2E2F0" rx="12" ry="12" style="stroke:#181818;stroke-width:0.5;"/><text fill="#000000" font-family="sans-serif" font-size="14" lengthAdjust="spacing" textLength="113.2578" x="246.3264" y="77.9951">ProfileController</text><ellipse cx="305.9554" cy="49" fill="#E2E2F0" rx="12" ry="12" style="stroke:#181818;stroke-width:0.5;"/><polygon fill="#181818" points="301.9554,37,307.9554,32,305.9554,37,307.9554,42,301.9554,37" style="stroke:#181818;stroke-width:1.0;"/><text fill="#000000" font-family="sans-serif" font-size="14" lengthAdjust="spacing" textLength="113.2578" x="246.3264" y="762.0811">ProfileController</text><ellipse cx="305.9554" cy="781.3828" fill="#E2E2F0" rx="12" ry="12" style="stroke:#181818;stroke-width:0.5;"/><polygon fill="#181818" points="301.9554,769.3828,307.9554,764.3828,305.9554,769.3828,307.9554,774.3828,301.9554,769.3828" style="stroke:#181818;stroke-width:1.0;"/><text fill="#000000" font-family="sans-serif" font-size="14" lengthAdjust="spacing" textLength="95.8262" x="375.5843" y="77.9951">ProfileService</text><ellipse cx="426.4973" cy="49" fill="#E2E2F0" rx="12" ry="12" style="stroke:#181818;stroke-width:0.5;"/><polygon fill="#181818" points="422.4973,37,428.4973,32,426.4973,37,428.4973,42,422.4973,37" style="stroke:#181818;stroke-width:1.0;"/><text fill="#000000" font-family="sans-serif" font-size="14" lengthAdjust="spacing" textLength="95.8262" x="375.5843" y="762.0811">ProfileService</text><ellipse cx="426.4973" cy="781.3828" fill="#E2E2F0" rx="12" ry="12" style="stroke:#181818;stroke-width:0.5;"/><polygon fill="#181818" points="422.4973,769.3828,428.4973,764.3828,426.4973,769.3828,428.4973,774.3828,422.4973,769.3828" style="stroke:#181818;stroke-width:1.0;"/><text fill="#000000" font-family="sans-serif" font-size="14" lengthAdjust="spacing" textLength="94.7051" x="530.145" y="77.9951">manage_user</text><path d="M562.4975,29 C562.4975,19 580.4975,19 580.4975,19 C580.4975,19 598.4975,19 598.4975,29 L598.4975,55 C598.4975,65 580.4975,65 580.4975,65 C580.4975,65 562.4975,65 562.4975,55 L562.4975,29 " fill="#E2E2F0" style="stroke:#181818;stroke-width:1.5;"/><path d="M562.4975,29 C562.4975,39 580.4975,39 580.4975,39 C580.4975,39 598.4975,39 598.4975,29 " fill="none" style="stroke:#181818;stroke-width:1.5;"/><text fill="#000000" font-family="sans-serif" font-size="14" lengthAdjust="spacing" textLength="94.7051" x="530.145" y="762.0811">manage_user</text><path d="M562.4975,775.3828 C562.4975,765.3828 580.4975,765.3828 580.4975,765.3828 C580.4975,765.3828 598.4975,765.3828 598.4975,775.3828 L598.4975,801.3828 C598.4975,811.3828 580.4975,811.3828 580.4975,811.3828 C580.4975,811.3828 562.4975,811.3828 562.4975,801.3828 L562.4975,775.3828 " fill="#E2E2F0" style="stroke:#181818;stroke-width:1.5;"/><path d="M562.4975,775.3828 C562.4975,785.3828 580.4975,785.3828 580.4975,785.3828 C580.4975,785.3828 598.4975,785.3828 598.4975,775.3828 " fill="none" style="stroke:#181818;stroke-width:1.5;"/><polygon fill="#181818" points="165.9552,108.4297,175.9552,112.4297,165.9552,116.4297,169.9552,112.4297" style="stroke:#181818;stroke-width:1.0;"/><line style="stroke:#181818;stroke-width:1.0;" x1="23.9551" x2="171.9552" y1="112.4297" y2="112.4297"/><text fill="#000000" font-family="sans-serif" font-size="13" lengthAdjust="spacing" textLength="104.0001" x="30.9551" y="107.3638">&#36827;&#20837;&#20010;&#20154;&#20449;&#24687;&#39029;&#38754;</text><polygon fill="#181818" points="34.9551,137.5625,24.9551,141.5625,34.9551,145.5625,30.9551,141.5625" style="stroke:#181818;stroke-width:1.0;"/><line style="stroke:#181818;stroke-width:1.0;" x1="28.9551" x2="176.9552" y1="141.5625" y2="141.5625"/><text fill="#000000" font-family="sans-serif" font-size="13" lengthAdjust="spacing" textLength="104.0001" x="40.9551" y="136.4966">&#26174;&#31034;&#24403;&#21069;&#20010;&#20154;&#20449;&#24687;</text><polygon fill="#181818" points="165.9552,166.6953,175.9552,170.6953,165.9552,174.6953,169.9552,170.6953" style="stroke:#181818;stroke-width:1.0;"/><line style="stroke:#181818;stroke-width:1.0;" x1="23.9551" x2="171.9552" y1="170.6953" y2="170.6953"/><text fill="#000000" font-family="sans-serif" font-size="13" lengthAdjust="spacing" textLength="130.0002" x="30.9551" y="165.6294">&#36755;&#20837;&#26032;&#30340;&#29992;&#25143;&#21517;&#25110;&#23494;&#30721;</text><polygon fill="#181818" points="293.9554,195.8281,303.9554,199.8281,293.9554,203.8281,297.9554,199.8281" style="stroke:#181818;stroke-width:1.0;"/><line style="stroke:#181818;stroke-width:1.0;" x1="177.9552" x2="299.9554" y1="199.8281" y2="199.8281"/><text fill="#000000" font-family="sans-serif" font-size="13" lengthAdjust="spacing" textLength="78.0001" x="184.9552" y="194.7622">&#25552;&#20132;&#20462;&#25913;&#35831;&#27714;</text><polygon fill="#181818" points="414.4973,224.9609,424.4973,228.9609,414.4973,232.9609,418.4973,228.9609" style="stroke:#181818;stroke-width:1.0;"/><line style="stroke:#181818;stroke-width:1.0;" x1="305.9554" x2="420.4973" y1="228.9609" y2="228.9609"/><text fill="#000000" font-family="sans-serif" font-size="13" lengthAdjust="spacing" textLength="65.0001" x="312.9554" y="223.895">&#39564;&#35777;&#26032;&#20449;&#24687;</text><polygon fill="#181818" points="568.4975,254.0938,578.4975,258.0938,568.4975,262.0938,572.4975,258.0938" style="stroke:#181818;stroke-width:1.0;"/><line style="stroke:#181818;stroke-width:1.0;" x1="426.4973" x2="574.4975" y1="258.0938" y2="258.0938"/><text fill="#000000" font-family="sans-serif" font-size="13" lengthAdjust="spacing" textLength="130.0002" x="433.4973" y="253.0278">&#26597;&#35810;&#29992;&#25143;&#21517;&#26159;&#21542;&#24050;&#23384;&#22312;</text><polygon fill="#181818" points="437.4973,283.2266,427.4973,287.2266,437.4973,291.2266,433.4973,287.2266" style="stroke:#181818;stroke-width:1.0;"/><line style="stroke:#181818;stroke-width:1.0;stroke-dasharray:2.0,2.0;" x1="431.4973" x2="579.4975" y1="287.2266" y2="287.2266"/><text fill="#000000" font-family="sans-serif" font-size="13" lengthAdjust="spacing" textLength="78.0001" x="443.4973" y="282.1606">&#36820;&#22238;&#26597;&#35810;&#32467;&#26524;</text><path d="M363,300.2266 L363,325.2266 L488,325.2266 L488,310.2266 L478,300.2266 L363,300.2266 " fill="#FEFFDD" style="stroke:#181818;stroke-width:0.5;"/><path d="M478,300.2266 L478,310.2266 L488,310.2266 L478,300.2266 " fill="#FEFFDD" style="stroke:#181818;stroke-width:0.5;"/><text fill="#000000" font-family="sans-serif" font-size="13" lengthAdjust="spacing" textLength="104.0001" x="369" y="317.2935">&#22914;&#26524;&#29992;&#25143;&#21517;&#24050;&#23384;&#22312;</text><polygon fill="#181818" points="316.9554,347.4922,306.9554,351.4922,316.9554,355.4922,312.9554,351.4922" style="stroke:#181818;stroke-width:1.0;"/><line style="stroke:#181818;stroke-width:1.0;stroke-dasharray:2.0,2.0;" x1="310.9554" x2="425.4973" y1="351.4922" y2="351.4922"/><text fill="#000000" font-family="sans-serif" font-size="13" lengthAdjust="spacing" textLength="78.0001" x="322.9554" y="346.4263">&#36820;&#22238;&#38169;&#35823;&#20449;&#24687;</text><polygon fill="#181818" points="188.9552,376.625,178.9552,380.625,188.9552,384.625,184.9552,380.625" style="stroke:#181818;stroke-width:1.0;"/><line style="stroke:#181818;stroke-width:1.0;stroke-dasharray:2.0,2.0;" x1="182.9552" x2="304.9554" y1="380.625" y2="380.625"/><text fill="#000000" font-family="sans-serif" font-size="13" lengthAdjust="spacing" textLength="91.0001" x="194.9552" y="375.5591">&#26174;&#31034;&#29992;&#25143;&#21517;&#20914;&#31361;</text><path d="M363,393.625 L363,418.625 L488,418.625 L488,403.625 L478,393.625 L363,393.625 " fill="#FEFFDD" style="stroke:#181818;stroke-width:0.5;"/><path d="M478,393.625 L478,403.625 L488,403.625 L478,393.625 " fill="#FEFFDD" style="stroke:#181818;stroke-width:0.5;"/><text fill="#000000" font-family="sans-serif" font-size="13" lengthAdjust="spacing" textLength="104.0001" x="369" y="410.6919">&#22914;&#26524;&#29992;&#25143;&#21517;&#19981;&#23384;&#22312;</text><line style="stroke:#181818;stroke-width:1.0;" x1="426.4973" x2="468.4973" y1="444.8906" y2="444.8906"/><line style="stroke:#181818;stroke-width:1.0;" x1="468.4973" x2="468.4973" y1="444.8906" y2="457.8906"/><line style="stroke:#181818;stroke-width:1.0;" x1="427.4973" x2="468.4973" y1="457.8906" y2="457.8906"/><polygon fill="#181818" points="437.4973,453.8906,427.4973,457.8906,437.4973,461.8906,433.4973,457.8906" style="stroke:#181818;stroke-width:1.0;"/><text fill="#000000" font-family="sans-serif" font-size="13" lengthAdjust="spacing" textLength="91.0001" x="433.4973" y="439.8247">&#39564;&#35777;&#26032;&#23494;&#30721;&#35268;&#33539;</text><path d="M350,470.8906 L350,495.8906 L501,495.8906 L501,480.8906 L491,470.8906 L350,470.8906 " fill="#FEFFDD" style="stroke:#181818;stroke-width:0.5;"/><path d="M491,470.8906 L491,480.8906 L501,480.8906 L491,470.8906 " fill="#FEFFDD" style="stroke:#181818;stroke-width:0.5;"/><text fill="#000000" font-family="sans-serif" font-size="13" lengthAdjust="spacing" textLength="130.0002" x="356" y="487.9575">&#22914;&#26524;&#26032;&#23494;&#30721;&#19981;&#31526;&#21512;&#35268;&#33539;</text><polygon fill="#181818" points="316.9554,518.1563,306.9554,522.1563,316.9554,526.1563,312.9554,522.1563" style="stroke:#181818;stroke-width:1.0;"/><line style="stroke:#181818;stroke-width:1.0;stroke-dasharray:2.0,2.0;" x1="310.9554" x2="425.4973" y1="522.1563" y2="522.1563"/><text fill="#000000" font-family="sans-serif" font-size="13" lengthAdjust="spacing" textLength="78.0001" x="322.9554" y="517.0903">&#36820;&#22238;&#38169;&#35823;&#20449;&#24687;</text><polygon fill="#181818" points="188.9552,547.2891,178.9552,551.2891,188.9552,555.2891,184.9552,551.2891" style="stroke:#181818;stroke-width:1.0;"/><line style="stroke:#181818;stroke-width:1.0;stroke-dasharray:2.0,2.0;" x1="182.9552" x2="304.9554" y1="551.2891" y2="551.2891"/><text fill="#000000" font-family="sans-serif" font-size="13" lengthAdjust="spacing" textLength="104.0001" x="194.9552" y="546.2231">&#26174;&#31034;&#23494;&#30721;&#38169;&#35823;&#20449;&#24687;</text><path d="M370,564.2891 L370,589.2891 L482,589.2891 L482,574.2891 L472,564.2891 L370,564.2891 " fill="#FEFFDD" style="stroke:#181818;stroke-width:0.5;"/><path d="M472,564.2891 L472,574.2891 L482,574.2891 L472,564.2891 " fill="#FEFFDD" style="stroke:#181818;stroke-width:0.5;"/><text fill="#000000" font-family="sans-serif" font-size="13" lengthAdjust="spacing" textLength="91.0001" x="376" y="581.356">&#22914;&#26524;&#26032;&#20449;&#24687;&#26377;&#25928;</text><polygon fill="#181818" points="568.4975,611.5547,578.4975,615.5547,568.4975,619.5547,572.4975,615.5547" style="stroke:#181818;stroke-width:1.0;"/><line style="stroke:#181818;stroke-width:1.0;" x1="426.4973" x2="574.4975" y1="615.5547" y2="615.5547"/><text fill="#000000" font-family="sans-serif" font-size="13" lengthAdjust="spacing" textLength="78.0001" x="433.4973" y="610.4888">&#26356;&#26032;&#29992;&#25143;&#20449;&#24687;</text><polygon fill="#181818" points="437.4973,640.6875,427.4973,644.6875,437.4973,648.6875,433.4973,644.6875" style="stroke:#181818;stroke-width:1.0;"/><line style="stroke:#181818;stroke-width:1.0;stroke-dasharray:2.0,2.0;" x1="431.4973" x2="579.4975" y1="644.6875" y2="644.6875"/><text fill="#000000" font-family="sans-serif" font-size="13" lengthAdjust="spacing" textLength="78.0001" x="443.4973" y="639.6216">&#36820;&#22238;&#26356;&#26032;&#32467;&#26524;</text><polygon fill="#181818" points="316.9554,669.8203,306.9554,673.8203,316.9554,677.8203,312.9554,673.8203" style="stroke:#181818;stroke-width:1.0;"/><line style="stroke:#181818;stroke-width:1.0;stroke-dasharray:2.0,2.0;" x1="310.9554" x2="425.4973" y1="673.8203" y2="673.8203"/><text fill="#000000" font-family="sans-serif" font-size="13" lengthAdjust="spacing" textLength="78.0001" x="322.9554" y="668.7544">&#36820;&#22238;&#25104;&#21151;&#20449;&#24687;</text><polygon fill="#181818" points="188.9552,698.9531,178.9552,702.9531,188.9552,706.9531,184.9552,702.9531" style="stroke:#181818;stroke-width:1.0;"/><line style="stroke:#181818;stroke-width:1.0;stroke-dasharray:2.0,2.0;" x1="182.9552" x2="304.9554" y1="702.9531" y2="702.9531"/><text fill="#000000" font-family="sans-serif" font-size="13" lengthAdjust="spacing" textLength="78.0001" x="194.9552" y="697.8872">&#26174;&#31034;&#26356;&#26032;&#25104;&#21151;</text><polygon fill="#181818" points="34.9551,728.0859,24.9551,732.0859,34.9551,736.0859,30.9551,732.0859" style="stroke:#181818;stroke-width:1.0;"/><line style="stroke:#181818;stroke-width:1.0;stroke-dasharray:2.0,2.0;" x1="28.9551" x2="176.9552" y1="732.0859" y2="732.0859"/><text fill="#000000" font-family="sans-serif" font-size="13" lengthAdjust="spacing" textLength="130.0002" x="40.9551" y="727.02">&#26174;&#31034;&#26356;&#26032;&#21518;&#30340;&#20010;&#20154;&#20449;&#24687;</text><!--SRC=[bP91Ji9058RtSugv01TWuQPhaaa8QrEW6XAaIGiaBa4anO0s0GaAWX10GjGgqO0OwMKwq_OMJZi5Qf4ObpF__xx_pPl79xAY16Eo886ucCiaUUaK8aayIgK5n1yBa9SXGY0XPhAIc5uh73kc1SdLkQ0U5QHyAi6Aeo39P_auBmlmXCzGv65EPdMH601EC0mTq8mmjFGsFXyPYwcnN1fwdnGqk_zktmq0Gex5iOOXQQtCuH9_rN6bvhS6KAiwHP7cYtbRCXiJeionMYDA4sjbyxxW0H57SLUgiHmQ-ZDfV5ZQdBmM0U9SCHg6zhHgQGLAyI9Gr54YCLhM6rdQO4jkQLWTu_aCFxLmPm8YCHZo69RUmEskv_-iasu7W8oO5Q2Of-qw3ZmkqjiDQqjnuhms6SLkt5YQjcw6OofQpsHBAC_CQU6F66DHyyK4til6P3sKhEhPhvYDXsBCnp5M5S_ypvuPv8TdNnwJIQT2hXN_JxJVd6zsd-KHTgVFF6pwEnqIHSKNlNqTibhcSVSci8bCn-ebtJJ_Fdu3]--></g></svg>