<svg xmlns="http://www.w3.org/2000/svg" xmlns:xlink="http://www.w3.org/1999/xlink" contentStyleType="text/css" height="372px" preserveAspectRatio="none" style="width:255px;height:372px;background:#FFFFFF;" version="1.1" viewBox="0 0 255 372" width="255px" zoomAndPan="magnify"><defs/><g><ellipse cx="133.9999" cy="20" fill="#222222" rx="10" ry="10" style="stroke:#222222;stroke-width:1.0;"/><rect fill="#F1F1F1" height="33.9688" rx="12.5" ry="12.5" style="stroke:#181818;stroke-width:0.5;" width="128.0008" x="69.9995" y="50"/><text fill="#000000" font-family="sans-serif" font-size="12" lengthAdjust="spacing" textLength="108.0008" x="79.9995" y="71.1387">&#30331;&#24405;&#20026;&#26222;&#36890;&#29992;&#25143;&#36134;&#21495;</text><polygon fill="#F1F1F1" points="79.0003,103.9688,188.9995,103.9688,200.9995,115.9688,188.9995,127.9688,79.0003,127.9688,67.0003,115.9688,79.0003,103.9688" style="stroke:#181818;stroke-width:0.5;"/><text fill="#000000" font-family="sans-serif" font-size="11" lengthAdjust="spacing" textLength="109.9992" x="79.0003" y="119.7769">&#26159;&#21542;&#26377;&#38656;&#35201;&#23457;&#25209;&#30340;&#27969;&#31243;</text><text fill="#000000" font-family="sans-serif" font-size="11" lengthAdjust="spacing" textLength="10.9999" x="56.0004" y="113.3745">&#26377;</text><text fill="#000000" font-family="sans-serif" font-size="11" lengthAdjust="spacing" textLength="21.9998" x="200.9995" y="113.3745">&#27809;&#26377;</text><rect fill="#F1F1F1" height="33.9688" rx="12.5" ry="12.5" style="stroke:#181818;stroke-width:0.5;" width="92.0005" x="11" y="137.9688"/><text fill="#000000" font-family="sans-serif" font-size="12" lengthAdjust="spacing" textLength="72.0005" x="21" y="159.1074">&#23436;&#25104;&#34920;&#21333;&#23457;&#25209;</text><rect fill="#F1F1F1" height="33.9688" rx="12.5" ry="12.5" style="stroke:#181818;stroke-width:0.5;" width="68.0004" x="176.9993" y="137.9688"/><text fill="#000000" font-family="sans-serif" font-size="12" lengthAdjust="spacing" textLength="48.0004" x="186.9993" y="159.1074">&#36864;&#20986;&#30331;&#24405;</text><polygon fill="#F1F1F1" points="133.9999,177.9375,145.9999,189.9375,133.9999,201.9375,121.9999,189.9375,133.9999,177.9375" style="stroke:#181818;stroke-width:0.5;"/><polygon fill="#F1F1F1" points="90.0002,221.9375,177.9996,221.9375,189.9996,233.9375,177.9996,245.9375,90.0002,245.9375,78.0002,233.9375,90.0002,221.9375" style="stroke:#181818;stroke-width:0.5;"/><text fill="#000000" font-family="sans-serif" font-size="11" lengthAdjust="spacing" textLength="87.9994" x="90.0002" y="237.7456">&#26159;&#21542;&#38656;&#35201;&#32534;&#36753;&#25968;&#25454;</text><text fill="#000000" font-family="sans-serif" font-size="11" lengthAdjust="spacing" textLength="6.7192" x="71.281" y="231.3433">Y</text><text fill="#000000" font-family="sans-serif" font-size="11" lengthAdjust="spacing" textLength="8.2285" x="189.9996" y="231.3433">N</text><rect fill="#F1F1F1" height="33.9688" rx="12.5" ry="12.5" style="stroke:#181818;stroke-width:0.5;" width="68.0004" x="34" y="255.9375"/><text fill="#000000" font-family="sans-serif" font-size="12" lengthAdjust="spacing" textLength="48.0004" x="44" y="277.0762">&#32534;&#36753;&#25968;&#25454;</text><rect fill="#F1F1F1" height="33.9688" rx="12.5" ry="12.5" style="stroke:#181818;stroke-width:0.5;" width="68.0004" x="165.9994" y="255.9375"/><text fill="#000000" font-family="sans-serif" font-size="12" lengthAdjust="spacing" textLength="48.0004" x="175.9994" y="277.0762">&#36864;&#20986;&#30331;&#24405;</text><polygon fill="#F1F1F1" points="133.9999,295.9063,145.9999,307.9063,133.9999,319.9063,121.9999,307.9063,133.9999,295.9063" style="stroke:#181818;stroke-width:0.5;"/><ellipse cx="133.9999" cy="350.9063" fill="none" rx="11" ry="11" style="stroke:#222222;stroke-width:1.0;"/><ellipse cx="133.9999" cy="350.9063" fill="#222222" rx="6" ry="6" style="stroke:#222222;stroke-width:1.0;"/><line style="stroke:#181818;stroke-width:1.0;" x1="133.9999" x2="133.9999" y1="30" y2="50"/><polygon fill="#181818" points="129.9999,40,133.9999,50,137.9999,40,133.9999,44" style="stroke:#181818;stroke-width:1.0;"/><line style="stroke:#181818;stroke-width:1.0;" x1="67.0003" x2="57.0003" y1="115.9688" y2="115.9688"/><line style="stroke:#181818;stroke-width:1.0;" x1="57.0003" x2="57.0003" y1="115.9688" y2="137.9688"/><polygon fill="#181818" points="53.0003,127.9688,57.0003,137.9688,61.0003,127.9688,57.0003,131.9688" style="stroke:#181818;stroke-width:1.0;"/><line style="stroke:#181818;stroke-width:1.0;" x1="200.9995" x2="210.9995" y1="115.9688" y2="115.9688"/><line style="stroke:#181818;stroke-width:1.0;" x1="210.9995" x2="210.9995" y1="115.9688" y2="137.9688"/><polygon fill="#181818" points="206.9995,127.9688,210.9995,137.9688,214.9995,127.9688,210.9995,131.9688" style="stroke:#181818;stroke-width:1.0;"/><line style="stroke:#181818;stroke-width:1.0;" x1="57.0003" x2="57.0003" y1="171.9375" y2="189.9375"/><line style="stroke:#181818;stroke-width:1.0;" x1="57.0003" x2="121.9999" y1="189.9375" y2="189.9375"/><polygon fill="#181818" points="111.9999,185.9375,121.9999,189.9375,111.9999,193.9375,115.9999,189.9375" style="stroke:#181818;stroke-width:1.0;"/><line style="stroke:#181818;stroke-width:1.0;" x1="210.9995" x2="210.9995" y1="171.9375" y2="189.9375"/><line style="stroke:#181818;stroke-width:1.0;" x1="210.9995" x2="145.9999" y1="189.9375" y2="189.9375"/><polygon fill="#181818" points="155.9999,185.9375,145.9999,189.9375,155.9999,193.9375,151.9999,189.9375" style="stroke:#181818;stroke-width:1.0;"/><line style="stroke:#181818;stroke-width:1.0;" x1="133.9999" x2="133.9999" y1="83.9688" y2="103.9688"/><polygon fill="#181818" points="129.9999,93.9688,133.9999,103.9688,137.9999,93.9688,133.9999,97.9688" style="stroke:#181818;stroke-width:1.0;"/><line style="stroke:#181818;stroke-width:1.0;" x1="78.0002" x2="68.0002" y1="233.9375" y2="233.9375"/><line style="stroke:#181818;stroke-width:1.0;" x1="68.0002" x2="68.0002" y1="233.9375" y2="255.9375"/><polygon fill="#181818" points="64.0002,245.9375,68.0002,255.9375,72.0002,245.9375,68.0002,249.9375" style="stroke:#181818;stroke-width:1.0;"/><line style="stroke:#181818;stroke-width:1.0;" x1="189.9996" x2="199.9996" y1="233.9375" y2="233.9375"/><line style="stroke:#181818;stroke-width:1.0;" x1="199.9996" x2="199.9996" y1="233.9375" y2="255.9375"/><polygon fill="#181818" points="195.9996,245.9375,199.9996,255.9375,203.9996,245.9375,199.9996,249.9375" style="stroke:#181818;stroke-width:1.0;"/><line style="stroke:#181818;stroke-width:1.0;" x1="68.0002" x2="68.0002" y1="289.9063" y2="307.9063"/><line style="stroke:#181818;stroke-width:1.0;" x1="68.0002" x2="121.9999" y1="307.9063" y2="307.9063"/><polygon fill="#181818" points="111.9999,303.9063,121.9999,307.9063,111.9999,311.9063,115.9999,307.9063" style="stroke:#181818;stroke-width:1.0;"/><line style="stroke:#181818;stroke-width:1.0;" x1="199.9996" x2="199.9996" y1="289.9063" y2="307.9063"/><line style="stroke:#181818;stroke-width:1.0;" x1="199.9996" x2="145.9999" y1="307.9063" y2="307.9063"/><polygon fill="#181818" points="155.9999,303.9063,145.9999,307.9063,155.9999,311.9063,151.9999,307.9063" style="stroke:#181818;stroke-width:1.0;"/><line style="stroke:#181818;stroke-width:1.0;" x1="133.9999" x2="133.9999" y1="201.9375" y2="221.9375"/><polygon fill="#181818" points="129.9999,211.9375,133.9999,221.9375,137.9999,211.9375,133.9999,215.9375" style="stroke:#181818;stroke-width:1.0;"/><line style="stroke:#181818;stroke-width:1.0;" x1="133.9999" x2="133.9999" y1="319.9063" y2="339.9063"/><polygon fill="#181818" points="129.9999,329.9063,133.9999,339.9063,137.9999,329.9063,133.9999,333.9063" style="stroke:#181818;stroke-width:1.0;"/><!--SRC=[Aov9B2hXide-S_VJlLEVxDZrREQwbmspdazPyQnZ-uijovxsRxVcoapJU3PZ_TC9ovxDwNmvf-75iiQdwnO-wzpvV5RBiwsDprTqQvPafEPf06KrkHGKh9wkwtdMCU75mXLFUwT255fpfUOKfseysxGGfkPbGyFJzbqGMu6oUIcPQGXh87OytpFjnRw9pwPkUDQx3c9195WhiZZKO3-SPXQNv1S00000]--></g></svg>