<svg xmlns="http://www.w3.org/2000/svg" xmlns:xlink="http://www.w3.org/1999/xlink" contentStyleType="text/css" height="224px" preserveAspectRatio="none" style="width:255px;height:224px;background:#FFFFFF;" version="1.1" viewBox="0 0 255 224" width="255px" zoomAndPan="magnify"><defs/><g><ellipse cx="133.9999" cy="20" fill="#222222" rx="10" ry="10" style="stroke:#222222;stroke-width:1.0;"/><rect fill="#F1F1F1" height="33.9688" rx="12.5" ry="12.5" style="stroke:#181818;stroke-width:0.5;" width="128.0008" x="69.9995" y="50"/><text fill="#000000" font-family="sans-serif" font-size="12" lengthAdjust="spacing" textLength="108.0008" x="79.9995" y="71.1387">&#30331;&#24405;&#20026;&#26222;&#36890;&#29992;&#25143;&#36134;&#21495;</text><polygon fill="#F1F1F1" points="79.0003,103.9688,188.9995,103.9688,200.9995,115.9688,188.9995,127.9688,79.0003,127.9688,67.0003,115.9688,79.0003,103.9688" style="stroke:#181818;stroke-width:0.5;"/><text fill="#000000" font-family="sans-serif" font-size="11" lengthAdjust="spacing" textLength="109.9992" x="79.0003" y="119.7769">&#26159;&#21542;&#26377;&#38656;&#35201;&#23457;&#25209;&#30340;&#27969;&#31243;</text><text fill="#000000" font-family="sans-serif" font-size="11" lengthAdjust="spacing" textLength="10.9999" x="56.0004" y="113.3745">&#26377;</text><text fill="#000000" font-family="sans-serif" font-size="11" lengthAdjust="spacing" textLength="21.9998" x="200.9995" y="113.3745">&#27809;&#26377;</text><rect fill="#F1F1F1" height="33.9688" rx="12.5" ry="12.5" style="stroke:#181818;stroke-width:0.5;" width="92.0005" x="11" y="137.9688"/><text fill="#000000" font-family="sans-serif" font-size="12" lengthAdjust="spacing" textLength="72.0005" x="21" y="159.1074">&#23436;&#25104;&#34920;&#21333;&#23457;&#25209;</text><ellipse cx="57.0003" cy="202.9375" fill="none" rx="11" ry="11" style="stroke:#222222;stroke-width:1.0;"/><ellipse cx="57.0003" cy="202.9375" fill="#222222" rx="6" ry="6" style="stroke:#222222;stroke-width:1.0;"/><rect fill="#F1F1F1" height="33.9688" rx="12.5" ry="12.5" style="stroke:#181818;stroke-width:0.5;" width="68.0004" x="176.9993" y="137.9688"/><text fill="#000000" font-family="sans-serif" font-size="12" lengthAdjust="spacing" textLength="48.0004" x="186.9993" y="159.1074">&#36864;&#20986;&#30331;&#24405;</text><ellipse cx="210.9995" cy="202.9375" fill="none" rx="11" ry="11" style="stroke:#222222;stroke-width:1.0;"/><ellipse cx="210.9995" cy="202.9375" fill="#222222" rx="6" ry="6" style="stroke:#222222;stroke-width:1.0;"/><line style="stroke:#181818;stroke-width:1.0;" x1="133.9999" x2="133.9999" y1="30" y2="50"/><polygon fill="#181818" points="129.9999,40,133.9999,50,137.9999,40,133.9999,44" style="stroke:#181818;stroke-width:1.0;"/><line style="stroke:#181818;stroke-width:1.0;" x1="57.0003" x2="57.0003" y1="171.9375" y2="191.9375"/><polygon fill="#181818" points="53.0003,181.9375,57.0003,191.9375,61.0003,181.9375,57.0003,185.9375" style="stroke:#181818;stroke-width:1.0;"/><line style="stroke:#181818;stroke-width:1.0;" x1="210.9995" x2="210.9995" y1="171.9375" y2="191.9375"/><polygon fill="#181818" points="206.9995,181.9375,210.9995,191.9375,214.9995,181.9375,210.9995,185.9375" style="stroke:#181818;stroke-width:1.0;"/><line style="stroke:#181818;stroke-width:1.0;" x1="67.0003" x2="57.0003" y1="115.9688" y2="115.9688"/><line style="stroke:#181818;stroke-width:1.0;" x1="57.0003" x2="57.0003" y1="115.9688" y2="137.9688"/><polygon fill="#181818" points="53.0003,127.9688,57.0003,137.9688,61.0003,127.9688,57.0003,131.9688" style="stroke:#181818;stroke-width:1.0;"/><line style="stroke:#181818;stroke-width:1.0;" x1="200.9995" x2="210.9995" y1="115.9688" y2="115.9688"/><line style="stroke:#181818;stroke-width:1.0;" x1="210.9995" x2="210.9995" y1="115.9688" y2="137.9688"/><polygon fill="#181818" points="206.9995,127.9688,210.9995,137.9688,214.9995,127.9688,210.9995,131.9688" style="stroke:#181818;stroke-width:1.0;"/><line style="stroke:#181818;stroke-width:1.0;" x1="133.9999" x2="133.9999" y1="83.9688" y2="103.9688"/><polygon fill="#181818" points="129.9999,93.9688,133.9999,103.9688,137.9999,93.9688,133.9999,97.9688" style="stroke:#181818;stroke-width:1.0;"/><!--SRC=[Aov9B2hXide-S_VJlLEVxDZrREQwbmspdazPyQnZ-uijovxsRxVcoapJU3PZ_TC9ovxDwNmvf-75iiQdwnO-wzpvV5RBiwsDprTqQvPafEPf06KrkHGKh9wkwtdMCU75mXLFUwT255e3XOjByWkuKdEAKpMURLe8K_goeU5f-ow8vGX5UIcPQG00]--></g></svg>