<svg xmlns="http://www.w3.org/2000/svg" xmlns:xlink="http://www.w3.org/1999/xlink" contentStyleType="text/css" height="673px" preserveAspectRatio="none" style="width:598px;height:673px;background:#FFFFFF;" version="1.1" viewBox="0 0 598 673" width="598px" zoomAndPan="magnify"><defs/><g><line style="stroke:#181818;stroke-width:0.5;stroke-dasharray:5.0,5.0;" x1="30" x2="30" y1="81.2969" y2="592.4219"/><line style="stroke:#181818;stroke-width:0.5;stroke-dasharray:5.0,5.0;" x1="187.9899" x2="187.9899" y1="81.2969" y2="592.4219"/><line style="stroke:#181818;stroke-width:0.5;stroke-dasharray:5.0,5.0;" x1="305.2311" x2="305.2311" y1="81.2969" y2="592.4219"/><line style="stroke:#181818;stroke-width:0.5;stroke-dasharray:5.0,5.0;" x1="418.7643" x2="418.7643" y1="81.2969" y2="592.4219"/><line style="stroke:#181818;stroke-width:0.5;stroke-dasharray:5.0,5.0;" x1="546.4627" x2="546.4627" y1="81.2969" y2="592.4219"/><text fill="#000000" font-family="sans-serif" font-size="14" lengthAdjust="spacing" textLength="44.4609" x="5" y="77.9951">Visitor</text><ellipse cx="30.2305" cy="13.5" fill="#E2E2F0" rx="8" ry="8" style="stroke:#181818;stroke-width:0.5;"/><path d="M30.2305,21.5 L30.2305,48.5 M17.2305,29.5 L43.2305,29.5 M30.2305,48.5 L17.2305,63.5 M30.2305,48.5 L43.2305,63.5 " fill="none" style="stroke:#181818;stroke-width:0.5;"/><text fill="#000000" font-family="sans-serif" font-size="14" lengthAdjust="spacing" textLength="44.4609" x="5" y="604.417">Visitor</text><ellipse cx="30.2305" cy="616.2188" fill="#E2E2F0" rx="8" ry="8" style="stroke:#181818;stroke-width:0.5;"/><path d="M30.2305,624.2188 L30.2305,651.2188 M17.2305,632.2188 L43.2305,632.2188 M30.2305,651.2188 L17.2305,666.2188 M30.2305,651.2188 L43.2305,666.2188 " fill="none" style="stroke:#181818;stroke-width:0.5;"/><text fill="#000000" font-family="sans-serif" font-size="14" lengthAdjust="spacing" textLength="97.2412" x="136.9899" y="77.9951">Register Page</text><path d="M168.1105,37 L168.1105,61 M168.1105,49 L185.1105,49 " fill="none" style="stroke:#181818;stroke-width:0.5;"/><ellipse cx="197.1105" cy="49" fill="#E2E2F0" rx="12" ry="12" style="stroke:#181818;stroke-width:0.5;"/><text fill="#000000" font-family="sans-serif" font-size="14" lengthAdjust="spacing" textLength="97.2412" x="136.9899" y="604.417">Register Page</text><path d="M168.1105,611.7188 L168.1105,635.7188 M168.1105,623.7188 L185.1105,623.7188 " fill="none" style="stroke:#181818;stroke-width:0.5;"/><ellipse cx="197.1105" cy="623.7188" fill="#E2E2F0" rx="12" ry="12" style="stroke:#181818;stroke-width:0.5;"/><text fill="#000000" font-family="sans-serif" font-size="14" lengthAdjust="spacing" textLength="105.5332" x="250.2311" y="77.9951">User Controller</text><ellipse cx="305.9977" cy="49" fill="#E2E2F0" rx="12" ry="12" style="stroke:#181818;stroke-width:0.5;"/><polygon fill="#181818" points="301.9977,37,307.9977,32,305.9977,37,307.9977,42,301.9977,37" style="stroke:#181818;stroke-width:1.0;"/><text fill="#000000" font-family="sans-serif" font-size="14" lengthAdjust="spacing" textLength="105.5332" x="250.2311" y="604.417">User Controller</text><ellipse cx="305.9977" cy="623.7188" fill="#E2E2F0" rx="12" ry="12" style="stroke:#181818;stroke-width:0.5;"/><polygon fill="#181818" points="301.9977,611.7188,307.9977,606.7188,305.9977,611.7188,307.9977,616.7188,301.9977,611.7188" style="stroke:#181818;stroke-width:1.0;"/><text fill="#000000" font-family="sans-serif" font-size="14" lengthAdjust="spacing" textLength="88.1016" x="371.7643" y="77.9951">User Service</text><ellipse cx="418.8151" cy="49" fill="#E2E2F0" rx="12" ry="12" style="stroke:#181818;stroke-width:0.5;"/><polygon fill="#181818" points="414.8151,37,420.8151,32,418.8151,37,420.8151,42,414.8151,37" style="stroke:#181818;stroke-width:1.0;"/><text fill="#000000" font-family="sans-serif" font-size="14" lengthAdjust="spacing" textLength="88.1016" x="371.7643" y="604.417">User Service</text><ellipse cx="418.8151" cy="623.7188" fill="#E2E2F0" rx="12" ry="12" style="stroke:#181818;stroke-width:0.5;"/><polygon fill="#181818" points="414.8151,611.7188,420.8151,606.7188,418.8151,611.7188,420.8151,616.7188,414.8151,611.7188" style="stroke:#181818;stroke-width:1.0;"/><text fill="#000000" font-family="sans-serif" font-size="14" lengthAdjust="spacing" textLength="94.7051" x="496.4627" y="77.9951">manage_user</text><path d="M528.8152,29 C528.8152,19 546.8152,19 546.8152,19 C546.8152,19 564.8152,19 564.8152,29 L564.8152,55 C564.8152,65 546.8152,65 546.8152,65 C546.8152,65 528.8152,65 528.8152,55 L528.8152,29 " fill="#E2E2F0" style="stroke:#181818;stroke-width:1.5;"/><path d="M528.8152,29 C528.8152,39 546.8152,39 546.8152,39 C546.8152,39 564.8152,39 564.8152,29 " fill="none" style="stroke:#181818;stroke-width:1.5;"/><text fill="#000000" font-family="sans-serif" font-size="14" lengthAdjust="spacing" textLength="94.7051" x="496.4627" y="604.417">manage_user</text><path d="M528.8152,617.7188 C528.8152,607.7188 546.8152,607.7188 546.8152,607.7188 C546.8152,607.7188 564.8152,607.7188 564.8152,617.7188 L564.8152,643.7188 C564.8152,653.7188 546.8152,653.7188 546.8152,653.7188 C546.8152,653.7188 528.8152,653.7188 528.8152,643.7188 L528.8152,617.7188 " fill="#E2E2F0" style="stroke:#181818;stroke-width:1.5;"/><path d="M528.8152,617.7188 C528.8152,627.7188 546.8152,627.7188 546.8152,627.7188 C546.8152,627.7188 564.8152,627.7188 564.8152,617.7188 " fill="none" style="stroke:#181818;stroke-width:1.5;"/><polygon fill="#181818" points="176.6105,108.4297,186.6105,112.4297,176.6105,116.4297,180.6105,112.4297" style="stroke:#181818;stroke-width:1.0;"/><line style="stroke:#181818;stroke-width:1.0;" x1="30.2305" x2="182.6105" y1="112.4297" y2="112.4297"/><text fill="#000000" font-family="sans-serif" font-size="13" lengthAdjust="spacing" textLength="78.0001" x="37.2305" y="107.3638">&#36755;&#20837;&#36134;&#21495;&#23494;&#30721;</text><polygon fill="#181818" points="293.9977,137.5625,303.9977,141.5625,293.9977,145.5625,297.9977,141.5625" style="stroke:#181818;stroke-width:1.0;"/><line style="stroke:#181818;stroke-width:1.0;" x1="188.6105" x2="299.9977" y1="141.5625" y2="141.5625"/><text fill="#000000" font-family="sans-serif" font-size="13" lengthAdjust="spacing" textLength="78.0001" x="195.6105" y="136.4966">&#21457;&#36865;&#27880;&#20876;&#35831;&#27714;</text><polygon fill="#181818" points="406.8151,166.6953,416.8151,170.6953,406.8151,174.6953,410.8151,170.6953" style="stroke:#181818;stroke-width:1.0;"/><line style="stroke:#181818;stroke-width:1.0;" x1="305.9977" x2="412.8151" y1="170.6953" y2="170.6953"/><text fill="#000000" font-family="sans-serif" font-size="13" lengthAdjust="spacing" textLength="78.0001" x="312.9977" y="165.6294">&#39564;&#35777;&#36134;&#21495;&#23494;&#30721;</text><polygon fill="#181818" points="534.8152,195.8281,544.8152,199.8281,534.8152,203.8281,538.8152,199.8281" style="stroke:#181818;stroke-width:1.0;"/><line style="stroke:#181818;stroke-width:1.0;" x1="418.8151" x2="540.8152" y1="199.8281" y2="199.8281"/><text fill="#000000" font-family="sans-serif" font-size="13" lengthAdjust="spacing" textLength="104.0001" x="425.8151" y="194.7622">&#26597;&#35810;&#36134;&#21495;&#26159;&#21542;&#23384;&#22312;</text><polygon fill="#181818" points="429.8151,224.9609,419.8151,228.9609,429.8151,232.9609,425.8151,228.9609" style="stroke:#181818;stroke-width:1.0;"/><line style="stroke:#181818;stroke-width:1.0;stroke-dasharray:2.0,2.0;" x1="423.8151" x2="545.8152" y1="228.9609" y2="228.9609"/><text fill="#000000" font-family="sans-serif" font-size="13" lengthAdjust="spacing" textLength="78.0001" x="435.8151" y="223.895">&#36820;&#22238;&#26597;&#35810;&#32467;&#26524;</text><path d="M362,241.9609 L362,266.9609 L474,266.9609 L474,251.9609 L464,241.9609 L362,241.9609 " fill="#FEFFDD" style="stroke:#181818;stroke-width:0.5;"/><path d="M464,241.9609 L464,251.9609 L474,251.9609 L464,241.9609 " fill="#FEFFDD" style="stroke:#181818;stroke-width:0.5;"/><text fill="#000000" font-family="sans-serif" font-size="13" lengthAdjust="spacing" textLength="91.0001" x="368" y="259.0278">&#22914;&#26524;&#36134;&#21495;&#19981;&#23384;&#22312;</text><line style="stroke:#181818;stroke-width:1.0;" x1="418.8151" x2="460.8151" y1="293.2266" y2="293.2266"/><line style="stroke:#181818;stroke-width:1.0;" x1="460.8151" x2="460.8151" y1="293.2266" y2="306.2266"/><line style="stroke:#181818;stroke-width:1.0;" x1="419.8151" x2="460.8151" y1="306.2266" y2="306.2266"/><polygon fill="#181818" points="429.8151,302.2266,419.8151,306.2266,429.8151,310.2266,425.8151,306.2266" style="stroke:#181818;stroke-width:1.0;"/><text fill="#000000" font-family="sans-serif" font-size="13" lengthAdjust="spacing" textLength="65.8443" x="425.8151" y="288.1606">&#29983;&#25104;&#29992;&#25143;ID</text><polygon fill="#181818" points="534.8152,331.3594,544.8152,335.3594,534.8152,339.3594,538.8152,335.3594" style="stroke:#181818;stroke-width:1.0;"/><line style="stroke:#181818;stroke-width:1.0;" x1="418.8151" x2="540.8152" y1="335.3594" y2="335.3594"/><text fill="#000000" font-family="sans-serif" font-size="13" lengthAdjust="spacing" textLength="91.0001" x="425.8151" y="330.2935">&#25554;&#20837;&#26032;&#29992;&#25143;&#25968;&#25454;</text><polygon fill="#181818" points="429.8151,360.4922,419.8151,364.4922,429.8151,368.4922,425.8151,364.4922" style="stroke:#181818;stroke-width:1.0;"/><line style="stroke:#181818;stroke-width:1.0;stroke-dasharray:2.0,2.0;" x1="423.8151" x2="545.8152" y1="364.4922" y2="364.4922"/><text fill="#000000" font-family="sans-serif" font-size="13" lengthAdjust="spacing" textLength="78.0001" x="435.8151" y="359.4263">&#36820;&#22238;&#25554;&#20837;&#32467;&#26524;</text><polygon fill="#181818" points="316.9977,389.625,306.9977,393.625,316.9977,397.625,312.9977,393.625" style="stroke:#181818;stroke-width:1.0;"/><line style="stroke:#181818;stroke-width:1.0;stroke-dasharray:2.0,2.0;" x1="310.9977" x2="417.8151" y1="393.625" y2="393.625"/><text fill="#000000" font-family="sans-serif" font-size="13" lengthAdjust="spacing" textLength="78.0001" x="322.9977" y="388.5591">&#36820;&#22238;&#27880;&#20876;&#32467;&#26524;</text><polygon fill="#181818" points="199.6105,418.7578,189.6105,422.7578,199.6105,426.7578,195.6105,422.7578" style="stroke:#181818;stroke-width:1.0;"/><line style="stroke:#181818;stroke-width:1.0;stroke-dasharray:2.0,2.0;" x1="193.6105" x2="304.9977" y1="422.7578" y2="422.7578"/><text fill="#000000" font-family="sans-serif" font-size="13" lengthAdjust="spacing" textLength="78.0001" x="205.6105" y="417.6919">&#26174;&#31034;&#27880;&#20876;&#32467;&#26524;</text><polygon fill="#181818" points="41.2305,447.8906,31.2305,451.8906,41.2305,455.8906,37.2305,451.8906" style="stroke:#181818;stroke-width:1.0;"/><line style="stroke:#181818;stroke-width:1.0;stroke-dasharray:2.0,2.0;" x1="35.2305" x2="187.6105" y1="451.8906" y2="451.8906"/><text fill="#000000" font-family="sans-serif" font-size="13" lengthAdjust="spacing" textLength="134.38" x="47.2305" y="446.8247">&#23637;&#31034;&#27880;&#20876;&#25104;&#21151;/&#22833;&#36133;&#28040;&#24687;</text><path d="M317,464.8906 L317,489.8906 L520,489.8906 L520,474.8906 L510,464.8906 L317,464.8906 " fill="#FEFFDD" style="stroke:#181818;stroke-width:0.5;"/><path d="M510,464.8906 L510,474.8906 L520,474.8906 L510,464.8906 " fill="#FEFFDD" style="stroke:#181818;stroke-width:0.5;"/><text fill="#000000" font-family="sans-serif" font-size="13" lengthAdjust="spacing" textLength="182.0002" x="323" y="481.9575">&#22914;&#26524;&#36134;&#21495;&#23384;&#22312;&#25110;&#23494;&#30721;&#19981;&#31526;&#21512;&#35268;&#33539;</text><polygon fill="#181818" points="316.9977,512.1563,306.9977,516.1563,316.9977,520.1563,312.9977,516.1563" style="stroke:#181818;stroke-width:1.0;"/><line style="stroke:#181818;stroke-width:1.0;stroke-dasharray:2.0,2.0;" x1="310.9977" x2="417.8151" y1="516.1563" y2="516.1563"/><text fill="#000000" font-family="sans-serif" font-size="13" lengthAdjust="spacing" textLength="78.0001" x="322.9977" y="511.0903">&#36820;&#22238;&#38169;&#35823;&#20449;&#24687;</text><polygon fill="#181818" points="199.6105,541.2891,189.6105,545.2891,199.6105,549.2891,195.6105,545.2891" style="stroke:#181818;stroke-width:1.0;"/><line style="stroke:#181818;stroke-width:1.0;stroke-dasharray:2.0,2.0;" x1="193.6105" x2="304.9977" y1="545.2891" y2="545.2891"/><text fill="#000000" font-family="sans-serif" font-size="13" lengthAdjust="spacing" textLength="78.0001" x="205.6105" y="540.2231">&#26174;&#31034;&#38169;&#35823;&#20449;&#24687;</text><polygon fill="#181818" points="41.2305,570.4219,31.2305,574.4219,41.2305,578.4219,37.2305,574.4219" style="stroke:#181818;stroke-width:1.0;"/><line style="stroke:#181818;stroke-width:1.0;stroke-dasharray:2.0,2.0;" x1="35.2305" x2="187.6105" y1="574.4219" y2="574.4219"/><text fill="#000000" font-family="sans-serif" font-size="13" lengthAdjust="spacing" textLength="78.0001" x="47.2305" y="569.356">&#23637;&#31034;&#38169;&#35823;&#28040;&#24687;</text><!--SRC=[VP1HIy9G68Rlpwyux5wwtqKtwwOBGHodsvWwP60RR5FeBgraXABb52FH2ZM9QagIKQ1_ndDs_1UTxQp8bAx6plD-t_k-dvAs3HCUQ9R6lY1bvFMCOXv38QbcDSjMJPXGige05Gic4o1jwBPfvA20B4Oa_fTJpP0ZwG-NLREWfVamaa56iPMKOgbGE59qjlGmRqMJSGH0b036TfcH2EcyWSy7T3h4jHdsolvj4IGJ0KII277jSdLI9AyZNAvGRqOc9O2a4CeYN3soj-BQ998364SY9Bq1zUuv96qFruVukOqx8n17C1Oje0iNttIvqlzia6u7w8QjGgF0EWK2F2onHxva-LwDDd2JWFjkZpXrtnqHPxQ_zzkzTiLAaTQOCz8Sa-hB5kjG5ba7qr7jY8QrlwaKqk1Yf3tt-nzhDBWOez5fMV19yqV24kABtWxkJ-XqGDuSKlJ0FprvIUAq-4bPRVzfYEiEVJYZbTFDb2ltcdhUSd4NxDr8kKQtf-GI7kmB]--></g></svg>