<svg xmlns="http://www.w3.org/2000/svg" xmlns:xlink="http://www.w3.org/1999/xlink" contentStyleType="text/css" height="898px" preserveAspectRatio="none" style="width:667px;height:898px;background:#FFFFFF;" version="1.1" viewBox="0 0 667 898" width="667px" zoomAndPan="magnify"><defs/><g><rect fill="none" height="439.7969" style="stroke:#000000;stroke-width:1.5;" width="650.1667" x="10" y="360.4922"/><line style="stroke:#181818;stroke-width:0.5;stroke-dasharray:5.0,5.0;" x1="38" x2="38" y1="81.2969" y2="817.2891"/><line style="stroke:#181818;stroke-width:0.5;stroke-dasharray:5.0,5.0;" x1="177.3995" x2="177.3995" y1="81.2969" y2="817.2891"/><line style="stroke:#181818;stroke-width:0.5;stroke-dasharray:5.0,5.0;" x1="307.3468" x2="307.3468" y1="81.2969" y2="817.2891"/><line style="stroke:#181818;stroke-width:0.5;stroke-dasharray:5.0,5.0;" x1="446.9454" x2="446.9454" y1="81.2969" y2="817.2891"/><line style="stroke:#181818;stroke-width:0.5;stroke-dasharray:5.0,5.0;" x1="587.8914" x2="587.8914" y1="81.2969" y2="817.2891"/><text fill="#000000" font-family="sans-serif" font-size="14" lengthAdjust="spacing" textLength="31.9102" x="20" y="77.9951">User</text><ellipse cx="38.9551" cy="13.5" fill="#E2E2F0" rx="8" ry="8" style="stroke:#181818;stroke-width:0.5;"/><path d="M38.9551,21.5 L38.9551,48.5 M25.9551,29.5 L51.9551,29.5 M38.9551,48.5 L25.9551,63.5 M38.9551,48.5 L51.9551,63.5 " fill="none" style="stroke:#181818;stroke-width:0.5;"/><text fill="#000000" font-family="sans-serif" font-size="14" lengthAdjust="spacing" textLength="31.9102" x="20" y="829.2842">User</text><ellipse cx="38.9551" cy="841.0859" fill="#E2E2F0" rx="8" ry="8" style="stroke:#181818;stroke-width:0.5;"/><path d="M38.9551,849.0859 L38.9551,876.0859 M25.9551,857.0859 L51.9551,857.0859 M38.9551,876.0859 L25.9551,891.0859 M38.9551,876.0859 L51.9551,891.0859 " fill="none" style="stroke:#181818;stroke-width:0.5;"/><text fill="#000000" font-family="sans-serif" font-size="14" lengthAdjust="spacing" textLength="96.9473" x="126.3995" y="77.9951">ApprovalPage</text><path d="M157.3732,37 L157.3732,61 M157.3732,49 L174.3732,49 " fill="none" style="stroke:#181818;stroke-width:0.5;"/><ellipse cx="186.3732" cy="49" fill="#E2E2F0" rx="12" ry="12" style="stroke:#181818;stroke-width:0.5;"/><text fill="#000000" font-family="sans-serif" font-size="14" lengthAdjust="spacing" textLength="96.9473" x="126.3995" y="829.2842">ApprovalPage</text><path d="M157.3732,836.5859 L157.3732,860.5859 M157.3732,848.5859 L174.3732,848.5859 " fill="none" style="stroke:#181818;stroke-width:0.5;"/><ellipse cx="186.3732" cy="848.5859" fill="#E2E2F0" rx="12" ry="12" style="stroke:#181818;stroke-width:0.5;"/><text fill="#000000" font-family="sans-serif" font-size="14" lengthAdjust="spacing" textLength="131.5986" x="239.3468" y="77.9951">ApprovalController</text><ellipse cx="308.1461" cy="49" fill="#E2E2F0" rx="12" ry="12" style="stroke:#181818;stroke-width:0.5;"/><polygon fill="#181818" points="304.1461,37,310.1461,32,308.1461,37,310.1461,42,304.1461,37" style="stroke:#181818;stroke-width:1.0;"/><text fill="#000000" font-family="sans-serif" font-size="14" lengthAdjust="spacing" textLength="131.5986" x="239.3468" y="829.2842">ApprovalController</text><ellipse cx="308.1461" cy="848.5859" fill="#E2E2F0" rx="12" ry="12" style="stroke:#181818;stroke-width:0.5;"/><polygon fill="#181818" points="304.1461,836.5859,310.1461,831.5859,308.1461,836.5859,310.1461,841.5859,304.1461,836.5859" style="stroke:#181818;stroke-width:1.0;"/><text fill="#000000" font-family="sans-serif" font-size="14" lengthAdjust="spacing" textLength="114.167" x="386.9454" y="77.9951">ApprovalService</text><ellipse cx="447.0289" cy="49" fill="#E2E2F0" rx="12" ry="12" style="stroke:#181818;stroke-width:0.5;"/><polygon fill="#181818" points="443.0289,37,449.0289,32,447.0289,37,449.0289,42,443.0289,37" style="stroke:#181818;stroke-width:1.0;"/><text fill="#000000" font-family="sans-serif" font-size="14" lengthAdjust="spacing" textLength="114.167" x="386.9454" y="829.2842">ApprovalService</text><ellipse cx="447.0289" cy="848.5859" fill="#E2E2F0" rx="12" ry="12" style="stroke:#181818;stroke-width:0.5;"/><polygon fill="#181818" points="443.0289,836.5859,449.0289,831.5859,447.0289,836.5859,449.0289,841.5859,443.0289,836.5859" style="stroke:#181818;stroke-width:1.0;"/><text fill="#000000" font-family="sans-serif" font-size="14" lengthAdjust="spacing" textLength="118.2754" x="525.8914" y="77.9951">manage_process</text><path d="M570.0291,29 C570.0291,19 588.0291,19 588.0291,19 C588.0291,19 606.0291,19 606.0291,29 L606.0291,55 C606.0291,65 588.0291,65 588.0291,65 C588.0291,65 570.0291,65 570.0291,55 L570.0291,29 " fill="#E2E2F0" style="stroke:#181818;stroke-width:1.5;"/><path d="M570.0291,29 C570.0291,39 588.0291,39 588.0291,39 C588.0291,39 606.0291,39 606.0291,29 " fill="none" style="stroke:#181818;stroke-width:1.5;"/><text fill="#000000" font-family="sans-serif" font-size="14" lengthAdjust="spacing" textLength="118.2754" x="525.8914" y="829.2842">manage_process</text><path d="M570.0291,842.5859 C570.0291,832.5859 588.0291,832.5859 588.0291,832.5859 C588.0291,832.5859 606.0291,832.5859 606.0291,842.5859 L606.0291,868.5859 C606.0291,878.5859 588.0291,878.5859 588.0291,878.5859 C588.0291,878.5859 570.0291,878.5859 570.0291,868.5859 L570.0291,842.5859 " fill="#E2E2F0" style="stroke:#181818;stroke-width:1.5;"/><path d="M570.0291,842.5859 C570.0291,852.5859 588.0291,852.5859 588.0291,852.5859 C588.0291,852.5859 606.0291,852.5859 606.0291,842.5859 " fill="none" style="stroke:#181818;stroke-width:1.5;"/><polygon fill="#181818" points="165.8732,108.4297,175.8732,112.4297,165.8732,116.4297,169.8732,112.4297" style="stroke:#181818;stroke-width:1.0;"/><line style="stroke:#181818;stroke-width:1.0;" x1="38.9551" x2="171.8732" y1="112.4297" y2="112.4297"/><text fill="#000000" font-family="sans-serif" font-size="13" lengthAdjust="spacing" textLength="91.0001" x="45.9551" y="107.3638">&#26597;&#30475;&#24453;&#23457;&#25209;&#34920;&#21333;</text><polygon fill="#181818" points="296.1461,137.5625,306.1461,141.5625,296.1461,145.5625,300.1461,141.5625" style="stroke:#181818;stroke-width:1.0;"/><line style="stroke:#181818;stroke-width:1.0;" x1="177.8732" x2="302.1461" y1="141.5625" y2="141.5625"/><text fill="#000000" font-family="sans-serif" font-size="13" lengthAdjust="spacing" textLength="91.0001" x="184.8732" y="136.4966">&#35831;&#27714;&#24453;&#23457;&#25209;&#34920;&#21333;</text><polygon fill="#181818" points="435.0289,166.6953,445.0289,170.6953,435.0289,174.6953,439.0289,170.6953" style="stroke:#181818;stroke-width:1.0;"/><line style="stroke:#181818;stroke-width:1.0;" x1="308.1461" x2="441.0289" y1="170.6953" y2="170.6953"/><text fill="#000000" font-family="sans-serif" font-size="13" lengthAdjust="spacing" textLength="91.0001" x="315.1461" y="165.6294">&#33719;&#21462;&#24453;&#23457;&#25209;&#34920;&#21333;</text><polygon fill="#181818" points="576.0291,195.8281,586.0291,199.8281,576.0291,203.8281,580.0291,199.8281" style="stroke:#181818;stroke-width:1.0;"/><line style="stroke:#181818;stroke-width:1.0;" x1="447.0289" x2="582.0291" y1="199.8281" y2="199.8281"/><text fill="#000000" font-family="sans-serif" font-size="13" lengthAdjust="spacing" textLength="91.0001" x="454.0289" y="194.7622">&#26597;&#35810;&#24453;&#23457;&#25209;&#34920;&#21333;</text><polygon fill="#181818" points="458.0289,224.9609,448.0289,228.9609,458.0289,232.9609,454.0289,228.9609" style="stroke:#181818;stroke-width:1.0;"/><line style="stroke:#181818;stroke-width:1.0;stroke-dasharray:2.0,2.0;" x1="452.0289" x2="587.0291" y1="228.9609" y2="228.9609"/><text fill="#000000" font-family="sans-serif" font-size="13" lengthAdjust="spacing" textLength="78.0001" x="464.0289" y="223.895">&#36820;&#22238;&#26597;&#35810;&#32467;&#26524;</text><polygon fill="#181818" points="319.1461,254.0938,309.1461,258.0938,319.1461,262.0938,315.1461,258.0938" style="stroke:#181818;stroke-width:1.0;"/><line style="stroke:#181818;stroke-width:1.0;stroke-dasharray:2.0,2.0;" x1="313.1461" x2="446.0289" y1="258.0938" y2="258.0938"/><text fill="#000000" font-family="sans-serif" font-size="13" lengthAdjust="spacing" textLength="91.0001" x="325.1461" y="253.0278">&#36820;&#22238;&#24453;&#23457;&#25209;&#34920;&#21333;</text><polygon fill="#181818" points="188.8732,283.2266,178.8732,287.2266,188.8732,291.2266,184.8732,287.2266" style="stroke:#181818;stroke-width:1.0;"/><line style="stroke:#181818;stroke-width:1.0;stroke-dasharray:2.0,2.0;" x1="182.8732" x2="307.1461" y1="287.2266" y2="287.2266"/><text fill="#000000" font-family="sans-serif" font-size="13" lengthAdjust="spacing" textLength="91.0001" x="194.8732" y="282.1606">&#26174;&#31034;&#24453;&#23457;&#25209;&#34920;&#21333;</text><polygon fill="#181818" points="49.9551,312.3594,39.9551,316.3594,49.9551,320.3594,45.9551,316.3594" style="stroke:#181818;stroke-width:1.0;"/><line style="stroke:#181818;stroke-width:1.0;stroke-dasharray:2.0,2.0;" x1="43.9551" x2="176.8732" y1="316.3594" y2="316.3594"/><text fill="#000000" font-family="sans-serif" font-size="13" lengthAdjust="spacing" textLength="78.0001" x="55.9551" y="311.2935">&#23637;&#31034;&#34920;&#21333;&#35814;&#24773;</text><polygon fill="#181818" points="165.8732,341.4922,175.8732,345.4922,165.8732,349.4922,169.8732,345.4922" style="stroke:#181818;stroke-width:1.0;"/><line style="stroke:#181818;stroke-width:1.0;" x1="38.9551" x2="171.8732" y1="345.4922" y2="345.4922"/><text fill="#000000" font-family="sans-serif" font-size="13" lengthAdjust="spacing" textLength="114.9181" x="45.9551" y="340.4263">&#36873;&#25321;"&#36890;&#36807;"&#25110;"&#25171;&#22238;"</text><path d="M10,360.4922 L74.4429,360.4922 L74.4429,367.625 L64.4429,377.625 L10,377.625 L10,360.4922 " fill="#EEEEEE" style="stroke:#000000;stroke-width:1.5;"/><rect fill="none" height="439.7969" style="stroke:#000000;stroke-width:1.5;" width="650.1667" x="10" y="360.4922"/><text fill="#000000" font-family="sans-serif" font-size="13" font-weight="bold" lengthAdjust="spacing" textLength="19.4429" x="25" y="373.5591">alt</text><text fill="#000000" font-family="sans-serif" font-size="11" font-weight="bold" lengthAdjust="spacing" textLength="65.5163" x="89.4429" y="372.7026">[&#36873;&#25321;"&#36890;&#36807;"]</text><polygon fill="#181818" points="296.1461,394.7578,306.1461,398.7578,296.1461,402.7578,300.1461,398.7578" style="stroke:#181818;stroke-width:1.0;"/><line style="stroke:#181818;stroke-width:1.0;" x1="177.8732" x2="302.1461" y1="398.7578" y2="398.7578"/><text fill="#000000" font-family="sans-serif" font-size="13" lengthAdjust="spacing" textLength="78.0001" x="184.8732" y="393.6919">&#25552;&#20132;&#36890;&#36807;&#35831;&#27714;</text><polygon fill="#181818" points="435.0289,423.8906,445.0289,427.8906,435.0289,431.8906,439.0289,427.8906" style="stroke:#181818;stroke-width:1.0;"/><line style="stroke:#181818;stroke-width:1.0;" x1="308.1461" x2="441.0289" y1="427.8906" y2="427.8906"/><text fill="#000000" font-family="sans-serif" font-size="13" lengthAdjust="spacing" textLength="78.0001" x="315.1461" y="422.8247">&#22788;&#29702;&#36890;&#36807;&#35831;&#27714;</text><polygon fill="#181818" points="576.0291,453.0234,586.0291,457.0234,576.0291,461.0234,580.0291,457.0234" style="stroke:#181818;stroke-width:1.0;"/><line style="stroke:#181818;stroke-width:1.0;" x1="447.0289" x2="582.0291" y1="457.0234" y2="457.0234"/><text fill="#000000" font-family="sans-serif" font-size="13" lengthAdjust="spacing" textLength="117.0001" x="454.0289" y="451.9575">&#26356;&#26032;&#34920;&#21333;&#29366;&#24577;&#20026;&#36890;&#36807;</text><polygon fill="#181818" points="458.0289,482.1563,448.0289,486.1563,458.0289,490.1563,454.0289,486.1563" style="stroke:#181818;stroke-width:1.0;"/><line style="stroke:#181818;stroke-width:1.0;stroke-dasharray:2.0,2.0;" x1="452.0289" x2="587.0291" y1="486.1563" y2="486.1563"/><text fill="#000000" font-family="sans-serif" font-size="13" lengthAdjust="spacing" textLength="78.0001" x="464.0289" y="481.0903">&#36820;&#22238;&#26356;&#26032;&#32467;&#26524;</text><polygon fill="#181818" points="319.1461,511.2891,309.1461,515.2891,319.1461,519.2891,315.1461,515.2891" style="stroke:#181818;stroke-width:1.0;"/><line style="stroke:#181818;stroke-width:1.0;stroke-dasharray:2.0,2.0;" x1="313.1461" x2="446.0289" y1="515.2891" y2="515.2891"/><text fill="#000000" font-family="sans-serif" font-size="13" lengthAdjust="spacing" textLength="104.0001" x="325.1461" y="510.2231">&#36820;&#22238;&#23457;&#25209;&#36890;&#36807;&#20449;&#24687;</text><polygon fill="#181818" points="188.8732,540.4219,178.8732,544.4219,188.8732,548.4219,184.8732,544.4219" style="stroke:#181818;stroke-width:1.0;"/><line style="stroke:#181818;stroke-width:1.0;stroke-dasharray:2.0,2.0;" x1="182.8732" x2="307.1461" y1="544.4219" y2="544.4219"/><text fill="#000000" font-family="sans-serif" font-size="13" lengthAdjust="spacing" textLength="104.0001" x="194.8732" y="539.356">&#26174;&#31034;&#23457;&#25209;&#36890;&#36807;&#20449;&#24687;</text><polygon fill="#181818" points="49.9551,569.5547,39.9551,573.5547,49.9551,577.5547,45.9551,573.5547" style="stroke:#181818;stroke-width:1.0;"/><line style="stroke:#181818;stroke-width:1.0;stroke-dasharray:2.0,2.0;" x1="43.9551" x2="176.8732" y1="573.5547" y2="573.5547"/><text fill="#000000" font-family="sans-serif" font-size="13" lengthAdjust="spacing" textLength="78.0001" x="55.9551" y="568.4888">&#25552;&#31034;&#23457;&#25209;&#23436;&#25104;</text><line style="stroke:#000000;stroke-width:1.0;stroke-dasharray:2.0,2.0;" x1="10" x2="660.1667" y1="582.5547" y2="582.5547"/><text fill="#000000" font-family="sans-serif" font-size="11" font-weight="bold" lengthAdjust="spacing" textLength="65.5163" x="15" y="592.7651">[&#36873;&#25321;"&#25171;&#22238;"]</text><polygon fill="#181818" points="296.1461,613.4922,306.1461,617.4922,296.1461,621.4922,300.1461,617.4922" style="stroke:#181818;stroke-width:1.0;"/><line style="stroke:#181818;stroke-width:1.0;" x1="177.8732" x2="302.1461" y1="617.4922" y2="617.4922"/><text fill="#000000" font-family="sans-serif" font-size="13" lengthAdjust="spacing" textLength="78.0001" x="184.8732" y="612.4263">&#25552;&#20132;&#25171;&#22238;&#35831;&#27714;</text><polygon fill="#181818" points="435.0289,642.625,445.0289,646.625,435.0289,650.625,439.0289,646.625" style="stroke:#181818;stroke-width:1.0;"/><line style="stroke:#181818;stroke-width:1.0;" x1="308.1461" x2="441.0289" y1="646.625" y2="646.625"/><text fill="#000000" font-family="sans-serif" font-size="13" lengthAdjust="spacing" textLength="78.0001" x="315.1461" y="641.5591">&#22788;&#29702;&#25171;&#22238;&#35831;&#27714;</text><polygon fill="#181818" points="576.0291,671.7578,586.0291,675.7578,576.0291,679.7578,580.0291,675.7578" style="stroke:#181818;stroke-width:1.0;"/><line style="stroke:#181818;stroke-width:1.0;" x1="447.0289" x2="582.0291" y1="675.7578" y2="675.7578"/><text fill="#000000" font-family="sans-serif" font-size="13" lengthAdjust="spacing" textLength="117.0001" x="454.0289" y="670.6919">&#26356;&#26032;&#34920;&#21333;&#29366;&#24577;&#20026;&#25171;&#22238;</text><polygon fill="#181818" points="458.0289,700.8906,448.0289,704.8906,458.0289,708.8906,454.0289,704.8906" style="stroke:#181818;stroke-width:1.0;"/><line style="stroke:#181818;stroke-width:1.0;stroke-dasharray:2.0,2.0;" x1="452.0289" x2="587.0291" y1="704.8906" y2="704.8906"/><text fill="#000000" font-family="sans-serif" font-size="13" lengthAdjust="spacing" textLength="78.0001" x="464.0289" y="699.8247">&#36820;&#22238;&#26356;&#26032;&#32467;&#26524;</text><polygon fill="#181818" points="319.1461,730.0234,309.1461,734.0234,319.1461,738.0234,315.1461,734.0234" style="stroke:#181818;stroke-width:1.0;"/><line style="stroke:#181818;stroke-width:1.0;stroke-dasharray:2.0,2.0;" x1="313.1461" x2="446.0289" y1="734.0234" y2="734.0234"/><text fill="#000000" font-family="sans-serif" font-size="13" lengthAdjust="spacing" textLength="78.0001" x="325.1461" y="728.9575">&#36820;&#22238;&#25171;&#22238;&#20449;&#24687;</text><polygon fill="#181818" points="188.8732,759.1563,178.8732,763.1563,188.8732,767.1563,184.8732,763.1563" style="stroke:#181818;stroke-width:1.0;"/><line style="stroke:#181818;stroke-width:1.0;stroke-dasharray:2.0,2.0;" x1="182.8732" x2="307.1461" y1="763.1563" y2="763.1563"/><text fill="#000000" font-family="sans-serif" font-size="13" lengthAdjust="spacing" textLength="78.0001" x="194.8732" y="758.0903">&#26174;&#31034;&#25171;&#22238;&#20449;&#24687;</text><polygon fill="#181818" points="49.9551,788.2891,39.9551,792.2891,49.9551,796.2891,45.9551,792.2891" style="stroke:#181818;stroke-width:1.0;"/><line style="stroke:#181818;stroke-width:1.0;stroke-dasharray:2.0,2.0;" x1="43.9551" x2="176.8732" y1="792.2891" y2="792.2891"/><text fill="#000000" font-family="sans-serif" font-size="13" lengthAdjust="spacing" textLength="91.0001" x="55.9551" y="787.2231">&#25552;&#31034;&#34920;&#21333;&#34987;&#25171;&#22238;</text><!--SRC=[dP9lIy907CUVtwiuVDuRy44WUomCHe_ZcaS4QvDj2JtJojAi54o954EnA0AN45a6-cRSRRwBRdVRJCzyq3qxlf_Vd_jmIBKD4-vOs0Hxnf6UGUOnJ6Mpff53cepsCKGMJCb0DNJRDBGualXTmoO3905Gi9axK7cv0ZB8Hdl8ml0GwRJfBcLKR5b1cfO12CR3hMqwA0d9mwFNhhYJeZlealANttrshniW9RDSIaBV6P7XYP1BB5TeVZDogqqXLu8ypVlxJcyrJzF-KOFfhTlgSCpxhfDEcrL7urcwRdoq_zt4wu_NxK-1uA59w0uR5E69xpoHq-AoWdc-J2elYNd-tfzU94YfcI3bEfsQ04YpLr80wLdO8TNQRDpd6JV5WLYFsp_pQkSYiF3JUYVDDxwST_b1yeNPvvZpZ1HDiOBGLDHhsHOpmNlCfbrISEAbbgNzmVrsHnyOa-xWYfHg06lqOuLM8b7hhF1iWnKHs6o5y_-rmgit-H09qKJuYtgluJ9Op_m0]--></g></svg>