<svg xmlns="http://www.w3.org/2000/svg" xmlns:xlink="http://www.w3.org/1999/xlink" contentStyleType="text/css" height="1107px" preserveAspectRatio="none" style="width:851px;height:1107px;background:#FFFFFF;" version="1.1" viewBox="0 0 851 1107" width="851px" zoomAndPan="magnify"><defs/><g><line style="stroke:#181818;stroke-width:0.5;stroke-dasharray:5.0,5.0;" x1="23" x2="23" y1="81.2969" y2="1026.2813"/><line style="stroke:#181818;stroke-width:0.5;stroke-dasharray:5.0,5.0;" x1="77.9102" x2="77.9102" y1="81.2969" y2="1026.2813"/><line style="stroke:#181818;stroke-width:0.5;stroke-dasharray:5.0,5.0;" x1="219.0744" x2="219.0744" y1="81.2969" y2="1026.2813"/><line style="stroke:#181818;stroke-width:0.5;stroke-dasharray:5.0,5.0;" x1="324.6105" x2="324.6105" y1="81.2969" y2="1026.2813"/><line style="stroke:#181818;stroke-width:0.5;stroke-dasharray:5.0,5.0;" x1="438.798" x2="438.798" y1="81.2969" y2="1026.2813"/><line style="stroke:#181818;stroke-width:0.5;stroke-dasharray:5.0,5.0;" x1="541.5583" x2="541.5583" y1="81.2969" y2="1026.2813"/><line style="stroke:#181818;stroke-width:0.5;stroke-dasharray:5.0,5.0;" x1="655.1033" x2="655.1033" y1="81.2969" y2="1026.2813"/><line style="stroke:#181818;stroke-width:0.5;stroke-dasharray:5.0,5.0;" x1="737.5144" x2="737.5144" y1="81.2969" y2="1026.2813"/><line style="stroke:#181818;stroke-width:0.5;stroke-dasharray:5.0,5.0;" x1="818.2195" x2="818.2195" y1="81.2969" y2="1026.2813"/><text fill="#000000" font-family="sans-serif" font-size="14" lengthAdjust="spacing" textLength="31.9102" x="5" y="77.9951">User</text><ellipse cx="23.9551" cy="13.5" fill="#E2E2F0" rx="8" ry="8" style="stroke:#181818;stroke-width:0.5;"/><path d="M23.9551,21.5 L23.9551,48.5 M10.9551,29.5 L36.9551,29.5 M23.9551,48.5 L10.9551,63.5 M23.9551,48.5 L36.9551,63.5 " fill="none" style="stroke:#181818;stroke-width:0.5;"/><text fill="#000000" font-family="sans-serif" font-size="14" lengthAdjust="spacing" textLength="31.9102" x="5" y="1038.2764">User</text><ellipse cx="23.9551" cy="1050.0781" fill="#E2E2F0" rx="8" ry="8" style="stroke:#181818;stroke-width:0.5;"/><path d="M23.9551,1058.0781 L23.9551,1085.0781 M10.9551,1066.0781 L36.9551,1066.0781 M23.9551,1085.0781 L10.9551,1100.0781 M23.9551,1085.0781 L36.9551,1100.0781 " fill="none" style="stroke:#181818;stroke-width:0.5;"/><text fill="#000000" font-family="sans-serif" font-size="14" lengthAdjust="spacing" textLength="44.8643" x="52.9102" y="77.9951">Admin</text><ellipse cx="78.3423" cy="13.5" fill="#E2E2F0" rx="8" ry="8" style="stroke:#181818;stroke-width:0.5;"/><path d="M78.3423,21.5 L78.3423,48.5 M65.3423,29.5 L91.3423,29.5 M78.3423,48.5 L65.3423,63.5 M78.3423,48.5 L91.3423,63.5 " fill="none" style="stroke:#181818;stroke-width:0.5;"/><text fill="#000000" font-family="sans-serif" font-size="14" lengthAdjust="spacing" textLength="44.8643" x="52.9102" y="1038.2764">Admin</text><ellipse cx="78.3423" cy="1050.0781" fill="#E2E2F0" rx="8" ry="8" style="stroke:#181818;stroke-width:0.5;"/><path d="M78.3423,1058.0781 L78.3423,1085.0781 M65.3423,1066.0781 L91.3423,1066.0781 M78.3423,1085.0781 L65.3423,1100.0781 M78.3423,1085.0781 L91.3423,1100.0781 " fill="none" style="stroke:#181818;stroke-width:0.5;"/><text fill="#000000" font-family="sans-serif" font-size="14" lengthAdjust="spacing" textLength="72.5361" x="180.0744" y="77.9951">LoginPage</text><path d="M198.8424,37 L198.8424,61 M198.8424,49 L215.8424,49 " fill="none" style="stroke:#181818;stroke-width:0.5;"/><ellipse cx="227.8424" cy="49" fill="#E2E2F0" rx="12" ry="12" style="stroke:#181818;stroke-width:0.5;"/><text fill="#000000" font-family="sans-serif" font-size="14" lengthAdjust="spacing" textLength="72.5361" x="180.0744" y="1038.2764">LoginPage</text><path d="M198.8424,1045.5781 L198.8424,1069.5781 M198.8424,1057.5781 L215.8424,1057.5781 " fill="none" style="stroke:#181818;stroke-width:0.5;"/><ellipse cx="227.8424" cy="1057.5781" fill="#E2E2F0" rx="12" ry="12" style="stroke:#181818;stroke-width:0.5;"/><text fill="#000000" font-family="sans-serif" font-size="14" lengthAdjust="spacing" textLength="107.1875" x="268.6105" y="77.9951">LoginController</text><ellipse cx="325.2042" cy="49" fill="#E2E2F0" rx="12" ry="12" style="stroke:#181818;stroke-width:0.5;"/><polygon fill="#181818" points="321.2042,37,327.2042,32,325.2042,37,327.2042,42,321.2042,37" style="stroke:#181818;stroke-width:1.0;"/><text fill="#000000" font-family="sans-serif" font-size="14" lengthAdjust="spacing" textLength="107.1875" x="268.6105" y="1038.2764">LoginController</text><ellipse cx="325.2042" cy="1057.5781" fill="#E2E2F0" rx="12" ry="12" style="stroke:#181818;stroke-width:0.5;"/><polygon fill="#181818" points="321.2042,1045.5781,327.2042,1040.5781,325.2042,1045.5781,327.2042,1050.5781,321.2042,1045.5781" style="stroke:#181818;stroke-width:1.0;"/><text fill="#000000" font-family="sans-serif" font-size="14" lengthAdjust="spacing" textLength="89.7559" x="391.798" y="77.9951">LoginService</text><ellipse cx="439.6759" cy="49" fill="#E2E2F0" rx="12" ry="12" style="stroke:#181818;stroke-width:0.5;"/><polygon fill="#181818" points="435.6759,37,441.6759,32,439.6759,37,441.6759,42,435.6759,37" style="stroke:#181818;stroke-width:1.0;"/><text fill="#000000" font-family="sans-serif" font-size="14" lengthAdjust="spacing" textLength="89.7559" x="391.798" y="1038.2764">LoginService</text><ellipse cx="439.6759" cy="1057.5781" fill="#E2E2F0" rx="12" ry="12" style="stroke:#181818;stroke-width:0.5;"/><polygon fill="#181818" points="435.6759,1045.5781,441.6759,1040.5781,439.6759,1045.5781,441.6759,1050.5781,435.6759,1045.5781" style="stroke:#181818;stroke-width:1.0;"/><text fill="#000000" font-family="sans-serif" font-size="14" lengthAdjust="spacing" textLength="77.8682" x="500.5583" y="77.9951">Interceptor</text><ellipse cx="542.4924" cy="49" fill="#E2E2F0" rx="12" ry="12" style="stroke:#181818;stroke-width:0.5;"/><polygon fill="#181818" points="538.4924,37,544.4924,32,542.4924,37,544.4924,42,538.4924,37" style="stroke:#181818;stroke-width:1.0;"/><text fill="#000000" font-family="sans-serif" font-size="14" lengthAdjust="spacing" textLength="77.8682" x="500.5583" y="1038.2764">Interceptor</text><ellipse cx="542.4924" cy="1057.5781" fill="#E2E2F0" rx="12" ry="12" style="stroke:#181818;stroke-width:0.5;"/><polygon fill="#181818" points="538.4924,1045.5781,544.4924,1040.5781,542.4924,1045.5781,544.4924,1050.5781,538.4924,1045.5781" style="stroke:#181818;stroke-width:1.0;"/><text fill="#000000" font-family="sans-serif" font-size="14" lengthAdjust="spacing" textLength="38.4111" x="633.1033" y="77.9951">Redis</text><ellipse cx="655.3089" cy="49" fill="#E2E2F0" rx="12" ry="12" style="stroke:#181818;stroke-width:0.5;"/><polygon fill="#181818" points="651.3089,37,657.3089,32,655.3089,37,657.3089,42,651.3089,37" style="stroke:#181818;stroke-width:1.0;"/><text fill="#000000" font-family="sans-serif" font-size="14" lengthAdjust="spacing" textLength="38.4111" x="633.1033" y="1038.2764">Redis</text><ellipse cx="655.3089" cy="1057.5781" fill="#E2E2F0" rx="12" ry="12" style="stroke:#181818;stroke-width:0.5;"/><polygon fill="#181818" points="651.3089,1045.5781,657.3089,1040.5781,655.3089,1045.5781,657.3089,1050.5781,651.3089,1045.5781" style="stroke:#181818;stroke-width:1.0;"/><text fill="#000000" font-family="sans-serif" font-size="14" lengthAdjust="spacing" textLength="94.7051" x="687.5144" y="77.9951">manage_user</text><path d="M719.867,29 C719.867,19 737.867,19 737.867,19 C737.867,19 755.867,19 755.867,29 L755.867,55 C755.867,65 737.867,65 737.867,65 C737.867,65 719.867,65 719.867,55 L719.867,29 " fill="#E2E2F0" style="stroke:#181818;stroke-width:1.5;"/><path d="M719.867,29 C719.867,39 737.867,39 737.867,39 C737.867,39 755.867,39 755.867,29 " fill="none" style="stroke:#181818;stroke-width:1.5;"/><text fill="#000000" font-family="sans-serif" font-size="14" lengthAdjust="spacing" textLength="94.7051" x="687.5144" y="1038.2764">manage_user</text><path d="M719.867,1051.5781 C719.867,1041.5781 737.867,1041.5781 737.867,1041.5781 C737.867,1041.5781 755.867,1041.5781 755.867,1051.5781 L755.867,1077.5781 C755.867,1087.5781 737.867,1087.5781 737.867,1087.5781 C737.867,1087.5781 719.867,1087.5781 719.867,1077.5781 L719.867,1051.5781 " fill="#E2E2F0" style="stroke:#181818;stroke-width:1.5;"/><path d="M719.867,1051.5781 C719.867,1061.5781 737.867,1061.5781 737.867,1061.5781 C737.867,1061.5781 755.867,1061.5781 755.867,1051.5781 " fill="none" style="stroke:#181818;stroke-width:1.5;"/><text fill="#000000" font-family="sans-serif" font-size="14" lengthAdjust="spacing" textLength="35.6904" x="798.2195" y="77.9951">Filter</text><ellipse cx="819.0647" cy="49" fill="#E2E2F0" rx="12" ry="12" style="stroke:#181818;stroke-width:0.5;"/><polygon fill="#181818" points="815.0647,37,821.0647,32,819.0647,37,821.0647,42,815.0647,37" style="stroke:#181818;stroke-width:1.0;"/><text fill="#000000" font-family="sans-serif" font-size="14" lengthAdjust="spacing" textLength="35.6904" x="798.2195" y="1038.2764">Filter</text><ellipse cx="819.0647" cy="1057.5781" fill="#E2E2F0" rx="12" ry="12" style="stroke:#181818;stroke-width:0.5;"/><polygon fill="#181818" points="815.0647,1045.5781,821.0647,1040.5781,819.0647,1045.5781,821.0647,1050.5781,815.0647,1045.5781" style="stroke:#181818;stroke-width:1.0;"/><polygon fill="#181818" points="207.3424,108.4297,217.3424,112.4297,207.3424,116.4297,211.3424,112.4297" style="stroke:#181818;stroke-width:1.0;"/><line style="stroke:#181818;stroke-width:1.0;" x1="23.9551" x2="213.3424" y1="112.4297" y2="112.4297"/><text fill="#000000" font-family="sans-serif" font-size="13" lengthAdjust="spacing" textLength="78.0001" x="30.9551" y="107.3638">&#36755;&#20837;&#36134;&#21495;&#23494;&#30721;</text><polygon fill="#181818" points="207.3424,137.5625,217.3424,141.5625,207.3424,145.5625,211.3424,141.5625" style="stroke:#181818;stroke-width:1.0;"/><line style="stroke:#181818;stroke-width:1.0;" x1="78.3423" x2="213.3424" y1="141.5625" y2="141.5625"/><text fill="#000000" font-family="sans-serif" font-size="13" lengthAdjust="spacing" textLength="117.0001" x="85.3423" y="136.4966">&#36755;&#20837;&#31649;&#29702;&#21592;&#36134;&#21495;&#23494;&#30721;</text><polygon fill="#181818" points="313.2042,166.6953,323.2042,170.6953,313.2042,174.6953,317.2042,170.6953" style="stroke:#181818;stroke-width:1.0;"/><line style="stroke:#181818;stroke-width:1.0;" x1="219.3424" x2="319.2042" y1="170.6953" y2="170.6953"/><text fill="#000000" font-family="sans-serif" font-size="13" lengthAdjust="spacing" textLength="78.0001" x="226.3424" y="165.6294">&#21457;&#36865;&#30331;&#24405;&#35831;&#27714;</text><polygon fill="#181818" points="427.6759,195.8281,437.6759,199.8281,427.6759,203.8281,431.6759,199.8281" style="stroke:#181818;stroke-width:1.0;"/><line style="stroke:#181818;stroke-width:1.0;" x1="325.2042" x2="433.6759" y1="199.8281" y2="199.8281"/><text fill="#000000" font-family="sans-serif" font-size="13" lengthAdjust="spacing" textLength="78.0001" x="332.2042" y="194.7622">&#39564;&#35777;&#36134;&#21495;&#23494;&#30721;</text><polygon fill="#181818" points="725.867,224.9609,735.867,228.9609,725.867,232.9609,729.867,228.9609" style="stroke:#181818;stroke-width:1.0;"/><line style="stroke:#181818;stroke-width:1.0;" x1="439.6759" x2="731.867" y1="228.9609" y2="228.9609"/><text fill="#000000" font-family="sans-serif" font-size="13" lengthAdjust="spacing" textLength="78.0001" x="446.6759" y="223.895">&#26597;&#35810;&#36134;&#21495;&#20449;&#24687;</text><polygon fill="#181818" points="450.6759,254.0938,440.6759,258.0938,450.6759,262.0938,446.6759,258.0938" style="stroke:#181818;stroke-width:1.0;"/><line style="stroke:#181818;stroke-width:1.0;stroke-dasharray:2.0,2.0;" x1="444.6759" x2="736.867" y1="258.0938" y2="258.0938"/><text fill="#000000" font-family="sans-serif" font-size="13" lengthAdjust="spacing" textLength="78.0001" x="456.6759" y="253.0278">&#36820;&#22238;&#26597;&#35810;&#32467;&#26524;</text><path d="M331,271.0938 L331,296.0938 L547,296.0938 L547,281.0938 L537,271.0938 L331,271.0938 " fill="#FEFFDD" style="stroke:#181818;stroke-width:0.5;"/><path d="M537,271.0938 L537,281.0938 L547,281.0938 L537,271.0938 " fill="#FEFFDD" style="stroke:#181818;stroke-width:0.5;"/><text fill="#000000" font-family="sans-serif" font-size="13" lengthAdjust="spacing" textLength="195.0002" x="337" y="288.1606">&#22914;&#26524;&#36134;&#21495;&#23494;&#30721;&#27491;&#30830;&#19988;&#36134;&#21495;&#26410;&#34987;&#20923;&#32467;</text><line style="stroke:#181818;stroke-width:1.0;" x1="439.6759" x2="481.6759" y1="322.3594" y2="322.3594"/><line style="stroke:#181818;stroke-width:1.0;" x1="481.6759" x2="481.6759" y1="322.3594" y2="335.3594"/><line style="stroke:#181818;stroke-width:1.0;" x1="440.6759" x2="481.6759" y1="335.3594" y2="335.3594"/><polygon fill="#181818" points="450.6759,331.3594,440.6759,335.3594,450.6759,339.3594,446.6759,335.3594" style="stroke:#181818;stroke-width:1.0;"/><text fill="#000000" font-family="sans-serif" font-size="13" lengthAdjust="spacing" textLength="88.8165" x="446.6759" y="317.2935">&#21019;&#24314;&#20250;&#35805;token</text><polygon fill="#181818" points="643.3089,360.4922,653.3089,364.4922,643.3089,368.4922,647.3089,364.4922" style="stroke:#181818;stroke-width:1.0;"/><line style="stroke:#181818;stroke-width:1.0;" x1="439.6759" x2="649.3089" y1="364.4922" y2="364.4922"/><text fill="#000000" font-family="sans-serif" font-size="13" lengthAdjust="spacing" textLength="88.8165" x="446.6759" y="359.4263">&#20445;&#23384;&#20250;&#35805;token</text><polygon fill="#181818" points="450.6759,389.625,440.6759,393.625,450.6759,397.625,446.6759,393.625" style="stroke:#181818;stroke-width:1.0;"/><line style="stroke:#181818;stroke-width:1.0;stroke-dasharray:2.0,2.0;" x1="444.6759" x2="654.3089" y1="393.625" y2="393.625"/><text fill="#000000" font-family="sans-serif" font-size="13" lengthAdjust="spacing" textLength="78.0001" x="456.6759" y="388.5591">&#30830;&#35748;&#20445;&#23384;&#25104;&#21151;</text><polygon fill="#181818" points="336.2042,418.7578,326.2042,422.7578,336.2042,426.7578,332.2042,422.7578" style="stroke:#181818;stroke-width:1.0;"/><line style="stroke:#181818;stroke-width:1.0;stroke-dasharray:2.0,2.0;" x1="330.2042" x2="438.6759" y1="422.7578" y2="422.7578"/><text fill="#000000" font-family="sans-serif" font-size="13" lengthAdjust="spacing" textLength="88.8165" x="342.2042" y="417.6919">&#36820;&#22238;&#20250;&#35805;token</text><polygon fill="#181818" points="230.3424,447.8906,220.3424,451.8906,230.3424,455.8906,226.3424,451.8906" style="stroke:#181818;stroke-width:1.0;"/><line style="stroke:#181818;stroke-width:1.0;stroke-dasharray:2.0,2.0;" x1="224.3424" x2="324.2042" y1="451.8906" y2="451.8906"/><text fill="#000000" font-family="sans-serif" font-size="13" lengthAdjust="spacing" textLength="78.0001" x="236.3424" y="446.8247">&#26174;&#31034;&#30331;&#24405;&#25104;&#21151;</text><polygon fill="#181818" points="34.9551,477.0234,24.9551,481.0234,34.9551,485.0234,30.9551,481.0234" style="stroke:#181818;stroke-width:1.0;"/><line style="stroke:#181818;stroke-width:1.0;stroke-dasharray:2.0,2.0;" x1="28.9551" x2="218.3424" y1="481.0234" y2="481.0234"/><text fill="#000000" font-family="sans-serif" font-size="13" lengthAdjust="spacing" textLength="91.0001" x="40.9551" y="475.9575">&#36339;&#36716;&#21040;&#29992;&#25143;&#39318;&#39029;</text><polygon fill="#181818" points="89.3423,506.1563,79.3423,510.1563,89.3423,514.1563,85.3423,510.1563" style="stroke:#181818;stroke-width:1.0;"/><line style="stroke:#181818;stroke-width:1.0;stroke-dasharray:2.0,2.0;" x1="83.3423" x2="218.3424" y1="510.1563" y2="510.1563"/><text fill="#000000" font-family="sans-serif" font-size="13" lengthAdjust="spacing" textLength="91.0001" x="95.3423" y="505.0903">&#36339;&#36716;&#21040;&#31649;&#29702;&#39029;&#38754;</text><path d="M338,523.1563 L338,548.1563 L541,548.1563 L541,533.1563 L531,523.1563 L338,523.1563 " fill="#FEFFDD" style="stroke:#181818;stroke-width:0.5;"/><path d="M531,523.1563 L531,533.1563 L541,533.1563 L531,523.1563 " fill="#FEFFDD" style="stroke:#181818;stroke-width:0.5;"/><text fill="#000000" font-family="sans-serif" font-size="13" lengthAdjust="spacing" textLength="182.0002" x="344" y="540.2231">&#22914;&#26524;&#36134;&#21495;&#23494;&#30721;&#38169;&#35823;&#25110;&#36134;&#21495;&#34987;&#20923;&#32467;</text><polygon fill="#181818" points="336.2042,570.4219,326.2042,574.4219,336.2042,578.4219,332.2042,574.4219" style="stroke:#181818;stroke-width:1.0;"/><line style="stroke:#181818;stroke-width:1.0;stroke-dasharray:2.0,2.0;" x1="330.2042" x2="438.6759" y1="574.4219" y2="574.4219"/><text fill="#000000" font-family="sans-serif" font-size="13" lengthAdjust="spacing" textLength="78.0001" x="342.2042" y="569.356">&#36820;&#22238;&#38169;&#35823;&#20449;&#24687;</text><polygon fill="#181818" points="230.3424,599.5547,220.3424,603.5547,230.3424,607.5547,226.3424,603.5547" style="stroke:#181818;stroke-width:1.0;"/><line style="stroke:#181818;stroke-width:1.0;stroke-dasharray:2.0,2.0;" x1="224.3424" x2="324.2042" y1="603.5547" y2="603.5547"/><text fill="#000000" font-family="sans-serif" font-size="13" lengthAdjust="spacing" textLength="78.0001" x="236.3424" y="598.4888">&#26174;&#31034;&#38169;&#35823;&#20449;&#24687;</text><polygon fill="#181818" points="34.9551,628.6875,24.9551,632.6875,34.9551,636.6875,30.9551,632.6875" style="stroke:#181818;stroke-width:1.0;"/><line style="stroke:#181818;stroke-width:1.0;stroke-dasharray:2.0,2.0;" x1="28.9551" x2="218.3424" y1="632.6875" y2="632.6875"/><text fill="#000000" font-family="sans-serif" font-size="13" lengthAdjust="spacing" textLength="78.0001" x="40.9551" y="627.6216">&#23637;&#31034;&#38169;&#35823;&#28040;&#24687;</text><polygon fill="#181818" points="89.3423,657.8203,79.3423,661.8203,89.3423,665.8203,85.3423,661.8203" style="stroke:#181818;stroke-width:1.0;"/><line style="stroke:#181818;stroke-width:1.0;stroke-dasharray:2.0,2.0;" x1="83.3423" x2="218.3424" y1="661.8203" y2="661.8203"/><text fill="#000000" font-family="sans-serif" font-size="13" lengthAdjust="spacing" textLength="78.0001" x="95.3423" y="656.7544">&#23637;&#31034;&#38169;&#35823;&#28040;&#24687;</text><rect fill="#EEEEEE" height="3" style="stroke:#EEEEEE;stroke-width:1.0;" width="844.9099" x="0" y="690.3867"/><line style="stroke:#000000;stroke-width:1.0;" x1="0" x2="844.9099" y1="690.3867" y2="690.3867"/><line style="stroke:#000000;stroke-width:1.0;" x1="0" x2="844.9099" y1="693.3867" y2="693.3867"/><rect fill="#EEEEEE" height="23.1328" style="stroke:#000000;stroke-width:2.0;" width="109.526" x="367.692" y="679.8203"/><text fill="#000000" font-family="sans-serif" font-size="13" font-weight="bold" lengthAdjust="spacing" textLength="91.0001" x="373.692" y="695.8872">&#30331;&#24405;&#21518;&#35775;&#38382;&#39029;&#38754;</text><polygon fill="#181818" points="807.0647,730.0859,817.0647,734.0859,807.0647,738.0859,811.0647,734.0859" style="stroke:#181818;stroke-width:1.0;"/><line style="stroke:#181818;stroke-width:1.0;" x1="23.9551" x2="813.0647" y1="734.0859" y2="734.0859"/><text fill="#000000" font-family="sans-serif" font-size="13" lengthAdjust="spacing" textLength="52.0001" x="30.9551" y="729.02">&#35831;&#27714;&#39029;&#38754;</text><polygon fill="#181818" points="553.4924,759.2188,543.4924,763.2188,553.4924,767.2188,549.4924,763.2188" style="stroke:#181818;stroke-width:1.0;"/><line style="stroke:#181818;stroke-width:1.0;" x1="547.4924" x2="818.0647" y1="763.2188" y2="763.2188"/><text fill="#000000" font-family="sans-serif" font-size="13" lengthAdjust="spacing" textLength="52.0001" x="559.4924" y="758.1528">&#39564;&#35777;&#35831;&#27714;</text><polygon fill="#181818" points="643.3089,788.3516,653.3089,792.3516,643.3089,796.3516,647.3089,792.3516" style="stroke:#181818;stroke-width:1.0;"/><line style="stroke:#181818;stroke-width:1.0;" x1="542.4924" x2="649.3089" y1="792.3516" y2="792.3516"/><text fill="#000000" font-family="sans-serif" font-size="13" lengthAdjust="spacing" textLength="62.8164" x="549.4924" y="787.2856">&#26816;&#26597;token</text><polygon fill="#181818" points="553.4924,817.4844,543.4924,821.4844,553.4924,825.4844,549.4924,821.4844" style="stroke:#181818;stroke-width:1.0;"/><line style="stroke:#181818;stroke-width:1.0;stroke-dasharray:2.0,2.0;" x1="547.4924" x2="654.3089" y1="821.4844" y2="821.4844"/><text fill="#000000" font-family="sans-serif" font-size="13" lengthAdjust="spacing" textLength="88.8165" x="559.4924" y="816.4185">&#36820;&#22238;token&#29366;&#24577;</text><path d="M487,834.4844 L487,859.4844 L596,859.4844 L596,844.4844 L586,834.4844 L487,834.4844 " fill="#FEFFDD" style="stroke:#181818;stroke-width:0.5;"/><path d="M586,834.4844 L586,844.4844 L596,844.4844 L586,834.4844 " fill="#FEFFDD" style="stroke:#181818;stroke-width:0.5;"/><text fill="#000000" font-family="sans-serif" font-size="13" lengthAdjust="spacing" textLength="88.8165" x="493" y="851.5513">&#22914;&#26524;token&#26377;&#25928;</text><polygon fill="#181818" points="807.0647,881.75,817.0647,885.75,807.0647,889.75,811.0647,885.75" style="stroke:#181818;stroke-width:1.0;"/><line style="stroke:#181818;stroke-width:1.0;stroke-dasharray:2.0,2.0;" x1="542.4924" x2="813.0647" y1="885.75" y2="885.75"/><text fill="#000000" font-family="sans-serif" font-size="13" lengthAdjust="spacing" textLength="52.0001" x="549.4924" y="880.6841">&#39564;&#35777;&#36890;&#36807;</text><polygon fill="#181818" points="34.9551,910.8828,24.9551,914.8828,34.9551,918.8828,30.9551,914.8828" style="stroke:#181818;stroke-width:1.0;"/><line style="stroke:#181818;stroke-width:1.0;stroke-dasharray:2.0,2.0;" x1="28.9551" x2="818.0647" y1="914.8828" y2="914.8828"/><text fill="#000000" font-family="sans-serif" font-size="13" lengthAdjust="spacing" textLength="52.0001" x="40.9551" y="909.8169">&#23637;&#31034;&#39029;&#38754;</text><path d="M487,927.8828 L487,952.8828 L596,952.8828 L596,937.8828 L586,927.8828 L487,927.8828 " fill="#FEFFDD" style="stroke:#181818;stroke-width:0.5;"/><path d="M586,927.8828 L586,937.8828 L596,937.8828 L586,927.8828 " fill="#FEFFDD" style="stroke:#181818;stroke-width:0.5;"/><text fill="#000000" font-family="sans-serif" font-size="13" lengthAdjust="spacing" textLength="88.8165" x="493" y="944.9497">&#22914;&#26524;token&#26080;&#25928;</text><polygon fill="#181818" points="807.0647,975.1484,817.0647,979.1484,807.0647,983.1484,811.0647,979.1484" style="stroke:#181818;stroke-width:1.0;"/><line style="stroke:#181818;stroke-width:1.0;stroke-dasharray:2.0,2.0;" x1="542.4924" x2="813.0647" y1="979.1484" y2="979.1484"/><text fill="#000000" font-family="sans-serif" font-size="13" lengthAdjust="spacing" textLength="52.0001" x="549.4924" y="974.0825">&#39564;&#35777;&#22833;&#36133;</text><polygon fill="#181818" points="34.9551,1004.2813,24.9551,1008.2813,34.9551,1012.2813,30.9551,1008.2813" style="stroke:#181818;stroke-width:1.0;"/><line style="stroke:#181818;stroke-width:1.0;stroke-dasharray:2.0,2.0;" x1="28.9551" x2="818.0647" y1="1008.2813" y2="1008.2813"/><text fill="#000000" font-family="sans-serif" font-size="13" lengthAdjust="spacing" textLength="104.0001" x="40.9551" y="1003.2153">&#37325;&#23450;&#21521;&#21040;&#30331;&#24405;&#39029;&#38754;</text><!--SRC=[XPBVJXf15CRlvoactli293GX418II0miryqA6qEAkysoclGEJ8fRqrQ8e8YWWa0QMtTBQgMHAY_3pCw-HUVFkc7Kf7Uxv_UTSxvppgW5op1XlgAPGEMViU9sIGURnevULCqFC6ribVGDTKk3QWMcDq31q2tJA8juNFoKDPFHM5ocEStSBHLuOYmNefHkQMP1UyzwKP9IGfBLYgKAYsKJeAXQwgPQqU3QjghJxcztgCCr1ZFvC25PAbkYTL81WCq0rzzGan587e_Gnp6vdQ336NBhtcKDyBbaxZa3hr57pOuaJ6ymLImUWUYmwLThtkaSFRI9EyFJFH2BSvYBGF_wCt5hSeiSWvby1EABCN670YuN0rnpGIOFruDKicYXitEXyUP7-Bm7W6vO6ZHswGXCWIPxDBfQ7DzSUGDd-QSbWhXtJORVKNrEyuE-FCy-G_FxvTykSVkMyKxJ0vPDHE1oqKStdLMMJOIMQ6tYZ8G4smrqSC4pWqK8mrBPE8TibxZpw8tknPQ2LBP2Ijb5QFBi5tduWUoVNkiRjcV-vDWV_7wIyAkiQlX9gC3l3_-_5BzrIbmNsySYA6z4yYwKmIbUc9UeP1vDso77T_OA3vo_8W3HA1JhG8sln5du9uuO24QZuIjDAjGQVrF1i4c5XLDA-BB4WqifJ_V3LrNwPAJBCRMOZuUzWpjShQriZN6nDSvnxnDksxnau42qygjTijZd3fuF_k8GpqkUNBvQ4escv7Oib_Jtlo2dYnfDTcU-7r7-7m00]--></g></svg>