<svg xmlns="http://www.w3.org/2000/svg" xmlns:xlink="http://www.w3.org/1999/xlink" contentStyleType="text/css" height="420px" preserveAspectRatio="none" style="width:348px;height:420px;background:#FFFFFF;" version="1.1" viewBox="0 0 348 420" width="348px" zoomAndPan="magnify"><defs/><g><ellipse cx="187.0008" cy="20" fill="#222222" rx="10" ry="10" style="stroke:#222222;stroke-width:1.0;"/><rect fill="#F1F1F1" height="33.9688" rx="12.5" ry="12.5" style="stroke:#181818;stroke-width:0.5;" width="92.0005" x="141.0006" y="50"/><text fill="#000000" font-family="sans-serif" font-size="12" lengthAdjust="spacing" textLength="72.0005" x="151.0006" y="71.1387">&#25171;&#24320;&#30331;&#24405;&#39029;&#38754;</text><polygon fill="#F1F1F1" points="159.501,103.9688,214.5007,103.9688,226.5007,115.9688,214.5007,127.9688,159.501,127.9688,147.501,115.9688,159.501,103.9688" style="stroke:#181818;stroke-width:0.5;"/><text fill="#000000" font-family="sans-serif" font-size="11" lengthAdjust="spacing" textLength="54.9996" x="159.501" y="119.7769">&#26159;&#21542;&#26377;&#36134;&#21495;</text><text fill="#000000" font-family="sans-serif" font-size="11" lengthAdjust="spacing" textLength="10.9999" x="136.5011" y="113.3745">&#26377;</text><text fill="#000000" font-family="sans-serif" font-size="11" lengthAdjust="spacing" textLength="21.9998" x="226.5007" y="113.3745">&#27809;&#26377;</text><rect fill="#F1F1F1" height="33.9688" rx="12.5" ry="12.5" style="stroke:#181818;stroke-width:0.5;" width="116.0007" x="37" y="137.9688"/><text fill="#000000" font-family="sans-serif" font-size="12" lengthAdjust="spacing" textLength="96.0007" x="47" y="159.1074">&#36755;&#20837;&#29992;&#25143;&#21517;&#21644;&#23494;&#30721;</text><rect fill="#F1F1F1" height="33.9688" rx="12.5" ry="12.5" style="stroke:#181818;stroke-width:0.5;" width="92.0005" x="49.0001" y="191.9375"/><text fill="#000000" font-family="sans-serif" font-size="12" lengthAdjust="spacing" textLength="72.0005" x="59.0001" y="213.0762">&#39564;&#35777;&#29992;&#25143;&#20973;&#25454;</text><polygon fill="#F1F1F1" points="70.0814,245.9063,119.9194,245.9063,131.9194,257.9063,119.9194,269.9063,70.0814,269.9063,58.0814,257.9063,70.0814,245.9063" style="stroke:#181818;stroke-width:0.5;"/><text fill="#000000" font-family="sans-serif" font-size="11" lengthAdjust="spacing" textLength="49.8381" x="70.0814" y="261.7144">&#20973;&#25454;&#26377;&#25928;?</text><text fill="#000000" font-family="sans-serif" font-size="11" lengthAdjust="spacing" textLength="10.9999" x="47.0815" y="255.312">&#26159;</text><text fill="#000000" font-family="sans-serif" font-size="11" lengthAdjust="spacing" textLength="10.9999" x="131.9194" y="255.312">&#21542;</text><rect fill="#F1F1F1" height="33.9688" rx="12.5" ry="12.5" style="stroke:#181818;stroke-width:0.5;" width="68.0004" x="11" y="279.9063"/><text fill="#000000" font-family="sans-serif" font-size="12" lengthAdjust="spacing" textLength="48.0004" x="21" y="301.0449">&#30331;&#24405;&#25104;&#21151;</text><ellipse cx="45.0002" cy="344.875" fill="none" rx="11" ry="11" style="stroke:#222222;stroke-width:1.0;"/><ellipse cx="45.0002" cy="344.875" fill="#222222" rx="6" ry="6" style="stroke:#222222;stroke-width:1.0;"/><rect fill="#F1F1F1" height="33.9688" rx="12.5" ry="12.5" style="stroke:#181818;stroke-width:0.5;" width="92.0005" x="99.0004" y="279.9063"/><text fill="#000000" font-family="sans-serif" font-size="12" lengthAdjust="spacing" textLength="72.0005" x="109.0004" y="301.0449">&#26174;&#31034;&#38169;&#35823;&#28040;&#24687;</text><rect fill="#F1F1F1" height="33.9688" rx="12.5" ry="12.5" style="stroke:#181818;stroke-width:0.5;" width="92.0005" x="99.0004" y="333.875"/><text fill="#000000" font-family="sans-serif" font-size="12" lengthAdjust="spacing" textLength="72.0005" x="109.0004" y="355.0137">&#36820;&#22238;&#30331;&#24405;&#39029;&#38754;</text><ellipse cx="145.0006" cy="398.8438" fill="none" rx="11" ry="11" style="stroke:#222222;stroke-width:1.0;"/><ellipse cx="145.0006" cy="398.8438" fill="#222222" rx="6" ry="6" style="stroke:#222222;stroke-width:1.0;"/><rect fill="#F1F1F1" height="33.9688" rx="12.5" ry="12.5" style="stroke:#181818;stroke-width:0.5;" width="92.0005" x="233.001" y="137.9688"/><text fill="#000000" font-family="sans-serif" font-size="12" lengthAdjust="spacing" textLength="72.0005" x="243.001" y="159.1074">&#21069;&#24448;&#27880;&#20876;&#39029;&#38754;</text><rect fill="#F1F1F1" height="33.9688" rx="12.5" ry="12.5" style="stroke:#181818;stroke-width:0.5;" width="116.0007" x="221.0009" y="191.9375"/><text fill="#000000" font-family="sans-serif" font-size="12" lengthAdjust="spacing" textLength="96.0007" x="231.0009" y="213.0762">&#27880;&#20876;&#25104;&#20026;&#26222;&#36890;&#29992;&#25143;</text><ellipse cx="279.0013" cy="256.9063" fill="none" rx="11" ry="11" style="stroke:#222222;stroke-width:1.0;"/><ellipse cx="279.0013" cy="256.9063" fill="#222222" rx="6" ry="6" style="stroke:#222222;stroke-width:1.0;"/><line style="stroke:#181818;stroke-width:1.0;" x1="187.0008" x2="187.0008" y1="30" y2="50"/><polygon fill="#181818" points="183.0008,40,187.0008,50,191.0008,40,187.0008,44" style="stroke:#181818;stroke-width:1.0;"/><line style="stroke:#181818;stroke-width:1.0;" x1="95.0004" x2="95.0004" y1="171.9375" y2="191.9375"/><polygon fill="#181818" points="91.0004,181.9375,95.0004,191.9375,99.0004,181.9375,95.0004,185.9375" style="stroke:#181818;stroke-width:1.0;"/><line style="stroke:#181818;stroke-width:1.0;" x1="45.0002" x2="45.0002" y1="313.875" y2="333.875"/><polygon fill="#181818" points="41.0002,323.875,45.0002,333.875,49.0002,323.875,45.0002,327.875" style="stroke:#181818;stroke-width:1.0;"/><line style="stroke:#181818;stroke-width:1.0;" x1="145.0006" x2="145.0006" y1="313.875" y2="333.875"/><polygon fill="#181818" points="141.0006,323.875,145.0006,333.875,149.0006,323.875,145.0006,327.875" style="stroke:#181818;stroke-width:1.0;"/><line style="stroke:#181818;stroke-width:1.0;" x1="145.0006" x2="145.0006" y1="367.8438" y2="387.8438"/><polygon fill="#181818" points="141.0006,377.8438,145.0006,387.8438,149.0006,377.8438,145.0006,381.8438" style="stroke:#181818;stroke-width:1.0;"/><line style="stroke:#181818;stroke-width:1.0;" x1="58.0814" x2="45.0002" y1="257.9063" y2="257.9063"/><line style="stroke:#181818;stroke-width:1.0;" x1="45.0002" x2="45.0002" y1="257.9063" y2="279.9063"/><polygon fill="#181818" points="41.0002,269.9063,45.0002,279.9063,49.0002,269.9063,45.0002,273.9063" style="stroke:#181818;stroke-width:1.0;"/><line style="stroke:#181818;stroke-width:1.0;" x1="131.9194" x2="145.0006" y1="257.9063" y2="257.9063"/><line style="stroke:#181818;stroke-width:1.0;" x1="145.0006" x2="145.0006" y1="257.9063" y2="279.9063"/><polygon fill="#181818" points="141.0006,269.9063,145.0006,279.9063,149.0006,269.9063,145.0006,273.9063" style="stroke:#181818;stroke-width:1.0;"/><line style="stroke:#181818;stroke-width:1.0;" x1="95.0004" x2="95.0004" y1="225.9063" y2="245.9063"/><polygon fill="#181818" points="91.0004,235.9063,95.0004,245.9063,99.0004,235.9063,95.0004,239.9063" style="stroke:#181818;stroke-width:1.0;"/><line style="stroke:#181818;stroke-width:1.0;" x1="279.0013" x2="279.0013" y1="171.9375" y2="191.9375"/><polygon fill="#181818" points="275.0013,181.9375,279.0013,191.9375,283.0013,181.9375,279.0013,185.9375" style="stroke:#181818;stroke-width:1.0;"/><line style="stroke:#181818;stroke-width:1.0;" x1="279.0013" x2="279.0013" y1="225.9063" y2="245.9063"/><polygon fill="#181818" points="275.0013,235.9063,279.0013,245.9063,283.0013,235.9063,279.0013,239.9063" style="stroke:#181818;stroke-width:1.0;"/><line style="stroke:#181818;stroke-width:1.0;" x1="147.501" x2="95.0004" y1="115.9688" y2="115.9688"/><line style="stroke:#181818;stroke-width:1.0;" x1="95.0004" x2="95.0004" y1="115.9688" y2="137.9688"/><polygon fill="#181818" points="91.0004,127.9688,95.0004,137.9688,99.0004,127.9688,95.0004,131.9688" style="stroke:#181818;stroke-width:1.0;"/><line style="stroke:#181818;stroke-width:1.0;" x1="226.5007" x2="279.0013" y1="115.9688" y2="115.9688"/><line style="stroke:#181818;stroke-width:1.0;" x1="279.0013" x2="279.0013" y1="115.9688" y2="137.9688"/><polygon fill="#181818" points="275.0013,127.9688,279.0013,137.9688,283.0013,127.9688,279.0013,131.9688" style="stroke:#181818;stroke-width:1.0;"/><line style="stroke:#181818;stroke-width:1.0;" x1="187.0008" x2="187.0008" y1="83.9688" y2="103.9688"/><polygon fill="#181818" points="183.0008,93.9688,187.0008,103.9688,191.0008,93.9688,187.0008,97.9688" style="stroke:#181818;stroke-width:1.0;"/><!--SRC=[LOzTJeD058NVMSKymXRWmRMO2974j4PO03oqWe58MfeKwr-RbZGcTXArFsaLD-EzpEp26QQDzMtkEVTySu_ddrxvcebn7pw3kjZ1ru2Fb_nXOccke-EGGbRYVSm-IhXT6_wvtTB5Q6Y4cApgGsTMvtECrf2bq4k0Tkldq98cVqaO3VVczIkc2ocx3j7L920uY4uC8f54VYIP8gXkm2Y3coUhaJo_VIaUzeLdYtHMxXTnMDNJBSyBHYck8WofMZVPTmwZn_zTZZcjCzVH94t7j_6X3CGfL06-pw6R_8LC9OXhVZPRB1Oyk5ELfDdm6jel]--></g></svg>