<svg xmlns="http://www.w3.org/2000/svg" xmlns:xlink="http://www.w3.org/1999/xlink" contentStyleType="text/css" height="842px" preserveAspectRatio="none" style="width:539px;height:842px;background:#FFFFFF;" version="1.1" viewBox="0 0 539 842" width="539px" zoomAndPan="magnify"><defs/><g><ellipse cx="265.0011" cy="20" fill="#222222" rx="10" ry="10" style="stroke:#222222;stroke-width:1.0;"/><rect fill="#F1F1F1" height="33.9688" rx="12.5" ry="12.5" style="stroke:#181818;stroke-width:0.5;" width="116.0007" x="207.0007" y="50"/><text fill="#000000" font-family="sans-serif" font-size="12" lengthAdjust="spacing" textLength="96.0007" x="217.0007" y="71.1387">&#30331;&#24405;&#20026;&#31649;&#29702;&#21592;&#36134;&#21495;</text><rect fill="#F1F1F1" height="33.9688" rx="12.5" ry="12.5" style="stroke:#181818;stroke-width:0.5;" width="140.0009" x="195.0006" y="152.3711"/><text fill="#000000" font-family="sans-serif" font-size="12" lengthAdjust="spacing" textLength="120.0009" x="205.0006" y="173.5098">&#23545;&#27969;&#31243;&#30340;&#22686;&#21024;&#25913;&#26597;&#25805;&#20316;</text><polygon fill="#F1F1F1" points="232.0013,103.9688,298.0008,103.9688,310.0008,115.9688,298.0008,127.9688,232.0013,127.9688,220.0013,115.9688,232.0013,103.9688" style="stroke:#181818;stroke-width:0.5;"/><text fill="#000000" font-family="sans-serif" font-size="11" lengthAdjust="spacing" textLength="6.7192" x="269.0011" y="138.1792">Y</text><text fill="#000000" font-family="sans-serif" font-size="11" lengthAdjust="spacing" textLength="65.9995" x="232.0013" y="119.7769">&#26159;&#21542;&#31649;&#29702;&#27969;&#31243;</text><text fill="#000000" font-family="sans-serif" font-size="11" lengthAdjust="spacing" textLength="8.2285" x="310.0008" y="113.3745">N</text><polygon fill="#F1F1F1" points="265.0011,206.3398,277.0011,218.3398,265.0011,230.3398,253.0011,218.3398,265.0011,206.3398" style="stroke:#181818;stroke-width:0.5;"/><rect fill="#555555" height="6" rx="2.5" ry="2.5" style="stroke:#555555;stroke-width:1.0;" width="492.0021" x="11" y="298.7422"/><rect fill="#F1F1F1" height="33.9688" rx="12.5" ry="12.5" style="stroke:#181818;stroke-width:0.5;" width="104.0006" x="23" y="324.7422"/><text fill="#000000" font-family="sans-serif" font-size="12" lengthAdjust="spacing" textLength="84.0006" x="33" y="345.8809">&#20026;&#29992;&#25143;&#36171;&#20104;&#35282;&#33394;</text><rect fill="#F1F1F1" height="33.9688" rx="12.5" ry="12.5" style="stroke:#181818;stroke-width:0.5;" width="68.0004" x="153.0006" y="324.7422"/><text fill="#000000" font-family="sans-serif" font-size="12" lengthAdjust="spacing" textLength="48.0004" x="163.0006" y="345.8809">&#26032;&#22686;&#29992;&#25143;</text><rect fill="#F1F1F1" height="33.9688" rx="12.5" ry="12.5" style="stroke:#181818;stroke-width:0.5;" width="68.0004" x="249.001" y="324.7422"/><text fill="#000000" font-family="sans-serif" font-size="12" lengthAdjust="spacing" textLength="48.0004" x="259.001" y="345.8809">&#21024;&#38500;&#29992;&#25143;</text><rect fill="#F1F1F1" height="33.9688" rx="12.5" ry="12.5" style="stroke:#181818;stroke-width:0.5;" width="68.0004" x="345.0014" y="324.7422"/><text fill="#000000" font-family="sans-serif" font-size="12" lengthAdjust="spacing" textLength="48.0004" x="355.0014" y="345.8809">&#20923;&#32467;&#29992;&#25143;</text><rect fill="#F1F1F1" height="33.9688" rx="12.5" ry="12.5" style="stroke:#181818;stroke-width:0.5;" width="68.0004" x="423.0017" y="324.7422"/><text fill="#000000" font-family="sans-serif" font-size="12" lengthAdjust="spacing" textLength="48.0004" x="433.0017" y="345.8809">&#26597;&#25214;&#29992;&#25143;</text><polygon fill="#F1F1F1" points="265.0011,368.7109,277.0011,380.7109,265.0011,392.7109,253.0011,380.7109,265.0011,368.7109" style="stroke:#181818;stroke-width:0.5;"/><polygon fill="#F1F1F1" points="232.0013,250.3398,298.0008,250.3398,310.0008,262.3398,298.0008,274.3398,232.0013,274.3398,220.0013,262.3398,232.0013,250.3398" style="stroke:#181818;stroke-width:0.5;"/><text fill="#000000" font-family="sans-serif" font-size="11" lengthAdjust="spacing" textLength="6.7192" x="269.0011" y="284.5503">Y</text><text fill="#000000" font-family="sans-serif" font-size="11" lengthAdjust="spacing" textLength="65.9995" x="232.0013" y="266.1479">&#26159;&#21542;&#31649;&#29702;&#29992;&#25143;</text><text fill="#000000" font-family="sans-serif" font-size="11" lengthAdjust="spacing" textLength="8.2285" x="310.0008" y="259.7456">N</text><polygon fill="#F1F1F1" points="265.0011,412.7109,277.0011,424.7109,265.0011,436.7109,253.0011,424.7109,265.0011,412.7109" style="stroke:#181818;stroke-width:0.5;"/><rect fill="#F1F1F1" height="33.9688" rx="12.5" ry="12.5" style="stroke:#181818;stroke-width:0.5;" width="140.0009" x="195.0006" y="505.1133"/><text fill="#000000" font-family="sans-serif" font-size="12" lengthAdjust="spacing" textLength="120.0009" x="205.0006" y="526.252">&#23545;&#35282;&#33394;&#30340;&#22686;&#21024;&#25913;&#26597;&#25805;&#20316;</text><polygon fill="#F1F1F1" points="232.0013,456.7109,298.0008,456.7109,310.0008,468.7109,298.0008,480.7109,232.0013,480.7109,220.0013,468.7109,232.0013,456.7109" style="stroke:#181818;stroke-width:0.5;"/><text fill="#000000" font-family="sans-serif" font-size="11" lengthAdjust="spacing" textLength="6.7192" x="269.0011" y="490.9214">Y</text><text fill="#000000" font-family="sans-serif" font-size="11" lengthAdjust="spacing" textLength="65.9995" x="232.0013" y="472.519">&#26159;&#21542;&#31649;&#29702;&#35282;&#33394;</text><text fill="#000000" font-family="sans-serif" font-size="11" lengthAdjust="spacing" textLength="8.2285" x="310.0008" y="466.1167">N</text><polygon fill="#F1F1F1" points="265.0011,559.082,277.0011,571.082,265.0011,583.082,253.0011,571.082,265.0011,559.082" style="stroke:#181818;stroke-width:0.5;"/><rect fill="#555555" height="6" rx="2.5" ry="2.5" style="stroke:#555555;stroke-width:1.0;" width="262.0013" x="135.0004" y="651.4844"/><rect fill="#F1F1F1" height="33.9688" rx="12.5" ry="12.5" style="stroke:#181818;stroke-width:0.5;" width="104.0006" x="147.0004" y="677.4844"/><text fill="#000000" font-family="sans-serif" font-size="12" lengthAdjust="spacing" textLength="84.0006" x="157.0004" y="698.623">&#37197;&#32622;&#30340;&#22686;&#21024;&#25913;&#26597;</text><rect fill="#F1F1F1" height="33.9688" rx="12.5" ry="12.5" style="stroke:#181818;stroke-width:0.5;" width="104.0006" x="279.0011" y="677.4844"/><text fill="#000000" font-family="sans-serif" font-size="12" lengthAdjust="spacing" textLength="84.0006" x="289.0011" y="698.623">&#20026;&#34920;&#21333;&#20998;&#37197;&#35282;&#33394;</text><polygon fill="#F1F1F1" points="265.0011,721.4531,277.0011,733.4531,265.0011,745.4531,253.0011,733.4531,265.0011,721.4531" style="stroke:#181818;stroke-width:0.5;"/><polygon fill="#F1F1F1" points="232.0013,603.082,298.0008,603.082,310.0008,615.082,298.0008,627.082,232.0013,627.082,220.0013,615.082,232.0013,603.082" style="stroke:#181818;stroke-width:0.5;"/><text fill="#000000" font-family="sans-serif" font-size="11" lengthAdjust="spacing" textLength="6.7192" x="269.0011" y="637.2925">Y</text><text fill="#000000" font-family="sans-serif" font-size="11" lengthAdjust="spacing" textLength="65.9995" x="232.0013" y="618.8901">&#26159;&#21542;&#31649;&#29702;&#37197;&#32622;</text><text fill="#000000" font-family="sans-serif" font-size="11" lengthAdjust="spacing" textLength="8.2285" x="310.0008" y="612.4878">N</text><polygon fill="#F1F1F1" points="265.0011,765.4531,277.0011,777.4531,265.0011,789.4531,253.0011,777.4531,265.0011,765.4531" style="stroke:#181818;stroke-width:0.5;"/><ellipse cx="265.0011" cy="820.4531" fill="none" rx="11" ry="11" style="stroke:#222222;stroke-width:1.0;"/><ellipse cx="265.0011" cy="820.4531" fill="#222222" rx="6" ry="6" style="stroke:#222222;stroke-width:1.0;"/><line style="stroke:#181818;stroke-width:1.0;" x1="265.0011" x2="265.0011" y1="30" y2="50"/><polygon fill="#181818" points="261.0011,40,265.0011,50,269.0011,40,265.0011,44" style="stroke:#181818;stroke-width:1.0;"/><line style="stroke:#181818;stroke-width:1.0;" x1="265.0011" x2="265.0011" y1="127.9688" y2="152.3711"/><polygon fill="#181818" points="261.0011,142.3711,265.0011,152.3711,269.0011,142.3711,265.0011,146.3711" style="stroke:#181818;stroke-width:1.0;"/><line style="stroke:#181818;stroke-width:1.0;" x1="310.0008" x2="345.0015" y1="115.9688" y2="115.9688"/><polygon fill="#181818" points="341.0015,159.3555,345.0015,169.3555,349.0015,159.3555,345.0015,163.3555" style="stroke:#181818;stroke-width:1.0;"/><line style="stroke:#181818;stroke-width:1.0;" x1="345.0015" x2="345.0015" y1="115.9688" y2="218.3398"/><line style="stroke:#181818;stroke-width:1.0;" x1="345.0015" x2="277.0011" y1="218.3398" y2="218.3398"/><polygon fill="#181818" points="287.0011,214.3398,277.0011,218.3398,287.0011,222.3398,283.0011,218.3398" style="stroke:#181818;stroke-width:1.0;"/><line style="stroke:#181818;stroke-width:1.0;" x1="265.0011" x2="265.0011" y1="186.3398" y2="206.3398"/><polygon fill="#181818" points="261.0011,196.3398,265.0011,206.3398,269.0011,196.3398,265.0011,200.3398" style="stroke:#181818;stroke-width:1.0;"/><line style="stroke:#181818;stroke-width:1.0;" x1="265.0011" x2="265.0011" y1="83.9688" y2="103.9688"/><polygon fill="#181818" points="261.0011,93.9688,265.0011,103.9688,269.0011,93.9688,265.0011,97.9688" style="stroke:#181818;stroke-width:1.0;"/><line style="stroke:#181818;stroke-width:1.0;" x1="75.0003" x2="75.0003" y1="304.7422" y2="324.7422"/><polygon fill="#181818" points="71.0003,314.7422,75.0003,324.7422,79.0003,314.7422,75.0003,318.7422" style="stroke:#181818;stroke-width:1.0;"/><line style="stroke:#181818;stroke-width:1.0;" x1="187.0008" x2="187.0008" y1="304.7422" y2="324.7422"/><polygon fill="#181818" points="183.0008,314.7422,187.0008,324.7422,191.0008,314.7422,187.0008,318.7422" style="stroke:#181818;stroke-width:1.0;"/><line style="stroke:#181818;stroke-width:1.0;" x1="283.0012" x2="283.0012" y1="304.7422" y2="324.7422"/><polygon fill="#181818" points="279.0012,314.7422,283.0012,324.7422,287.0012,314.7422,283.0012,318.7422" style="stroke:#181818;stroke-width:1.0;"/><line style="stroke:#181818;stroke-width:1.0;" x1="379.0016" x2="379.0016" y1="304.7422" y2="324.7422"/><polygon fill="#181818" points="375.0016,314.7422,379.0016,324.7422,383.0016,314.7422,379.0016,318.7422" style="stroke:#181818;stroke-width:1.0;"/><line style="stroke:#181818;stroke-width:1.0;" x1="457.0019" x2="457.0019" y1="304.7422" y2="324.7422"/><polygon fill="#181818" points="453.0019,314.7422,457.0019,324.7422,461.0019,314.7422,457.0019,318.7422" style="stroke:#181818;stroke-width:1.0;"/><line style="stroke:#181818;stroke-width:1.0;" x1="75.0003" x2="75.0003" y1="358.7109" y2="380.7109"/><line style="stroke:#181818;stroke-width:1.0;" x1="75.0003" x2="253.0011" y1="380.7109" y2="380.7109"/><polygon fill="#181818" points="243.0011,376.7109,253.0011,380.7109,243.0011,384.7109,247.0011,380.7109" style="stroke:#181818;stroke-width:1.0;"/><line style="stroke:#181818;stroke-width:1.0;" x1="187.0008" x2="187.0008" y1="358.7109" y2="380.7109"/><line style="stroke:#181818;stroke-width:1.0;" x1="187.0008" x2="253.0011" y1="380.7109" y2="380.7109"/><polygon fill="#181818" points="243.0011,376.7109,253.0011,380.7109,243.0011,384.7109,247.0011,380.7109" style="stroke:#181818;stroke-width:1.0;"/><line style="stroke:#181818;stroke-width:1.0;" x1="283.0012" x2="283.0012" y1="358.7109" y2="380.7109"/><line style="stroke:#181818;stroke-width:1.0;" x1="283.0012" x2="277.0011" y1="380.7109" y2="380.7109"/><polygon fill="#181818" points="287.0011,376.7109,277.0011,380.7109,287.0011,384.7109,283.0011,380.7109" style="stroke:#181818;stroke-width:1.0;"/><line style="stroke:#181818;stroke-width:1.0;" x1="379.0016" x2="379.0016" y1="358.7109" y2="380.7109"/><line style="stroke:#181818;stroke-width:1.0;" x1="379.0016" x2="277.0011" y1="380.7109" y2="380.7109"/><polygon fill="#181818" points="287.0011,376.7109,277.0011,380.7109,287.0011,384.7109,283.0011,380.7109" style="stroke:#181818;stroke-width:1.0;"/><line style="stroke:#181818;stroke-width:1.0;" x1="457.0019" x2="457.0019" y1="358.7109" y2="380.7109"/><line style="stroke:#181818;stroke-width:1.0;" x1="457.0019" x2="277.0011" y1="380.7109" y2="380.7109"/><polygon fill="#181818" points="287.0011,376.7109,277.0011,380.7109,287.0011,384.7109,283.0011,380.7109" style="stroke:#181818;stroke-width:1.0;"/><line style="stroke:#181818;stroke-width:1.0;" x1="265.0011" x2="265.0011" y1="274.3398" y2="298.7422"/><polygon fill="#181818" points="261.0011,288.7422,265.0011,298.7422,269.0011,288.7422,265.0011,292.7422" style="stroke:#181818;stroke-width:1.0;"/><line style="stroke:#181818;stroke-width:1.0;" x1="310.0008" x2="513.0021" y1="262.3398" y2="262.3398"/><polygon fill="#181818" points="509.0021,340.7266,513.0021,350.7266,517.0021,340.7266,513.0021,344.7266" style="stroke:#181818;stroke-width:1.0;"/><line style="stroke:#181818;stroke-width:1.0;" x1="513.0021" x2="513.0021" y1="262.3398" y2="424.7109"/><line style="stroke:#181818;stroke-width:1.0;" x1="513.0021" x2="277.0011" y1="424.7109" y2="424.7109"/><polygon fill="#181818" points="287.0011,420.7109,277.0011,424.7109,287.0011,428.7109,283.0011,424.7109" style="stroke:#181818;stroke-width:1.0;"/><line style="stroke:#181818;stroke-width:1.0;" x1="265.0011" x2="265.0011" y1="392.7109" y2="412.7109"/><polygon fill="#181818" points="261.0011,402.7109,265.0011,412.7109,269.0011,402.7109,265.0011,406.7109" style="stroke:#181818;stroke-width:1.0;"/><line style="stroke:#181818;stroke-width:1.0;" x1="265.0011" x2="265.0011" y1="230.3398" y2="250.3398"/><polygon fill="#181818" points="261.0011,240.3398,265.0011,250.3398,269.0011,240.3398,265.0011,244.3398" style="stroke:#181818;stroke-width:1.0;"/><line style="stroke:#181818;stroke-width:1.0;" x1="265.0011" x2="265.0011" y1="480.7109" y2="505.1133"/><polygon fill="#181818" points="261.0011,495.1133,265.0011,505.1133,269.0011,495.1133,265.0011,499.1133" style="stroke:#181818;stroke-width:1.0;"/><line style="stroke:#181818;stroke-width:1.0;" x1="310.0008" x2="345.0015" y1="468.7109" y2="468.7109"/><polygon fill="#181818" points="341.0015,512.0977,345.0015,522.0977,349.0015,512.0977,345.0015,516.0977" style="stroke:#181818;stroke-width:1.0;"/><line style="stroke:#181818;stroke-width:1.0;" x1="345.0015" x2="345.0015" y1="468.7109" y2="571.082"/><line style="stroke:#181818;stroke-width:1.0;" x1="345.0015" x2="277.0011" y1="571.082" y2="571.082"/><polygon fill="#181818" points="287.0011,567.082,277.0011,571.082,287.0011,575.082,283.0011,571.082" style="stroke:#181818;stroke-width:1.0;"/><line style="stroke:#181818;stroke-width:1.0;" x1="265.0011" x2="265.0011" y1="539.082" y2="559.082"/><polygon fill="#181818" points="261.0011,549.082,265.0011,559.082,269.0011,549.082,265.0011,553.082" style="stroke:#181818;stroke-width:1.0;"/><line style="stroke:#181818;stroke-width:1.0;" x1="265.0011" x2="265.0011" y1="436.7109" y2="456.7109"/><polygon fill="#181818" points="261.0011,446.7109,265.0011,456.7109,269.0011,446.7109,265.0011,450.7109" style="stroke:#181818;stroke-width:1.0;"/><line style="stroke:#181818;stroke-width:1.0;" x1="199.0007" x2="199.0007" y1="657.4844" y2="677.4844"/><polygon fill="#181818" points="195.0007,667.4844,199.0007,677.4844,203.0007,667.4844,199.0007,671.4844" style="stroke:#181818;stroke-width:1.0;"/><line style="stroke:#181818;stroke-width:1.0;" x1="331.0014" x2="331.0014" y1="657.4844" y2="677.4844"/><polygon fill="#181818" points="327.0014,667.4844,331.0014,677.4844,335.0014,667.4844,331.0014,671.4844" style="stroke:#181818;stroke-width:1.0;"/><line style="stroke:#181818;stroke-width:1.0;" x1="199.0007" x2="199.0007" y1="711.4531" y2="733.4531"/><line style="stroke:#181818;stroke-width:1.0;" x1="199.0007" x2="253.0011" y1="733.4531" y2="733.4531"/><polygon fill="#181818" points="243.0011,729.4531,253.0011,733.4531,243.0011,737.4531,247.0011,733.4531" style="stroke:#181818;stroke-width:1.0;"/><line style="stroke:#181818;stroke-width:1.0;" x1="331.0014" x2="331.0014" y1="711.4531" y2="733.4531"/><line style="stroke:#181818;stroke-width:1.0;" x1="331.0014" x2="277.0011" y1="733.4531" y2="733.4531"/><polygon fill="#181818" points="287.0011,729.4531,277.0011,733.4531,287.0011,737.4531,283.0011,733.4531" style="stroke:#181818;stroke-width:1.0;"/><line style="stroke:#181818;stroke-width:1.0;" x1="265.0011" x2="265.0011" y1="627.082" y2="651.4844"/><polygon fill="#181818" points="261.0011,641.4844,265.0011,651.4844,269.0011,641.4844,265.0011,645.4844" style="stroke:#181818;stroke-width:1.0;"/><line style="stroke:#181818;stroke-width:1.0;" x1="310.0008" x2="407.0017" y1="615.082" y2="615.082"/><polygon fill="#181818" points="403.0017,693.4688,407.0017,703.4688,411.0017,693.4688,407.0017,697.4688" style="stroke:#181818;stroke-width:1.0;"/><line style="stroke:#181818;stroke-width:1.0;" x1="407.0017" x2="407.0017" y1="615.082" y2="777.4531"/><line style="stroke:#181818;stroke-width:1.0;" x1="407.0017" x2="277.0011" y1="777.4531" y2="777.4531"/><polygon fill="#181818" points="287.0011,773.4531,277.0011,777.4531,287.0011,781.4531,283.0011,777.4531" style="stroke:#181818;stroke-width:1.0;"/><line style="stroke:#181818;stroke-width:1.0;" x1="265.0011" x2="265.0011" y1="745.4531" y2="765.4531"/><polygon fill="#181818" points="261.0011,755.4531,265.0011,765.4531,269.0011,755.4531,265.0011,759.4531" style="stroke:#181818;stroke-width:1.0;"/><line style="stroke:#181818;stroke-width:1.0;" x1="265.0011" x2="265.0011" y1="583.082" y2="603.082"/><polygon fill="#181818" points="261.0011,593.082,265.0011,603.082,269.0011,593.082,265.0011,597.082" style="stroke:#181818;stroke-width:1.0;"/><line style="stroke:#181818;stroke-width:1.0;" x1="265.0011" x2="265.0011" y1="789.4531" y2="809.4531"/><polygon fill="#181818" points="261.0011,799.4531,265.0011,809.4531,269.0011,799.4531,265.0011,803.4531" style="stroke:#181818;stroke-width:1.0;"/><!--SRC=[Aov9B2hXide-S_VJlLEVxDZrVDt2vnFQdawSyMBBigVzswsvCjCqdirO_tJ2CeZCiwsDprTqQvPafEPfH6foAIXOFLs_4oBuV5RBqqNpddOiU3PbvxFvIvzDxdsoTuurLsfESQg6doPNQbvAPXgwSS-dh7ZMiHt9kBJyecmW1JGNv1Ymx8kjtKzsTRnOFkb5voPhg1A5nFJ4p3o8mcVJDW3jXQZ59WzqqSkPI_38j-r-ldioRdcGNpht8UI17b78JIrAJyNlDOY3qK8A8aXEIBrixNs-TntMa898eHcApIV087snSCNJtgbFEq3c8O8KbvUAI_8B0000]--></g></svg>