<svg xmlns="http://www.w3.org/2000/svg" xmlns:xlink="http://www.w3.org/1999/xlink" contentStyleType="text/css" height="1747px" preserveAspectRatio="none" style="width:850px;height:1747px;background:#FFFFFF;" version="1.1" viewBox="0 0 850 1747" width="850px" zoomAndPan="magnify"><defs/><g><rect fill="none" height="1318.7344" style="stroke:#000000;stroke-width:1.5;" width="833.9294" x="10" y="331.3594"/><rect fill="none" height="265" style="stroke:#000000;stroke-width:1.5;" width="813.9294" x="20" y="501.1563"/><rect fill="none" height="206.7344" style="stroke:#000000;stroke-width:1.5;" width="642.7012" x="20" y="1436.3594"/><line style="stroke:#181818;stroke-width:0.5;stroke-dasharray:5.0,5.0;" x1="55" x2="55" y1="81.2969" y2="1667.0938"/><line style="stroke:#181818;stroke-width:0.5;stroke-dasharray:5.0,5.0;" x1="221.6618" x2="221.6618" y1="81.2969" y2="1667.0938"/><line style="stroke:#181818;stroke-width:0.5;stroke-dasharray:5.0,5.0;" x1="414.4481" x2="414.4481" y1="81.2969" y2="1667.0938"/><line style="stroke:#181818;stroke-width:0.5;stroke-dasharray:5.0,5.0;" x1="608.1641" x2="608.1641" y1="81.2969" y2="1667.0938"/><line style="stroke:#181818;stroke-width:0.5;stroke-dasharray:5.0,5.0;" x1="774.9363" x2="774.9363" y1="81.2969" y2="1667.0938"/><text fill="#000000" font-family="sans-serif" font-size="14" lengthAdjust="spacing" textLength="44.8643" x="30" y="77.9951">Admin</text><ellipse cx="55.4321" cy="13.5" fill="#E2E2F0" rx="8" ry="8" style="stroke:#181818;stroke-width:0.5;"/><path d="M55.4321,21.5 L55.4321,48.5 M42.4321,29.5 L68.4321,29.5 M55.4321,48.5 L42.4321,63.5 M55.4321,48.5 L68.4321,63.5 " fill="none" style="stroke:#181818;stroke-width:0.5;"/><text fill="#000000" font-family="sans-serif" font-size="14" lengthAdjust="spacing" textLength="44.8643" x="30" y="1679.0889">Admin</text><ellipse cx="55.4321" cy="1690.8906" fill="#E2E2F0" rx="8" ry="8" style="stroke:#181818;stroke-width:0.5;"/><path d="M55.4321,1698.8906 L55.4321,1725.8906 M42.4321,1706.8906 L68.4321,1706.8906 M55.4321,1725.8906 L42.4321,1740.8906 M55.4321,1725.8906 L68.4321,1740.8906 " fill="none" style="stroke:#181818;stroke-width:0.5;"/><text fill="#000000" font-family="sans-serif" font-size="14" lengthAdjust="spacing" textLength="157.541" x="140.6618" y="77.9951">RoleManagementPage</text><path d="M201.9323,37 L201.9323,61 M201.9323,49 L218.9323,49 " fill="none" style="stroke:#181818;stroke-width:0.5;"/><ellipse cx="230.9323" cy="49" fill="#E2E2F0" rx="12" ry="12" style="stroke:#181818;stroke-width:0.5;"/><text fill="#000000" font-family="sans-serif" font-size="14" lengthAdjust="spacing" textLength="157.541" x="140.6618" y="1679.0889">RoleManagementPage</text><path d="M201.9323,1686.3906 L201.9323,1710.3906 M201.9323,1698.3906 L218.9323,1698.3906 " fill="none" style="stroke:#181818;stroke-width:0.5;"/><ellipse cx="230.9323" cy="1698.3906" fill="#E2E2F0" rx="12" ry="12" style="stroke:#181818;stroke-width:0.5;"/><text fill="#000000" font-family="sans-serif" font-size="14" lengthAdjust="spacing" textLength="99.9688" x="362.4481" y="77.9951">RoleController</text><ellipse cx="415.4325" cy="49" fill="#E2E2F0" rx="12" ry="12" style="stroke:#181818;stroke-width:0.5;"/><polygon fill="#181818" points="411.4325,37,417.4325,32,415.4325,37,417.4325,42,411.4325,37" style="stroke:#181818;stroke-width:1.0;"/><text fill="#000000" font-family="sans-serif" font-size="14" lengthAdjust="spacing" textLength="99.9688" x="362.4481" y="1679.0889">RoleController</text><ellipse cx="415.4325" cy="1698.3906" fill="#E2E2F0" rx="12" ry="12" style="stroke:#181818;stroke-width:0.5;"/><polygon fill="#181818" points="411.4325,1686.3906,417.4325,1681.3906,415.4325,1686.3906,417.4325,1691.3906,411.4325,1686.3906" style="stroke:#181818;stroke-width:1.0;"/><text fill="#000000" font-family="sans-serif" font-size="14" lengthAdjust="spacing" textLength="82.5371" x="564.1641" y="77.9951">RoleService</text><ellipse cx="608.4327" cy="49" fill="#E2E2F0" rx="12" ry="12" style="stroke:#181818;stroke-width:0.5;"/><polygon fill="#181818" points="604.4327,37,610.4327,32,608.4327,37,610.4327,42,604.4327,37" style="stroke:#181818;stroke-width:1.0;"/><text fill="#000000" font-family="sans-serif" font-size="14" lengthAdjust="spacing" textLength="82.5371" x="564.1641" y="1679.0889">RoleService</text><ellipse cx="608.4327" cy="1698.3906" fill="#E2E2F0" rx="12" ry="12" style="stroke:#181818;stroke-width:0.5;"/><polygon fill="#181818" points="604.4327,1686.3906,610.4327,1681.3906,608.4327,1686.3906,610.4327,1691.3906,604.4327,1686.3906" style="stroke:#181818;stroke-width:1.0;"/><text fill="#000000" font-family="sans-serif" font-size="14" lengthAdjust="spacing" textLength="90.9932" x="726.9363" y="77.9951">manage_role</text><path d="M757.4329,29 C757.4329,19 775.4329,19 775.4329,19 C775.4329,19 793.4329,19 793.4329,29 L793.4329,55 C793.4329,65 775.4329,65 775.4329,65 C775.4329,65 757.4329,65 757.4329,55 L757.4329,29 " fill="#E2E2F0" style="stroke:#181818;stroke-width:1.5;"/><path d="M757.4329,29 C757.4329,39 775.4329,39 775.4329,39 C775.4329,39 793.4329,39 793.4329,29 " fill="none" style="stroke:#181818;stroke-width:1.5;"/><text fill="#000000" font-family="sans-serif" font-size="14" lengthAdjust="spacing" textLength="90.9932" x="726.9363" y="1679.0889">manage_role</text><path d="M757.4329,1692.3906 C757.4329,1682.3906 775.4329,1682.3906 775.4329,1682.3906 C775.4329,1682.3906 793.4329,1682.3906 793.4329,1692.3906 L793.4329,1718.3906 C793.4329,1728.3906 775.4329,1728.3906 775.4329,1728.3906 C775.4329,1728.3906 757.4329,1728.3906 757.4329,1718.3906 L757.4329,1692.3906 " fill="#E2E2F0" style="stroke:#181818;stroke-width:1.5;"/><path d="M757.4329,1692.3906 C757.4329,1702.3906 775.4329,1702.3906 775.4329,1702.3906 C775.4329,1702.3906 793.4329,1702.3906 793.4329,1692.3906 " fill="none" style="stroke:#181818;stroke-width:1.5;"/><polygon fill="#181818" points="210.4323,108.4297,220.4323,112.4297,210.4323,116.4297,214.4323,112.4297" style="stroke:#181818;stroke-width:1.0;"/><line style="stroke:#181818;stroke-width:1.0;" x1="55.4321" x2="216.4323" y1="112.4297" y2="112.4297"/><text fill="#000000" font-family="sans-serif" font-size="13" lengthAdjust="spacing" textLength="104.0001" x="62.4321" y="107.3638">&#36827;&#20837;&#35282;&#33394;&#31649;&#29702;&#39029;&#38754;</text><polygon fill="#181818" points="403.4325,137.5625,413.4325,141.5625,403.4325,145.5625,407.4325,141.5625" style="stroke:#181818;stroke-width:1.0;"/><line style="stroke:#181818;stroke-width:1.0;" x1="222.4323" x2="409.4325" y1="141.5625" y2="141.5625"/><text fill="#000000" font-family="sans-serif" font-size="13" lengthAdjust="spacing" textLength="104.0001" x="229.4323" y="136.4966">&#35831;&#27714;&#35282;&#33394;&#31649;&#29702;&#25968;&#25454;</text><polygon fill="#181818" points="596.4327,166.6953,606.4327,170.6953,596.4327,174.6953,600.4327,170.6953" style="stroke:#181818;stroke-width:1.0;"/><line style="stroke:#181818;stroke-width:1.0;" x1="415.4325" x2="602.4327" y1="170.6953" y2="170.6953"/><text fill="#000000" font-family="sans-serif" font-size="13" lengthAdjust="spacing" textLength="104.0001" x="422.4325" y="165.6294">&#33719;&#21462;&#35282;&#33394;&#31649;&#29702;&#25968;&#25454;</text><polygon fill="#181818" points="763.4329,195.8281,773.4329,199.8281,763.4329,203.8281,767.4329,199.8281" style="stroke:#181818;stroke-width:1.0;"/><line style="stroke:#181818;stroke-width:1.0;" x1="608.4327" x2="769.4329" y1="199.8281" y2="199.8281"/><text fill="#000000" font-family="sans-serif" font-size="13" lengthAdjust="spacing" textLength="104.0001" x="615.4327" y="194.7622">&#26597;&#35810;&#35282;&#33394;&#31649;&#29702;&#25968;&#25454;</text><polygon fill="#181818" points="619.4327,224.9609,609.4327,228.9609,619.4327,232.9609,615.4327,228.9609" style="stroke:#181818;stroke-width:1.0;"/><line style="stroke:#181818;stroke-width:1.0;stroke-dasharray:2.0,2.0;" x1="613.4327" x2="774.4329" y1="228.9609" y2="228.9609"/><text fill="#000000" font-family="sans-serif" font-size="13" lengthAdjust="spacing" textLength="104.0001" x="625.4327" y="223.895">&#36820;&#22238;&#35282;&#33394;&#31649;&#29702;&#25968;&#25454;</text><polygon fill="#181818" points="426.4325,254.0938,416.4325,258.0938,426.4325,262.0938,422.4325,258.0938" style="stroke:#181818;stroke-width:1.0;"/><line style="stroke:#181818;stroke-width:1.0;stroke-dasharray:2.0,2.0;" x1="420.4325" x2="607.4327" y1="258.0938" y2="258.0938"/><text fill="#000000" font-family="sans-serif" font-size="13" lengthAdjust="spacing" textLength="104.0001" x="432.4325" y="253.0278">&#36820;&#22238;&#35282;&#33394;&#31649;&#29702;&#25968;&#25454;</text><polygon fill="#181818" points="233.4323,283.2266,223.4323,287.2266,233.4323,291.2266,229.4323,287.2266" style="stroke:#181818;stroke-width:1.0;"/><line style="stroke:#181818;stroke-width:1.0;stroke-dasharray:2.0,2.0;" x1="227.4323" x2="414.4325" y1="287.2266" y2="287.2266"/><text fill="#000000" font-family="sans-serif" font-size="13" lengthAdjust="spacing" textLength="104.0001" x="239.4323" y="282.1606">&#26174;&#31034;&#35282;&#33394;&#31649;&#29702;&#25968;&#25454;</text><polygon fill="#181818" points="66.4321,312.3594,56.4321,316.3594,66.4321,320.3594,62.4321,316.3594" style="stroke:#181818;stroke-width:1.0;"/><line style="stroke:#181818;stroke-width:1.0;stroke-dasharray:2.0,2.0;" x1="60.4321" x2="221.4323" y1="316.3594" y2="316.3594"/><text fill="#000000" font-family="sans-serif" font-size="13" lengthAdjust="spacing" textLength="104.0001" x="72.4321" y="311.2935">&#23637;&#31034;&#35282;&#33394;&#31649;&#29702;&#39029;&#38754;</text><path d="M10,331.3594 L74.4429,331.3594 L74.4429,338.4922 L64.4429,348.4922 L10,348.4922 L10,331.3594 " fill="#EEEEEE" style="stroke:#000000;stroke-width:1.5;"/><rect fill="none" height="1318.7344" style="stroke:#000000;stroke-width:1.5;" width="833.9294" x="10" y="331.3594"/><text fill="#000000" font-family="sans-serif" font-size="13" font-weight="bold" lengthAdjust="spacing" textLength="19.4429" x="25" y="344.4263">alt</text><text fill="#000000" font-family="sans-serif" font-size="11" font-weight="bold" lengthAdjust="spacing" textLength="131.0538" x="89.4429" y="343.5698">[&#31649;&#29702;&#21592;&#25191;&#34892;&#22686;&#21152;&#35282;&#33394;&#25805;&#20316;]</text><polygon fill="#181818" points="210.4323,365.625,220.4323,369.625,210.4323,373.625,214.4323,369.625" style="stroke:#181818;stroke-width:1.0;"/><line style="stroke:#181818;stroke-width:1.0;" x1="55.4321" x2="216.4323" y1="369.625" y2="369.625"/><text fill="#000000" font-family="sans-serif" font-size="13" lengthAdjust="spacing" textLength="104.0001" x="62.4321" y="364.5591">&#36755;&#20837;&#26032;&#22686;&#35282;&#33394;&#20449;&#24687;</text><polygon fill="#181818" points="403.4325,394.7578,413.4325,398.7578,403.4325,402.7578,407.4325,398.7578" style="stroke:#181818;stroke-width:1.0;"/><line style="stroke:#181818;stroke-width:1.0;" x1="222.4323" x2="409.4325" y1="398.7578" y2="398.7578"/><text fill="#000000" font-family="sans-serif" font-size="13" lengthAdjust="spacing" textLength="104.0001" x="229.4323" y="393.6919">&#25552;&#20132;&#26032;&#22686;&#35282;&#33394;&#35831;&#27714;</text><polygon fill="#181818" points="596.4327,423.8906,606.4327,427.8906,596.4327,431.8906,600.4327,427.8906" style="stroke:#181818;stroke-width:1.0;"/><line style="stroke:#181818;stroke-width:1.0;" x1="415.4325" x2="602.4327" y1="427.8906" y2="427.8906"/><text fill="#000000" font-family="sans-serif" font-size="13" lengthAdjust="spacing" textLength="104.0001" x="422.4325" y="422.8247">&#22788;&#29702;&#26032;&#22686;&#35282;&#33394;&#35831;&#27714;</text><polygon fill="#181818" points="763.4329,453.0234,773.4329,457.0234,763.4329,461.0234,767.4329,457.0234" style="stroke:#181818;stroke-width:1.0;"/><line style="stroke:#181818;stroke-width:1.0;" x1="608.4327" x2="769.4329" y1="457.0234" y2="457.0234"/><text fill="#000000" font-family="sans-serif" font-size="13" lengthAdjust="spacing" textLength="143.0002" x="615.4327" y="451.9575">&#26597;&#35810;&#35282;&#33394;&#21517;&#31216;&#26159;&#21542;&#24050;&#23384;&#22312;</text><polygon fill="#181818" points="619.4327,482.1563,609.4327,486.1563,619.4327,490.1563,615.4327,486.1563" style="stroke:#181818;stroke-width:1.0;"/><line style="stroke:#181818;stroke-width:1.0;stroke-dasharray:2.0,2.0;" x1="613.4327" x2="774.4329" y1="486.1563" y2="486.1563"/><text fill="#000000" font-family="sans-serif" font-size="13" lengthAdjust="spacing" textLength="78.0001" x="625.4327" y="481.0903">&#36820;&#22238;&#26597;&#35810;&#32467;&#26524;</text><path d="M20,501.1563 L84.4429,501.1563 L84.4429,508.2891 L74.4429,518.2891 L20,518.2891 L20,501.1563 " fill="#EEEEEE" style="stroke:#000000;stroke-width:1.5;"/><rect fill="none" height="265" style="stroke:#000000;stroke-width:1.5;" width="813.9294" x="20" y="501.1563"/><text fill="#000000" font-family="sans-serif" font-size="13" font-weight="bold" lengthAdjust="spacing" textLength="19.4429" x="35" y="514.2231">alt</text><text fill="#000000" font-family="sans-serif" font-size="11" font-weight="bold" lengthAdjust="spacing" textLength="87.0542" x="99.4429" y="513.3667">[&#35282;&#33394;&#21517;&#31216;&#24050;&#23384;&#22312;]</text><polygon fill="#181818" points="426.4325,535.4219,416.4325,539.4219,426.4325,543.4219,422.4325,539.4219" style="stroke:#181818;stroke-width:1.0;"/><line style="stroke:#181818;stroke-width:1.0;stroke-dasharray:2.0,2.0;" x1="420.4325" x2="607.4327" y1="539.4219" y2="539.4219"/><text fill="#000000" font-family="sans-serif" font-size="13" lengthAdjust="spacing" textLength="169.0002" x="432.4325" y="534.356">&#36820;&#22238;&#35282;&#33394;&#21517;&#31216;&#24050;&#23384;&#22312;&#38169;&#35823;&#20449;&#24687;</text><polygon fill="#181818" points="233.4323,564.5547,223.4323,568.5547,233.4323,572.5547,229.4323,568.5547" style="stroke:#181818;stroke-width:1.0;"/><line style="stroke:#181818;stroke-width:1.0;stroke-dasharray:2.0,2.0;" x1="227.4323" x2="414.4325" y1="568.5547" y2="568.5547"/><text fill="#000000" font-family="sans-serif" font-size="13" lengthAdjust="spacing" textLength="169.0002" x="239.4323" y="563.4888">&#26174;&#31034;&#35282;&#33394;&#21517;&#31216;&#24050;&#23384;&#22312;&#38169;&#35823;&#20449;&#24687;</text><polygon fill="#181818" points="66.4321,593.6875,56.4321,597.6875,66.4321,601.6875,62.4321,597.6875" style="stroke:#181818;stroke-width:1.0;"/><line style="stroke:#181818;stroke-width:1.0;stroke-dasharray:2.0,2.0;" x1="60.4321" x2="221.4323" y1="597.6875" y2="597.6875"/><text fill="#000000" font-family="sans-serif" font-size="13" lengthAdjust="spacing" textLength="117.0001" x="72.4321" y="592.6216">&#25552;&#31034;&#35282;&#33394;&#21517;&#31216;&#24050;&#23384;&#22312;</text><line style="stroke:#000000;stroke-width:1.0;stroke-dasharray:2.0,2.0;" x1="20" x2="833.9294" y1="606.6875" y2="606.6875"/><text fill="#000000" font-family="sans-serif" font-size="11" font-weight="bold" lengthAdjust="spacing" textLength="87.0542" x="25" y="616.8979">[&#35282;&#33394;&#21517;&#31216;&#19981;&#23384;&#22312;]</text><polygon fill="#181818" points="763.4329,637.625,773.4329,641.625,763.4329,645.625,767.4329,641.625" style="stroke:#181818;stroke-width:1.0;"/><line style="stroke:#181818;stroke-width:1.0;" x1="608.4327" x2="769.4329" y1="641.625" y2="641.625"/><text fill="#000000" font-family="sans-serif" font-size="13" lengthAdjust="spacing" textLength="52.0001" x="615.4327" y="636.5591">&#26032;&#22686;&#35282;&#33394;</text><polygon fill="#181818" points="619.4327,666.7578,609.4327,670.7578,619.4327,674.7578,615.4327,670.7578" style="stroke:#181818;stroke-width:1.0;"/><line style="stroke:#181818;stroke-width:1.0;stroke-dasharray:2.0,2.0;" x1="613.4327" x2="774.4329" y1="670.7578" y2="670.7578"/><text fill="#000000" font-family="sans-serif" font-size="13" lengthAdjust="spacing" textLength="78.0001" x="625.4327" y="665.6919">&#36820;&#22238;&#26032;&#22686;&#32467;&#26524;</text><polygon fill="#181818" points="426.4325,695.8906,416.4325,699.8906,426.4325,703.8906,422.4325,699.8906" style="stroke:#181818;stroke-width:1.0;"/><line style="stroke:#181818;stroke-width:1.0;stroke-dasharray:2.0,2.0;" x1="420.4325" x2="607.4327" y1="699.8906" y2="699.8906"/><text fill="#000000" font-family="sans-serif" font-size="13" lengthAdjust="spacing" textLength="78.0001" x="432.4325" y="694.8247">&#36820;&#22238;&#26032;&#22686;&#32467;&#26524;</text><polygon fill="#181818" points="233.4323,725.0234,223.4323,729.0234,233.4323,733.0234,229.4323,729.0234" style="stroke:#181818;stroke-width:1.0;"/><line style="stroke:#181818;stroke-width:1.0;stroke-dasharray:2.0,2.0;" x1="227.4323" x2="414.4325" y1="729.0234" y2="729.0234"/><text fill="#000000" font-family="sans-serif" font-size="13" lengthAdjust="spacing" textLength="78.0001" x="239.4323" y="723.9575">&#26174;&#31034;&#26032;&#22686;&#32467;&#26524;</text><polygon fill="#181818" points="66.4321,754.1563,56.4321,758.1563,66.4321,762.1563,62.4321,758.1563" style="stroke:#181818;stroke-width:1.0;"/><line style="stroke:#181818;stroke-width:1.0;stroke-dasharray:2.0,2.0;" x1="60.4321" x2="221.4323" y1="758.1563" y2="758.1563"/><text fill="#000000" font-family="sans-serif" font-size="13" lengthAdjust="spacing" textLength="78.0001" x="72.4321" y="753.0903">&#25552;&#31034;&#26032;&#22686;&#25104;&#21151;</text><line style="stroke:#000000;stroke-width:1.0;stroke-dasharray:2.0,2.0;" x1="10" x2="843.9294" y1="774.1563" y2="774.1563"/><text fill="#000000" font-family="sans-serif" font-size="11" font-weight="bold" lengthAdjust="spacing" textLength="131.0538" x="15" y="784.3667">[&#31649;&#29702;&#21592;&#25191;&#34892;&#21024;&#38500;&#35282;&#33394;&#25805;&#20316;]</text><polygon fill="#181818" points="210.4323,805.0938,220.4323,809.0938,210.4323,813.0938,214.4323,809.0938" style="stroke:#181818;stroke-width:1.0;"/><line style="stroke:#181818;stroke-width:1.0;" x1="55.4321" x2="216.4323" y1="809.0938" y2="809.0938"/><text fill="#000000" font-family="sans-serif" font-size="13" lengthAdjust="spacing" textLength="143.0002" x="62.4321" y="804.0278">&#36873;&#25321;&#35282;&#33394;&#24182;&#25552;&#20132;&#21024;&#38500;&#35831;&#27714;</text><polygon fill="#181818" points="403.4325,834.2266,413.4325,838.2266,403.4325,842.2266,407.4325,838.2266" style="stroke:#181818;stroke-width:1.0;"/><line style="stroke:#181818;stroke-width:1.0;" x1="222.4323" x2="409.4325" y1="838.2266" y2="838.2266"/><text fill="#000000" font-family="sans-serif" font-size="13" lengthAdjust="spacing" textLength="78.0001" x="229.4323" y="833.1606">&#25552;&#20132;&#21024;&#38500;&#35831;&#27714;</text><polygon fill="#181818" points="596.4327,863.3594,606.4327,867.3594,596.4327,871.3594,600.4327,867.3594" style="stroke:#181818;stroke-width:1.0;"/><line style="stroke:#181818;stroke-width:1.0;" x1="415.4325" x2="602.4327" y1="867.3594" y2="867.3594"/><text fill="#000000" font-family="sans-serif" font-size="13" lengthAdjust="spacing" textLength="78.0001" x="422.4325" y="862.2935">&#22788;&#29702;&#21024;&#38500;&#35831;&#27714;</text><polygon fill="#181818" points="763.4329,892.4922,773.4329,896.4922,763.4329,900.4922,767.4329,896.4922" style="stroke:#181818;stroke-width:1.0;"/><line style="stroke:#181818;stroke-width:1.0;" x1="608.4327" x2="769.4329" y1="896.4922" y2="896.4922"/><text fill="#000000" font-family="sans-serif" font-size="13" lengthAdjust="spacing" textLength="52.0001" x="615.4327" y="891.4263">&#21024;&#38500;&#35282;&#33394;</text><polygon fill="#181818" points="619.4327,921.625,609.4327,925.625,619.4327,929.625,615.4327,925.625" style="stroke:#181818;stroke-width:1.0;"/><line style="stroke:#181818;stroke-width:1.0;stroke-dasharray:2.0,2.0;" x1="613.4327" x2="774.4329" y1="925.625" y2="925.625"/><text fill="#000000" font-family="sans-serif" font-size="13" lengthAdjust="spacing" textLength="78.0001" x="625.4327" y="920.5591">&#36820;&#22238;&#21024;&#38500;&#32467;&#26524;</text><polygon fill="#181818" points="426.4325,950.7578,416.4325,954.7578,426.4325,958.7578,422.4325,954.7578" style="stroke:#181818;stroke-width:1.0;"/><line style="stroke:#181818;stroke-width:1.0;stroke-dasharray:2.0,2.0;" x1="420.4325" x2="607.4327" y1="954.7578" y2="954.7578"/><text fill="#000000" font-family="sans-serif" font-size="13" lengthAdjust="spacing" textLength="78.0001" x="432.4325" y="949.6919">&#36820;&#22238;&#21024;&#38500;&#32467;&#26524;</text><polygon fill="#181818" points="233.4323,979.8906,223.4323,983.8906,233.4323,987.8906,229.4323,983.8906" style="stroke:#181818;stroke-width:1.0;"/><line style="stroke:#181818;stroke-width:1.0;stroke-dasharray:2.0,2.0;" x1="227.4323" x2="414.4325" y1="983.8906" y2="983.8906"/><text fill="#000000" font-family="sans-serif" font-size="13" lengthAdjust="spacing" textLength="78.0001" x="239.4323" y="978.8247">&#26174;&#31034;&#21024;&#38500;&#32467;&#26524;</text><polygon fill="#181818" points="66.4321,1009.0234,56.4321,1013.0234,66.4321,1017.0234,62.4321,1013.0234" style="stroke:#181818;stroke-width:1.0;"/><line style="stroke:#181818;stroke-width:1.0;stroke-dasharray:2.0,2.0;" x1="60.4321" x2="221.4323" y1="1013.0234" y2="1013.0234"/><text fill="#000000" font-family="sans-serif" font-size="13" lengthAdjust="spacing" textLength="78.0001" x="72.4321" y="1007.9575">&#25552;&#31034;&#21024;&#38500;&#25104;&#21151;</text><line style="stroke:#000000;stroke-width:1.0;stroke-dasharray:2.0,2.0;" x1="10" x2="843.9294" y1="1022.0234" y2="1022.0234"/><text fill="#000000" font-family="sans-serif" font-size="11" font-weight="bold" lengthAdjust="spacing" textLength="131.0538" x="15" y="1032.2339">[&#31649;&#29702;&#21592;&#25191;&#34892;&#20462;&#25913;&#35282;&#33394;&#25805;&#20316;]</text><polygon fill="#181818" points="210.4323,1052.9609,220.4323,1056.9609,210.4323,1060.9609,214.4323,1056.9609" style="stroke:#181818;stroke-width:1.0;"/><line style="stroke:#181818;stroke-width:1.0;" x1="55.4321" x2="216.4323" y1="1056.9609" y2="1056.9609"/><text fill="#000000" font-family="sans-serif" font-size="13" lengthAdjust="spacing" textLength="143.0002" x="62.4321" y="1051.895">&#36873;&#25321;&#35282;&#33394;&#24182;&#25552;&#20132;&#20462;&#25913;&#35831;&#27714;</text><polygon fill="#181818" points="403.4325,1082.0938,413.4325,1086.0938,403.4325,1090.0938,407.4325,1086.0938" style="stroke:#181818;stroke-width:1.0;"/><line style="stroke:#181818;stroke-width:1.0;" x1="222.4323" x2="409.4325" y1="1086.0938" y2="1086.0938"/><text fill="#000000" font-family="sans-serif" font-size="13" lengthAdjust="spacing" textLength="78.0001" x="229.4323" y="1081.0278">&#25552;&#20132;&#20462;&#25913;&#35831;&#27714;</text><polygon fill="#181818" points="596.4327,1111.2266,606.4327,1115.2266,596.4327,1119.2266,600.4327,1115.2266" style="stroke:#181818;stroke-width:1.0;"/><line style="stroke:#181818;stroke-width:1.0;" x1="415.4325" x2="602.4327" y1="1115.2266" y2="1115.2266"/><text fill="#000000" font-family="sans-serif" font-size="13" lengthAdjust="spacing" textLength="78.0001" x="422.4325" y="1110.1606">&#22788;&#29702;&#20462;&#25913;&#35831;&#27714;</text><polygon fill="#181818" points="763.4329,1140.3594,773.4329,1144.3594,763.4329,1148.3594,767.4329,1144.3594" style="stroke:#181818;stroke-width:1.0;"/><line style="stroke:#181818;stroke-width:1.0;" x1="608.4327" x2="769.4329" y1="1144.3594" y2="1144.3594"/><text fill="#000000" font-family="sans-serif" font-size="13" lengthAdjust="spacing" textLength="78.0001" x="615.4327" y="1139.2935">&#20462;&#25913;&#35282;&#33394;&#20449;&#24687;</text><polygon fill="#181818" points="619.4327,1169.4922,609.4327,1173.4922,619.4327,1177.4922,615.4327,1173.4922" style="stroke:#181818;stroke-width:1.0;"/><line style="stroke:#181818;stroke-width:1.0;stroke-dasharray:2.0,2.0;" x1="613.4327" x2="774.4329" y1="1173.4922" y2="1173.4922"/><text fill="#000000" font-family="sans-serif" font-size="13" lengthAdjust="spacing" textLength="78.0001" x="625.4327" y="1168.4263">&#36820;&#22238;&#20462;&#25913;&#32467;&#26524;</text><polygon fill="#181818" points="426.4325,1198.625,416.4325,1202.625,426.4325,1206.625,422.4325,1202.625" style="stroke:#181818;stroke-width:1.0;"/><line style="stroke:#181818;stroke-width:1.0;stroke-dasharray:2.0,2.0;" x1="420.4325" x2="607.4327" y1="1202.625" y2="1202.625"/><text fill="#000000" font-family="sans-serif" font-size="13" lengthAdjust="spacing" textLength="78.0001" x="432.4325" y="1197.5591">&#36820;&#22238;&#20462;&#25913;&#32467;&#26524;</text><polygon fill="#181818" points="233.4323,1227.7578,223.4323,1231.7578,233.4323,1235.7578,229.4323,1231.7578" style="stroke:#181818;stroke-width:1.0;"/><line style="stroke:#181818;stroke-width:1.0;stroke-dasharray:2.0,2.0;" x1="227.4323" x2="414.4325" y1="1231.7578" y2="1231.7578"/><text fill="#000000" font-family="sans-serif" font-size="13" lengthAdjust="spacing" textLength="78.0001" x="239.4323" y="1226.6919">&#26174;&#31034;&#20462;&#25913;&#32467;&#26524;</text><polygon fill="#181818" points="66.4321,1256.8906,56.4321,1260.8906,66.4321,1264.8906,62.4321,1260.8906" style="stroke:#181818;stroke-width:1.0;"/><line style="stroke:#181818;stroke-width:1.0;stroke-dasharray:2.0,2.0;" x1="60.4321" x2="221.4323" y1="1260.8906" y2="1260.8906"/><text fill="#000000" font-family="sans-serif" font-size="13" lengthAdjust="spacing" textLength="78.0001" x="72.4321" y="1255.8247">&#25552;&#31034;&#20462;&#25913;&#25104;&#21151;</text><line style="stroke:#000000;stroke-width:1.0;stroke-dasharray:2.0,2.0;" x1="10" x2="843.9294" y1="1269.8906" y2="1269.8906"/><text fill="#000000" font-family="sans-serif" font-size="11" font-weight="bold" lengthAdjust="spacing" textLength="131.0538" x="15" y="1280.1011">[&#31649;&#29702;&#21592;&#25191;&#34892;&#26597;&#35810;&#35282;&#33394;&#25805;&#20316;]</text><polygon fill="#181818" points="210.4323,1300.8281,220.4323,1304.8281,210.4323,1308.8281,214.4323,1304.8281" style="stroke:#181818;stroke-width:1.0;"/><line style="stroke:#181818;stroke-width:1.0;" x1="55.4321" x2="216.4323" y1="1304.8281" y2="1304.8281"/><text fill="#000000" font-family="sans-serif" font-size="13" lengthAdjust="spacing" textLength="78.0001" x="62.4321" y="1299.7622">&#36755;&#20837;&#26597;&#35810;&#26465;&#20214;</text><polygon fill="#181818" points="403.4325,1329.9609,413.4325,1333.9609,403.4325,1337.9609,407.4325,1333.9609" style="stroke:#181818;stroke-width:1.0;"/><line style="stroke:#181818;stroke-width:1.0;" x1="222.4323" x2="409.4325" y1="1333.9609" y2="1333.9609"/><text fill="#000000" font-family="sans-serif" font-size="13" lengthAdjust="spacing" textLength="78.0001" x="229.4323" y="1328.895">&#25552;&#20132;&#26597;&#35810;&#35831;&#27714;</text><polygon fill="#181818" points="596.4327,1359.0938,606.4327,1363.0938,596.4327,1367.0938,600.4327,1363.0938" style="stroke:#181818;stroke-width:1.0;"/><line style="stroke:#181818;stroke-width:1.0;" x1="415.4325" x2="602.4327" y1="1363.0938" y2="1363.0938"/><text fill="#000000" font-family="sans-serif" font-size="13" lengthAdjust="spacing" textLength="78.0001" x="422.4325" y="1358.0278">&#22788;&#29702;&#26597;&#35810;&#35831;&#27714;</text><polygon fill="#181818" points="763.4329,1388.2266,773.4329,1392.2266,763.4329,1396.2266,767.4329,1392.2266" style="stroke:#181818;stroke-width:1.0;"/><line style="stroke:#181818;stroke-width:1.0;" x1="608.4327" x2="769.4329" y1="1392.2266" y2="1392.2266"/><text fill="#000000" font-family="sans-serif" font-size="13" lengthAdjust="spacing" textLength="78.0001" x="615.4327" y="1387.1606">&#26597;&#35810;&#35282;&#33394;&#20449;&#24687;</text><polygon fill="#181818" points="619.4327,1417.3594,609.4327,1421.3594,619.4327,1425.3594,615.4327,1421.3594" style="stroke:#181818;stroke-width:1.0;"/><line style="stroke:#181818;stroke-width:1.0;stroke-dasharray:2.0,2.0;" x1="613.4327" x2="774.4329" y1="1421.3594" y2="1421.3594"/><text fill="#000000" font-family="sans-serif" font-size="13" lengthAdjust="spacing" textLength="78.0001" x="625.4327" y="1416.2935">&#36820;&#22238;&#26597;&#35810;&#32467;&#26524;</text><path d="M20,1436.3594 L84.4429,1436.3594 L84.4429,1443.4922 L74.4429,1453.4922 L20,1453.4922 L20,1436.3594 " fill="#EEEEEE" style="stroke:#000000;stroke-width:1.5;"/><rect fill="none" height="206.7344" style="stroke:#000000;stroke-width:1.5;" width="642.7012" x="20" y="1436.3594"/><text fill="#000000" font-family="sans-serif" font-size="13" font-weight="bold" lengthAdjust="spacing" textLength="19.4429" x="35" y="1449.4263">alt</text><text fill="#000000" font-family="sans-serif" font-size="11" font-weight="bold" lengthAdjust="spacing" textLength="98.0541" x="99.4429" y="1448.5698">[&#26597;&#35810;&#30340;&#35282;&#33394;&#19981;&#23384;&#22312;]</text><polygon fill="#181818" points="426.4325,1470.625,416.4325,1474.625,426.4325,1478.625,422.4325,1474.625" style="stroke:#181818;stroke-width:1.0;"/><line style="stroke:#181818;stroke-width:1.0;stroke-dasharray:2.0,2.0;" x1="420.4325" x2="607.4327" y1="1474.625" y2="1474.625"/><text fill="#000000" font-family="sans-serif" font-size="13" lengthAdjust="spacing" textLength="143.0002" x="432.4325" y="1469.5591">&#36820;&#22238;&#35282;&#33394;&#19981;&#23384;&#22312;&#38169;&#35823;&#20449;&#24687;</text><polygon fill="#181818" points="233.4323,1499.7578,223.4323,1503.7578,233.4323,1507.7578,229.4323,1503.7578" style="stroke:#181818;stroke-width:1.0;"/><line style="stroke:#181818;stroke-width:1.0;stroke-dasharray:2.0,2.0;" x1="227.4323" x2="414.4325" y1="1503.7578" y2="1503.7578"/><text fill="#000000" font-family="sans-serif" font-size="13" lengthAdjust="spacing" textLength="143.0002" x="239.4323" y="1498.6919">&#26174;&#31034;&#35282;&#33394;&#19981;&#23384;&#22312;&#38169;&#35823;&#20449;&#24687;</text><polygon fill="#181818" points="66.4321,1528.8906,56.4321,1532.8906,66.4321,1536.8906,62.4321,1532.8906" style="stroke:#181818;stroke-width:1.0;"/><line style="stroke:#181818;stroke-width:1.0;stroke-dasharray:2.0,2.0;" x1="60.4321" x2="221.4323" y1="1532.8906" y2="1532.8906"/><text fill="#000000" font-family="sans-serif" font-size="13" lengthAdjust="spacing" textLength="91.0001" x="72.4321" y="1527.8247">&#25552;&#31034;&#35282;&#33394;&#19981;&#23384;&#22312;</text><line style="stroke:#000000;stroke-width:1.0;stroke-dasharray:2.0,2.0;" x1="20" x2="662.7012" y1="1541.8906" y2="1541.8906"/><text fill="#000000" font-family="sans-serif" font-size="11" font-weight="bold" lengthAdjust="spacing" textLength="87.0542" x="25" y="1552.1011">[&#26597;&#35810;&#30340;&#35282;&#33394;&#23384;&#22312;]</text><polygon fill="#181818" points="426.4325,1572.8281,416.4325,1576.8281,426.4325,1580.8281,422.4325,1576.8281" style="stroke:#181818;stroke-width:1.0;"/><line style="stroke:#181818;stroke-width:1.0;stroke-dasharray:2.0,2.0;" x1="420.4325" x2="607.4327" y1="1576.8281" y2="1576.8281"/><text fill="#000000" font-family="sans-serif" font-size="13" lengthAdjust="spacing" textLength="78.0001" x="432.4325" y="1571.7622">&#36820;&#22238;&#26597;&#35810;&#32467;&#26524;</text><polygon fill="#181818" points="233.4323,1601.9609,223.4323,1605.9609,233.4323,1609.9609,229.4323,1605.9609" style="stroke:#181818;stroke-width:1.0;"/><line style="stroke:#181818;stroke-width:1.0;stroke-dasharray:2.0,2.0;" x1="227.4323" x2="414.4325" y1="1605.9609" y2="1605.9609"/><text fill="#000000" font-family="sans-serif" font-size="13" lengthAdjust="spacing" textLength="78.0001" x="239.4323" y="1600.895">&#26174;&#31034;&#26597;&#35810;&#32467;&#26524;</text><polygon fill="#181818" points="66.4321,1631.0938,56.4321,1635.0938,66.4321,1639.0938,62.4321,1635.0938" style="stroke:#181818;stroke-width:1.0;"/><line style="stroke:#181818;stroke-width:1.0;stroke-dasharray:2.0,2.0;" x1="60.4321" x2="221.4323" y1="1635.0938" y2="1635.0938"/><text fill="#000000" font-family="sans-serif" font-size="13" lengthAdjust="spacing" textLength="78.0001" x="72.4321" y="1630.0278">&#25552;&#31034;&#26597;&#35810;&#25104;&#21151;</text><!--SRC=[dPJ1RjD0443l_ehzWVv03aZ8PqkLym78ZIrKAR4bDo1n0rHGKmWr9ArIsgPrb3Pm84uhqT1MD3_ZNTj_mNhNiJRUiGFaaiZxPZppTZ96e-suwAdPshQLBUU5RHhkAwGxJKipREEvrRBizYRzHiOEqhLDfU7ORTTfCaBblvkMoqxLbSEwvRxSRl2ukc8QRMFBsB5GYsLzHYbsfEcAmjwDDfwa-MieNfpWTvVnv4lSkOccVkIzJ_oVoTb8eQSCKYaJpCdrMv4XXpFIdIgwof0wHJxDyS4HXDHJHDDhY9nVni48G3GTRIpJBFhuP5YIPbbDAQDo9csB31wZyJq4fMrHYbce8NnzME2ozXMZsKRy2Vuy89r9x7_4eo7Ul-0mwNN3twSAef-2qCSU5KgEPfJcQBZmoPk0eO9KSk25zsEHuvevbul5uzsq-18Cb8kzRZIPaK60lIiyly4_1lZq6-CbqpmiUkYH8UybxLhCiXg_V2Tm4mKywH_7GI1qlkmAkg2_YbszDsglB9o5M4qw_E9n-AiBD9B94-pcnx8hHWckG1im9JKEOr2Fd2Hx7ju_vwtPfiBQAqxdtaLoF5updSdh3ldmFHDpTyk7C8iKvgeufZ9H650PoEsATS5Jo0b1XcHL9YIZCWBPv5Hc4x8OBgQaV_S_5hF82eioKR0e0xb5iIxXho6vv5oLIvcGNCe8v99J5Ix5fRHkNpAKdFdXmst9fkJ9AdQa183RiKeUk0wpXrztitXmaG0RCGV_QHUkYIhVWgjriUieLBwkRAdxajK5Ok3gufTQM5ss-GS0]--></g></svg>