<svg xmlns="http://www.w3.org/2000/svg" xmlns:xlink="http://www.w3.org/1999/xlink" contentStyleType="text/css" height="1995px" preserveAspectRatio="none" style="width:884px;height:1995px;background:#FFFFFF;" version="1.1" viewBox="0 0 884 1995" width="884px" zoomAndPan="magnify"><defs/><g><rect fill="none" height="1566.6016" style="stroke:#000000;stroke-width:1.5;" width="867.9378" x="10" y="331.3594"/><rect fill="none" height="265" style="stroke:#000000;stroke-width:1.5;" width="847.9378" x="20" y="501.1563"/><rect fill="none" height="206.7344" style="stroke:#000000;stroke-width:1.5;" width="675.7628" x="20" y="1436.3594"/><line style="stroke:#181818;stroke-width:0.5;stroke-dasharray:5.0,5.0;" x1="55" x2="55" y1="81.2969" y2="1914.9609"/><line style="stroke:#181818;stroke-width:0.5;stroke-dasharray:5.0,5.0;" x1="247.6003" x2="247.6003" y1="81.2969" y2="1914.9609"/><line style="stroke:#181818;stroke-width:0.5;stroke-dasharray:5.0,5.0;" x1="441.3866" x2="441.3866" y1="81.2969" y2="1914.9609"/><line style="stroke:#181818;stroke-width:0.5;stroke-dasharray:5.0,5.0;" x1="634.1026" x2="634.1026" y1="81.2969" y2="1914.9609"/><line style="stroke:#181818;stroke-width:0.5;stroke-dasharray:5.0,5.0;" x1="800.928" x2="800.928" y1="81.2969" y2="1914.9609"/><text fill="#000000" font-family="sans-serif" font-size="14" lengthAdjust="spacing" textLength="44.8643" x="30" y="77.9951">Admin</text><ellipse cx="55.4321" cy="13.5" fill="#E2E2F0" rx="8" ry="8" style="stroke:#181818;stroke-width:0.5;"/><path d="M55.4321,21.5 L55.4321,48.5 M42.4321,29.5 L68.4321,29.5 M55.4321,48.5 L42.4321,63.5 M55.4321,48.5 L68.4321,63.5 " fill="none" style="stroke:#181818;stroke-width:0.5;"/><text fill="#000000" font-family="sans-serif" font-size="14" lengthAdjust="spacing" textLength="44.8643" x="30" y="1926.9561">Admin</text><ellipse cx="55.4321" cy="1938.7578" fill="#E2E2F0" rx="8" ry="8" style="stroke:#181818;stroke-width:0.5;"/><path d="M55.4321,1946.7578 L55.4321,1973.7578 M42.4321,1954.7578 L68.4321,1954.7578 M55.4321,1973.7578 L42.4321,1988.7578 M55.4321,1973.7578 L68.4321,1988.7578 " fill="none" style="stroke:#181818;stroke-width:0.5;"/><text fill="#000000" font-family="sans-serif" font-size="14" lengthAdjust="spacing" textLength="171.6641" x="159.6003" y="77.9951">ConfigManagementPage</text><path d="M227.9323,37 L227.9323,61 M227.9323,49 L244.9323,49 " fill="none" style="stroke:#181818;stroke-width:0.5;"/><ellipse cx="256.9323" cy="49" fill="#E2E2F0" rx="12" ry="12" style="stroke:#181818;stroke-width:0.5;"/><text fill="#000000" font-family="sans-serif" font-size="14" lengthAdjust="spacing" textLength="171.6641" x="159.6003" y="1926.9561">ConfigManagementPage</text><path d="M227.9323,1934.2578 L227.9323,1958.2578 M227.9323,1946.2578 L244.9323,1946.2578 " fill="none" style="stroke:#181818;stroke-width:0.5;"/><ellipse cx="256.9323" cy="1946.2578" fill="#E2E2F0" rx="12" ry="12" style="stroke:#181818;stroke-width:0.5;"/><text fill="#000000" font-family="sans-serif" font-size="14" lengthAdjust="spacing" textLength="114.0918" x="381.3866" y="77.9951">ConfigController</text><ellipse cx="441.4325" cy="49" fill="#E2E2F0" rx="12" ry="12" style="stroke:#181818;stroke-width:0.5;"/><polygon fill="#181818" points="437.4325,37,443.4325,32,441.4325,37,443.4325,42,437.4325,37" style="stroke:#181818;stroke-width:1.0;"/><text fill="#000000" font-family="sans-serif" font-size="14" lengthAdjust="spacing" textLength="114.0918" x="381.3866" y="1926.9561">ConfigController</text><ellipse cx="441.4325" cy="1946.2578" fill="#E2E2F0" rx="12" ry="12" style="stroke:#181818;stroke-width:0.5;"/><polygon fill="#181818" points="437.4325,1934.2578,443.4325,1929.2578,441.4325,1934.2578,443.4325,1939.2578,437.4325,1934.2578" style="stroke:#181818;stroke-width:1.0;"/><text fill="#000000" font-family="sans-serif" font-size="14" lengthAdjust="spacing" textLength="96.6602" x="583.1026" y="77.9951">ConfigService</text><ellipse cx="634.4327" cy="49" fill="#E2E2F0" rx="12" ry="12" style="stroke:#181818;stroke-width:0.5;"/><polygon fill="#181818" points="630.4327,37,636.4327,32,634.4327,37,636.4327,42,630.4327,37" style="stroke:#181818;stroke-width:1.0;"/><text fill="#000000" font-family="sans-serif" font-size="14" lengthAdjust="spacing" textLength="96.6602" x="583.1026" y="1926.9561">ConfigService</text><ellipse cx="634.4327" cy="1946.2578" fill="#E2E2F0" rx="12" ry="12" style="stroke:#181818;stroke-width:0.5;"/><polygon fill="#181818" points="630.4327,1934.2578,636.4327,1929.2578,634.4327,1934.2578,636.4327,1939.2578,630.4327,1934.2578" style="stroke:#181818;stroke-width:1.0;"/><text fill="#000000" font-family="sans-serif" font-size="14" lengthAdjust="spacing" textLength="107.0098" x="744.928" y="77.9951">manage_config</text><path d="M783.4329,29 C783.4329,19 801.4329,19 801.4329,19 C801.4329,19 819.4329,19 819.4329,29 L819.4329,55 C819.4329,65 801.4329,65 801.4329,65 C801.4329,65 783.4329,65 783.4329,55 L783.4329,29 " fill="#E2E2F0" style="stroke:#181818;stroke-width:1.5;"/><path d="M783.4329,29 C783.4329,39 801.4329,39 801.4329,39 C801.4329,39 819.4329,39 819.4329,29 " fill="none" style="stroke:#181818;stroke-width:1.5;"/><text fill="#000000" font-family="sans-serif" font-size="14" lengthAdjust="spacing" textLength="107.0098" x="744.928" y="1926.9561">manage_config</text><path d="M783.4329,1940.2578 C783.4329,1930.2578 801.4329,1930.2578 801.4329,1930.2578 C801.4329,1930.2578 819.4329,1930.2578 819.4329,1940.2578 L819.4329,1966.2578 C819.4329,1976.2578 801.4329,1976.2578 801.4329,1976.2578 C801.4329,1976.2578 783.4329,1976.2578 783.4329,1966.2578 L783.4329,1940.2578 " fill="#E2E2F0" style="stroke:#181818;stroke-width:1.5;"/><path d="M783.4329,1940.2578 C783.4329,1950.2578 801.4329,1950.2578 801.4329,1950.2578 C801.4329,1950.2578 819.4329,1950.2578 819.4329,1940.2578 " fill="none" style="stroke:#181818;stroke-width:1.5;"/><polygon fill="#181818" points="236.4323,108.4297,246.4323,112.4297,236.4323,116.4297,240.4323,112.4297" style="stroke:#181818;stroke-width:1.0;"/><line style="stroke:#181818;stroke-width:1.0;" x1="55.4321" x2="242.4323" y1="112.4297" y2="112.4297"/><text fill="#000000" font-family="sans-serif" font-size="13" lengthAdjust="spacing" textLength="104.0001" x="62.4321" y="107.3638">&#36827;&#20837;&#37197;&#32622;&#31649;&#29702;&#39029;&#38754;</text><polygon fill="#181818" points="429.4325,137.5625,439.4325,141.5625,429.4325,145.5625,433.4325,141.5625" style="stroke:#181818;stroke-width:1.0;"/><line style="stroke:#181818;stroke-width:1.0;" x1="248.4323" x2="435.4325" y1="141.5625" y2="141.5625"/><text fill="#000000" font-family="sans-serif" font-size="13" lengthAdjust="spacing" textLength="104.0001" x="255.4323" y="136.4966">&#35831;&#27714;&#37197;&#32622;&#31649;&#29702;&#25968;&#25454;</text><polygon fill="#181818" points="622.4327,166.6953,632.4327,170.6953,622.4327,174.6953,626.4327,170.6953" style="stroke:#181818;stroke-width:1.0;"/><line style="stroke:#181818;stroke-width:1.0;" x1="441.4325" x2="628.4327" y1="170.6953" y2="170.6953"/><text fill="#000000" font-family="sans-serif" font-size="13" lengthAdjust="spacing" textLength="104.0001" x="448.4325" y="165.6294">&#33719;&#21462;&#37197;&#32622;&#31649;&#29702;&#25968;&#25454;</text><polygon fill="#181818" points="789.4329,195.8281,799.4329,199.8281,789.4329,203.8281,793.4329,199.8281" style="stroke:#181818;stroke-width:1.0;"/><line style="stroke:#181818;stroke-width:1.0;" x1="634.4327" x2="795.4329" y1="199.8281" y2="199.8281"/><text fill="#000000" font-family="sans-serif" font-size="13" lengthAdjust="spacing" textLength="104.0001" x="641.4327" y="194.7622">&#26597;&#35810;&#37197;&#32622;&#31649;&#29702;&#25968;&#25454;</text><polygon fill="#181818" points="645.4327,224.9609,635.4327,228.9609,645.4327,232.9609,641.4327,228.9609" style="stroke:#181818;stroke-width:1.0;"/><line style="stroke:#181818;stroke-width:1.0;stroke-dasharray:2.0,2.0;" x1="639.4327" x2="800.4329" y1="228.9609" y2="228.9609"/><text fill="#000000" font-family="sans-serif" font-size="13" lengthAdjust="spacing" textLength="104.0001" x="651.4327" y="223.895">&#36820;&#22238;&#37197;&#32622;&#31649;&#29702;&#25968;&#25454;</text><polygon fill="#181818" points="452.4325,254.0938,442.4325,258.0938,452.4325,262.0938,448.4325,258.0938" style="stroke:#181818;stroke-width:1.0;"/><line style="stroke:#181818;stroke-width:1.0;stroke-dasharray:2.0,2.0;" x1="446.4325" x2="633.4327" y1="258.0938" y2="258.0938"/><text fill="#000000" font-family="sans-serif" font-size="13" lengthAdjust="spacing" textLength="104.0001" x="458.4325" y="253.0278">&#36820;&#22238;&#37197;&#32622;&#31649;&#29702;&#25968;&#25454;</text><polygon fill="#181818" points="259.4323,283.2266,249.4323,287.2266,259.4323,291.2266,255.4323,287.2266" style="stroke:#181818;stroke-width:1.0;"/><line style="stroke:#181818;stroke-width:1.0;stroke-dasharray:2.0,2.0;" x1="253.4323" x2="440.4325" y1="287.2266" y2="287.2266"/><text fill="#000000" font-family="sans-serif" font-size="13" lengthAdjust="spacing" textLength="104.0001" x="265.4323" y="282.1606">&#26174;&#31034;&#37197;&#32622;&#31649;&#29702;&#25968;&#25454;</text><polygon fill="#181818" points="66.4321,312.3594,56.4321,316.3594,66.4321,320.3594,62.4321,316.3594" style="stroke:#181818;stroke-width:1.0;"/><line style="stroke:#181818;stroke-width:1.0;stroke-dasharray:2.0,2.0;" x1="60.4321" x2="247.4323" y1="316.3594" y2="316.3594"/><text fill="#000000" font-family="sans-serif" font-size="13" lengthAdjust="spacing" textLength="104.0001" x="72.4321" y="311.2935">&#23637;&#31034;&#37197;&#32622;&#31649;&#29702;&#39029;&#38754;</text><path d="M10,331.3594 L74.4429,331.3594 L74.4429,338.4922 L64.4429,348.4922 L10,348.4922 L10,331.3594 " fill="#EEEEEE" style="stroke:#000000;stroke-width:1.5;"/><rect fill="none" height="1566.6016" style="stroke:#000000;stroke-width:1.5;" width="867.9378" x="10" y="331.3594"/><text fill="#000000" font-family="sans-serif" font-size="13" font-weight="bold" lengthAdjust="spacing" textLength="19.4429" x="25" y="344.4263">alt</text><text fill="#000000" font-family="sans-serif" font-size="11" font-weight="bold" lengthAdjust="spacing" textLength="131.0538" x="89.4429" y="343.5698">[&#31649;&#29702;&#21592;&#25191;&#34892;&#22686;&#21152;&#37197;&#32622;&#25805;&#20316;]</text><polygon fill="#181818" points="236.4323,365.625,246.4323,369.625,236.4323,373.625,240.4323,369.625" style="stroke:#181818;stroke-width:1.0;"/><line style="stroke:#181818;stroke-width:1.0;" x1="55.4321" x2="242.4323" y1="369.625" y2="369.625"/><text fill="#000000" font-family="sans-serif" font-size="13" lengthAdjust="spacing" textLength="104.0001" x="62.4321" y="364.5591">&#36755;&#20837;&#26032;&#22686;&#37197;&#32622;&#20449;&#24687;</text><polygon fill="#181818" points="429.4325,394.7578,439.4325,398.7578,429.4325,402.7578,433.4325,398.7578" style="stroke:#181818;stroke-width:1.0;"/><line style="stroke:#181818;stroke-width:1.0;" x1="248.4323" x2="435.4325" y1="398.7578" y2="398.7578"/><text fill="#000000" font-family="sans-serif" font-size="13" lengthAdjust="spacing" textLength="104.0001" x="255.4323" y="393.6919">&#25552;&#20132;&#26032;&#22686;&#37197;&#32622;&#35831;&#27714;</text><polygon fill="#181818" points="622.4327,423.8906,632.4327,427.8906,622.4327,431.8906,626.4327,427.8906" style="stroke:#181818;stroke-width:1.0;"/><line style="stroke:#181818;stroke-width:1.0;" x1="441.4325" x2="628.4327" y1="427.8906" y2="427.8906"/><text fill="#000000" font-family="sans-serif" font-size="13" lengthAdjust="spacing" textLength="104.0001" x="448.4325" y="422.8247">&#22788;&#29702;&#26032;&#22686;&#37197;&#32622;&#35831;&#27714;</text><polygon fill="#181818" points="789.4329,453.0234,799.4329,457.0234,789.4329,461.0234,793.4329,457.0234" style="stroke:#181818;stroke-width:1.0;"/><line style="stroke:#181818;stroke-width:1.0;" x1="634.4327" x2="795.4329" y1="457.0234" y2="457.0234"/><text fill="#000000" font-family="sans-serif" font-size="13" lengthAdjust="spacing" textLength="143.0002" x="641.4327" y="451.9575">&#26597;&#35810;&#37197;&#32622;&#21517;&#31216;&#26159;&#21542;&#24050;&#23384;&#22312;</text><polygon fill="#181818" points="645.4327,482.1563,635.4327,486.1563,645.4327,490.1563,641.4327,486.1563" style="stroke:#181818;stroke-width:1.0;"/><line style="stroke:#181818;stroke-width:1.0;stroke-dasharray:2.0,2.0;" x1="639.4327" x2="800.4329" y1="486.1563" y2="486.1563"/><text fill="#000000" font-family="sans-serif" font-size="13" lengthAdjust="spacing" textLength="78.0001" x="651.4327" y="481.0903">&#36820;&#22238;&#26597;&#35810;&#32467;&#26524;</text><path d="M20,501.1563 L84.4429,501.1563 L84.4429,508.2891 L74.4429,518.2891 L20,518.2891 L20,501.1563 " fill="#EEEEEE" style="stroke:#000000;stroke-width:1.5;"/><rect fill="none" height="265" style="stroke:#000000;stroke-width:1.5;" width="847.9378" x="20" y="501.1563"/><text fill="#000000" font-family="sans-serif" font-size="13" font-weight="bold" lengthAdjust="spacing" textLength="19.4429" x="35" y="514.2231">alt</text><text fill="#000000" font-family="sans-serif" font-size="11" font-weight="bold" lengthAdjust="spacing" textLength="87.0542" x="99.4429" y="513.3667">[&#37197;&#32622;&#21517;&#31216;&#24050;&#23384;&#22312;]</text><polygon fill="#181818" points="452.4325,535.4219,442.4325,539.4219,452.4325,543.4219,448.4325,539.4219" style="stroke:#181818;stroke-width:1.0;"/><line style="stroke:#181818;stroke-width:1.0;stroke-dasharray:2.0,2.0;" x1="446.4325" x2="633.4327" y1="539.4219" y2="539.4219"/><text fill="#000000" font-family="sans-serif" font-size="13" lengthAdjust="spacing" textLength="169.0002" x="458.4325" y="534.356">&#36820;&#22238;&#37197;&#32622;&#21517;&#31216;&#24050;&#23384;&#22312;&#38169;&#35823;&#20449;&#24687;</text><polygon fill="#181818" points="259.4323,564.5547,249.4323,568.5547,259.4323,572.5547,255.4323,568.5547" style="stroke:#181818;stroke-width:1.0;"/><line style="stroke:#181818;stroke-width:1.0;stroke-dasharray:2.0,2.0;" x1="253.4323" x2="440.4325" y1="568.5547" y2="568.5547"/><text fill="#000000" font-family="sans-serif" font-size="13" lengthAdjust="spacing" textLength="169.0002" x="265.4323" y="563.4888">&#26174;&#31034;&#37197;&#32622;&#21517;&#31216;&#24050;&#23384;&#22312;&#38169;&#35823;&#20449;&#24687;</text><polygon fill="#181818" points="66.4321,593.6875,56.4321,597.6875,66.4321,601.6875,62.4321,597.6875" style="stroke:#181818;stroke-width:1.0;"/><line style="stroke:#181818;stroke-width:1.0;stroke-dasharray:2.0,2.0;" x1="60.4321" x2="247.4323" y1="597.6875" y2="597.6875"/><text fill="#000000" font-family="sans-serif" font-size="13" lengthAdjust="spacing" textLength="117.0001" x="72.4321" y="592.6216">&#25552;&#31034;&#37197;&#32622;&#21517;&#31216;&#24050;&#23384;&#22312;</text><line style="stroke:#000000;stroke-width:1.0;stroke-dasharray:2.0,2.0;" x1="20" x2="867.9378" y1="606.6875" y2="606.6875"/><text fill="#000000" font-family="sans-serif" font-size="11" font-weight="bold" lengthAdjust="spacing" textLength="87.0542" x="25" y="616.8979">[&#37197;&#32622;&#21517;&#31216;&#19981;&#23384;&#22312;]</text><polygon fill="#181818" points="789.4329,637.625,799.4329,641.625,789.4329,645.625,793.4329,641.625" style="stroke:#181818;stroke-width:1.0;"/><line style="stroke:#181818;stroke-width:1.0;" x1="634.4327" x2="795.4329" y1="641.625" y2="641.625"/><text fill="#000000" font-family="sans-serif" font-size="13" lengthAdjust="spacing" textLength="52.0001" x="641.4327" y="636.5591">&#26032;&#22686;&#37197;&#32622;</text><polygon fill="#181818" points="645.4327,666.7578,635.4327,670.7578,645.4327,674.7578,641.4327,670.7578" style="stroke:#181818;stroke-width:1.0;"/><line style="stroke:#181818;stroke-width:1.0;stroke-dasharray:2.0,2.0;" x1="639.4327" x2="800.4329" y1="670.7578" y2="670.7578"/><text fill="#000000" font-family="sans-serif" font-size="13" lengthAdjust="spacing" textLength="78.0001" x="651.4327" y="665.6919">&#36820;&#22238;&#26032;&#22686;&#32467;&#26524;</text><polygon fill="#181818" points="452.4325,695.8906,442.4325,699.8906,452.4325,703.8906,448.4325,699.8906" style="stroke:#181818;stroke-width:1.0;"/><line style="stroke:#181818;stroke-width:1.0;stroke-dasharray:2.0,2.0;" x1="446.4325" x2="633.4327" y1="699.8906" y2="699.8906"/><text fill="#000000" font-family="sans-serif" font-size="13" lengthAdjust="spacing" textLength="78.0001" x="458.4325" y="694.8247">&#36820;&#22238;&#26032;&#22686;&#32467;&#26524;</text><polygon fill="#181818" points="259.4323,725.0234,249.4323,729.0234,259.4323,733.0234,255.4323,729.0234" style="stroke:#181818;stroke-width:1.0;"/><line style="stroke:#181818;stroke-width:1.0;stroke-dasharray:2.0,2.0;" x1="253.4323" x2="440.4325" y1="729.0234" y2="729.0234"/><text fill="#000000" font-family="sans-serif" font-size="13" lengthAdjust="spacing" textLength="78.0001" x="265.4323" y="723.9575">&#26174;&#31034;&#26032;&#22686;&#32467;&#26524;</text><polygon fill="#181818" points="66.4321,754.1563,56.4321,758.1563,66.4321,762.1563,62.4321,758.1563" style="stroke:#181818;stroke-width:1.0;"/><line style="stroke:#181818;stroke-width:1.0;stroke-dasharray:2.0,2.0;" x1="60.4321" x2="247.4323" y1="758.1563" y2="758.1563"/><text fill="#000000" font-family="sans-serif" font-size="13" lengthAdjust="spacing" textLength="78.0001" x="72.4321" y="753.0903">&#25552;&#31034;&#26032;&#22686;&#25104;&#21151;</text><line style="stroke:#000000;stroke-width:1.0;stroke-dasharray:2.0,2.0;" x1="10" x2="877.9378" y1="774.1563" y2="774.1563"/><text fill="#000000" font-family="sans-serif" font-size="11" font-weight="bold" lengthAdjust="spacing" textLength="131.0538" x="15" y="784.3667">[&#31649;&#29702;&#21592;&#25191;&#34892;&#21024;&#38500;&#37197;&#32622;&#25805;&#20316;]</text><polygon fill="#181818" points="236.4323,805.0938,246.4323,809.0938,236.4323,813.0938,240.4323,809.0938" style="stroke:#181818;stroke-width:1.0;"/><line style="stroke:#181818;stroke-width:1.0;" x1="55.4321" x2="242.4323" y1="809.0938" y2="809.0938"/><text fill="#000000" font-family="sans-serif" font-size="13" lengthAdjust="spacing" textLength="143.0002" x="62.4321" y="804.0278">&#36873;&#25321;&#37197;&#32622;&#24182;&#25552;&#20132;&#21024;&#38500;&#35831;&#27714;</text><polygon fill="#181818" points="429.4325,834.2266,439.4325,838.2266,429.4325,842.2266,433.4325,838.2266" style="stroke:#181818;stroke-width:1.0;"/><line style="stroke:#181818;stroke-width:1.0;" x1="248.4323" x2="435.4325" y1="838.2266" y2="838.2266"/><text fill="#000000" font-family="sans-serif" font-size="13" lengthAdjust="spacing" textLength="78.0001" x="255.4323" y="833.1606">&#25552;&#20132;&#21024;&#38500;&#35831;&#27714;</text><polygon fill="#181818" points="622.4327,863.3594,632.4327,867.3594,622.4327,871.3594,626.4327,867.3594" style="stroke:#181818;stroke-width:1.0;"/><line style="stroke:#181818;stroke-width:1.0;" x1="441.4325" x2="628.4327" y1="867.3594" y2="867.3594"/><text fill="#000000" font-family="sans-serif" font-size="13" lengthAdjust="spacing" textLength="78.0001" x="448.4325" y="862.2935">&#22788;&#29702;&#21024;&#38500;&#35831;&#27714;</text><polygon fill="#181818" points="789.4329,892.4922,799.4329,896.4922,789.4329,900.4922,793.4329,896.4922" style="stroke:#181818;stroke-width:1.0;"/><line style="stroke:#181818;stroke-width:1.0;" x1="634.4327" x2="795.4329" y1="896.4922" y2="896.4922"/><text fill="#000000" font-family="sans-serif" font-size="13" lengthAdjust="spacing" textLength="52.0001" x="641.4327" y="891.4263">&#21024;&#38500;&#37197;&#32622;</text><polygon fill="#181818" points="645.4327,921.625,635.4327,925.625,645.4327,929.625,641.4327,925.625" style="stroke:#181818;stroke-width:1.0;"/><line style="stroke:#181818;stroke-width:1.0;stroke-dasharray:2.0,2.0;" x1="639.4327" x2="800.4329" y1="925.625" y2="925.625"/><text fill="#000000" font-family="sans-serif" font-size="13" lengthAdjust="spacing" textLength="78.0001" x="651.4327" y="920.5591">&#36820;&#22238;&#21024;&#38500;&#32467;&#26524;</text><polygon fill="#181818" points="452.4325,950.7578,442.4325,954.7578,452.4325,958.7578,448.4325,954.7578" style="stroke:#181818;stroke-width:1.0;"/><line style="stroke:#181818;stroke-width:1.0;stroke-dasharray:2.0,2.0;" x1="446.4325" x2="633.4327" y1="954.7578" y2="954.7578"/><text fill="#000000" font-family="sans-serif" font-size="13" lengthAdjust="spacing" textLength="78.0001" x="458.4325" y="949.6919">&#36820;&#22238;&#21024;&#38500;&#32467;&#26524;</text><polygon fill="#181818" points="259.4323,979.8906,249.4323,983.8906,259.4323,987.8906,255.4323,983.8906" style="stroke:#181818;stroke-width:1.0;"/><line style="stroke:#181818;stroke-width:1.0;stroke-dasharray:2.0,2.0;" x1="253.4323" x2="440.4325" y1="983.8906" y2="983.8906"/><text fill="#000000" font-family="sans-serif" font-size="13" lengthAdjust="spacing" textLength="78.0001" x="265.4323" y="978.8247">&#26174;&#31034;&#21024;&#38500;&#32467;&#26524;</text><polygon fill="#181818" points="66.4321,1009.0234,56.4321,1013.0234,66.4321,1017.0234,62.4321,1013.0234" style="stroke:#181818;stroke-width:1.0;"/><line style="stroke:#181818;stroke-width:1.0;stroke-dasharray:2.0,2.0;" x1="60.4321" x2="247.4323" y1="1013.0234" y2="1013.0234"/><text fill="#000000" font-family="sans-serif" font-size="13" lengthAdjust="spacing" textLength="78.0001" x="72.4321" y="1007.9575">&#25552;&#31034;&#21024;&#38500;&#25104;&#21151;</text><line style="stroke:#000000;stroke-width:1.0;stroke-dasharray:2.0,2.0;" x1="10" x2="877.9378" y1="1022.0234" y2="1022.0234"/><text fill="#000000" font-family="sans-serif" font-size="11" font-weight="bold" lengthAdjust="spacing" textLength="131.0538" x="15" y="1032.2339">[&#31649;&#29702;&#21592;&#25191;&#34892;&#20462;&#25913;&#37197;&#32622;&#25805;&#20316;]</text><polygon fill="#181818" points="236.4323,1052.9609,246.4323,1056.9609,236.4323,1060.9609,240.4323,1056.9609" style="stroke:#181818;stroke-width:1.0;"/><line style="stroke:#181818;stroke-width:1.0;" x1="55.4321" x2="242.4323" y1="1056.9609" y2="1056.9609"/><text fill="#000000" font-family="sans-serif" font-size="13" lengthAdjust="spacing" textLength="143.0002" x="62.4321" y="1051.895">&#36873;&#25321;&#37197;&#32622;&#24182;&#25552;&#20132;&#20462;&#25913;&#35831;&#27714;</text><polygon fill="#181818" points="429.4325,1082.0938,439.4325,1086.0938,429.4325,1090.0938,433.4325,1086.0938" style="stroke:#181818;stroke-width:1.0;"/><line style="stroke:#181818;stroke-width:1.0;" x1="248.4323" x2="435.4325" y1="1086.0938" y2="1086.0938"/><text fill="#000000" font-family="sans-serif" font-size="13" lengthAdjust="spacing" textLength="78.0001" x="255.4323" y="1081.0278">&#25552;&#20132;&#20462;&#25913;&#35831;&#27714;</text><polygon fill="#181818" points="622.4327,1111.2266,632.4327,1115.2266,622.4327,1119.2266,626.4327,1115.2266" style="stroke:#181818;stroke-width:1.0;"/><line style="stroke:#181818;stroke-width:1.0;" x1="441.4325" x2="628.4327" y1="1115.2266" y2="1115.2266"/><text fill="#000000" font-family="sans-serif" font-size="13" lengthAdjust="spacing" textLength="78.0001" x="448.4325" y="1110.1606">&#22788;&#29702;&#20462;&#25913;&#35831;&#27714;</text><polygon fill="#181818" points="789.4329,1140.3594,799.4329,1144.3594,789.4329,1148.3594,793.4329,1144.3594" style="stroke:#181818;stroke-width:1.0;"/><line style="stroke:#181818;stroke-width:1.0;" x1="634.4327" x2="795.4329" y1="1144.3594" y2="1144.3594"/><text fill="#000000" font-family="sans-serif" font-size="13" lengthAdjust="spacing" textLength="78.0001" x="641.4327" y="1139.2935">&#20462;&#25913;&#37197;&#32622;&#20449;&#24687;</text><polygon fill="#181818" points="645.4327,1169.4922,635.4327,1173.4922,645.4327,1177.4922,641.4327,1173.4922" style="stroke:#181818;stroke-width:1.0;"/><line style="stroke:#181818;stroke-width:1.0;stroke-dasharray:2.0,2.0;" x1="639.4327" x2="800.4329" y1="1173.4922" y2="1173.4922"/><text fill="#000000" font-family="sans-serif" font-size="13" lengthAdjust="spacing" textLength="78.0001" x="651.4327" y="1168.4263">&#36820;&#22238;&#20462;&#25913;&#32467;&#26524;</text><polygon fill="#181818" points="452.4325,1198.625,442.4325,1202.625,452.4325,1206.625,448.4325,1202.625" style="stroke:#181818;stroke-width:1.0;"/><line style="stroke:#181818;stroke-width:1.0;stroke-dasharray:2.0,2.0;" x1="446.4325" x2="633.4327" y1="1202.625" y2="1202.625"/><text fill="#000000" font-family="sans-serif" font-size="13" lengthAdjust="spacing" textLength="78.0001" x="458.4325" y="1197.5591">&#36820;&#22238;&#20462;&#25913;&#32467;&#26524;</text><polygon fill="#181818" points="259.4323,1227.7578,249.4323,1231.7578,259.4323,1235.7578,255.4323,1231.7578" style="stroke:#181818;stroke-width:1.0;"/><line style="stroke:#181818;stroke-width:1.0;stroke-dasharray:2.0,2.0;" x1="253.4323" x2="440.4325" y1="1231.7578" y2="1231.7578"/><text fill="#000000" font-family="sans-serif" font-size="13" lengthAdjust="spacing" textLength="78.0001" x="265.4323" y="1226.6919">&#26174;&#31034;&#20462;&#25913;&#32467;&#26524;</text><polygon fill="#181818" points="66.4321,1256.8906,56.4321,1260.8906,66.4321,1264.8906,62.4321,1260.8906" style="stroke:#181818;stroke-width:1.0;"/><line style="stroke:#181818;stroke-width:1.0;stroke-dasharray:2.0,2.0;" x1="60.4321" x2="247.4323" y1="1260.8906" y2="1260.8906"/><text fill="#000000" font-family="sans-serif" font-size="13" lengthAdjust="spacing" textLength="78.0001" x="72.4321" y="1255.8247">&#25552;&#31034;&#20462;&#25913;&#25104;&#21151;</text><line style="stroke:#000000;stroke-width:1.0;stroke-dasharray:2.0,2.0;" x1="10" x2="877.9378" y1="1269.8906" y2="1269.8906"/><text fill="#000000" font-family="sans-serif" font-size="11" font-weight="bold" lengthAdjust="spacing" textLength="131.0538" x="15" y="1280.1011">[&#31649;&#29702;&#21592;&#25191;&#34892;&#26597;&#35810;&#37197;&#32622;&#25805;&#20316;]</text><polygon fill="#181818" points="236.4323,1300.8281,246.4323,1304.8281,236.4323,1308.8281,240.4323,1304.8281" style="stroke:#181818;stroke-width:1.0;"/><line style="stroke:#181818;stroke-width:1.0;" x1="55.4321" x2="242.4323" y1="1304.8281" y2="1304.8281"/><text fill="#000000" font-family="sans-serif" font-size="13" lengthAdjust="spacing" textLength="78.0001" x="62.4321" y="1299.7622">&#36755;&#20837;&#26597;&#35810;&#26465;&#20214;</text><polygon fill="#181818" points="429.4325,1329.9609,439.4325,1333.9609,429.4325,1337.9609,433.4325,1333.9609" style="stroke:#181818;stroke-width:1.0;"/><line style="stroke:#181818;stroke-width:1.0;" x1="248.4323" x2="435.4325" y1="1333.9609" y2="1333.9609"/><text fill="#000000" font-family="sans-serif" font-size="13" lengthAdjust="spacing" textLength="78.0001" x="255.4323" y="1328.895">&#25552;&#20132;&#26597;&#35810;&#35831;&#27714;</text><polygon fill="#181818" points="622.4327,1359.0938,632.4327,1363.0938,622.4327,1367.0938,626.4327,1363.0938" style="stroke:#181818;stroke-width:1.0;"/><line style="stroke:#181818;stroke-width:1.0;" x1="441.4325" x2="628.4327" y1="1363.0938" y2="1363.0938"/><text fill="#000000" font-family="sans-serif" font-size="13" lengthAdjust="spacing" textLength="78.0001" x="448.4325" y="1358.0278">&#22788;&#29702;&#26597;&#35810;&#35831;&#27714;</text><polygon fill="#181818" points="789.4329,1388.2266,799.4329,1392.2266,789.4329,1396.2266,793.4329,1392.2266" style="stroke:#181818;stroke-width:1.0;"/><line style="stroke:#181818;stroke-width:1.0;" x1="634.4327" x2="795.4329" y1="1392.2266" y2="1392.2266"/><text fill="#000000" font-family="sans-serif" font-size="13" lengthAdjust="spacing" textLength="78.0001" x="641.4327" y="1387.1606">&#26597;&#35810;&#37197;&#32622;&#20449;&#24687;</text><polygon fill="#181818" points="645.4327,1417.3594,635.4327,1421.3594,645.4327,1425.3594,641.4327,1421.3594" style="stroke:#181818;stroke-width:1.0;"/><line style="stroke:#181818;stroke-width:1.0;stroke-dasharray:2.0,2.0;" x1="639.4327" x2="800.4329" y1="1421.3594" y2="1421.3594"/><text fill="#000000" font-family="sans-serif" font-size="13" lengthAdjust="spacing" textLength="78.0001" x="651.4327" y="1416.2935">&#36820;&#22238;&#26597;&#35810;&#32467;&#26524;</text><path d="M20,1436.3594 L84.4429,1436.3594 L84.4429,1443.4922 L74.4429,1453.4922 L20,1453.4922 L20,1436.3594 " fill="#EEEEEE" style="stroke:#000000;stroke-width:1.5;"/><rect fill="none" height="206.7344" style="stroke:#000000;stroke-width:1.5;" width="675.7628" x="20" y="1436.3594"/><text fill="#000000" font-family="sans-serif" font-size="13" font-weight="bold" lengthAdjust="spacing" textLength="19.4429" x="35" y="1449.4263">alt</text><text fill="#000000" font-family="sans-serif" font-size="11" font-weight="bold" lengthAdjust="spacing" textLength="98.0541" x="99.4429" y="1448.5698">[&#26597;&#35810;&#30340;&#37197;&#32622;&#19981;&#23384;&#22312;]</text><polygon fill="#181818" points="452.4325,1470.625,442.4325,1474.625,452.4325,1478.625,448.4325,1474.625" style="stroke:#181818;stroke-width:1.0;"/><line style="stroke:#181818;stroke-width:1.0;stroke-dasharray:2.0,2.0;" x1="446.4325" x2="633.4327" y1="1474.625" y2="1474.625"/><text fill="#000000" font-family="sans-serif" font-size="13" lengthAdjust="spacing" textLength="143.0002" x="458.4325" y="1469.5591">&#36820;&#22238;&#37197;&#32622;&#19981;&#23384;&#22312;&#38169;&#35823;&#20449;&#24687;</text><polygon fill="#181818" points="259.4323,1499.7578,249.4323,1503.7578,259.4323,1507.7578,255.4323,1503.7578" style="stroke:#181818;stroke-width:1.0;"/><line style="stroke:#181818;stroke-width:1.0;stroke-dasharray:2.0,2.0;" x1="253.4323" x2="440.4325" y1="1503.7578" y2="1503.7578"/><text fill="#000000" font-family="sans-serif" font-size="13" lengthAdjust="spacing" textLength="143.0002" x="265.4323" y="1498.6919">&#26174;&#31034;&#37197;&#32622;&#19981;&#23384;&#22312;&#38169;&#35823;&#20449;&#24687;</text><polygon fill="#181818" points="66.4321,1528.8906,56.4321,1532.8906,66.4321,1536.8906,62.4321,1532.8906" style="stroke:#181818;stroke-width:1.0;"/><line style="stroke:#181818;stroke-width:1.0;stroke-dasharray:2.0,2.0;" x1="60.4321" x2="247.4323" y1="1532.8906" y2="1532.8906"/><text fill="#000000" font-family="sans-serif" font-size="13" lengthAdjust="spacing" textLength="91.0001" x="72.4321" y="1527.8247">&#25552;&#31034;&#37197;&#32622;&#19981;&#23384;&#22312;</text><line style="stroke:#000000;stroke-width:1.0;stroke-dasharray:2.0,2.0;" x1="20" x2="695.7628" y1="1541.8906" y2="1541.8906"/><text fill="#000000" font-family="sans-serif" font-size="11" font-weight="bold" lengthAdjust="spacing" textLength="87.0542" x="25" y="1552.1011">[&#26597;&#35810;&#30340;&#37197;&#32622;&#23384;&#22312;]</text><polygon fill="#181818" points="452.4325,1572.8281,442.4325,1576.8281,452.4325,1580.8281,448.4325,1576.8281" style="stroke:#181818;stroke-width:1.0;"/><line style="stroke:#181818;stroke-width:1.0;stroke-dasharray:2.0,2.0;" x1="446.4325" x2="633.4327" y1="1576.8281" y2="1576.8281"/><text fill="#000000" font-family="sans-serif" font-size="13" lengthAdjust="spacing" textLength="78.0001" x="458.4325" y="1571.7622">&#36820;&#22238;&#26597;&#35810;&#32467;&#26524;</text><polygon fill="#181818" points="259.4323,1601.9609,249.4323,1605.9609,259.4323,1609.9609,255.4323,1605.9609" style="stroke:#181818;stroke-width:1.0;"/><line style="stroke:#181818;stroke-width:1.0;stroke-dasharray:2.0,2.0;" x1="253.4323" x2="440.4325" y1="1605.9609" y2="1605.9609"/><text fill="#000000" font-family="sans-serif" font-size="13" lengthAdjust="spacing" textLength="78.0001" x="265.4323" y="1600.895">&#26174;&#31034;&#26597;&#35810;&#32467;&#26524;</text><polygon fill="#181818" points="66.4321,1631.0938,56.4321,1635.0938,66.4321,1639.0938,62.4321,1635.0938" style="stroke:#181818;stroke-width:1.0;"/><line style="stroke:#181818;stroke-width:1.0;stroke-dasharray:2.0,2.0;" x1="60.4321" x2="247.4323" y1="1635.0938" y2="1635.0938"/><text fill="#000000" font-family="sans-serif" font-size="13" lengthAdjust="spacing" textLength="78.0001" x="72.4321" y="1630.0278">&#25552;&#31034;&#26597;&#35810;&#25104;&#21151;</text><line style="stroke:#000000;stroke-width:1.0;stroke-dasharray:2.0,2.0;" x1="10" x2="877.9378" y1="1651.0938" y2="1651.0938"/><text fill="#000000" font-family="sans-serif" font-size="11" font-weight="bold" lengthAdjust="spacing" textLength="131.0538" x="15" y="1661.3042">[&#31649;&#29702;&#21592;&#25191;&#34892;&#35282;&#33394;&#20998;&#37197;&#25805;&#20316;]</text><polygon fill="#181818" points="236.4323,1682.0313,246.4323,1686.0313,236.4323,1690.0313,240.4323,1686.0313" style="stroke:#181818;stroke-width:1.0;"/><line style="stroke:#181818;stroke-width:1.0;" x1="55.4321" x2="242.4323" y1="1686.0313" y2="1686.0313"/><text fill="#000000" font-family="sans-serif" font-size="13" lengthAdjust="spacing" textLength="169.0002" x="62.4321" y="1680.9653">&#36873;&#25321;&#37197;&#32622;&#24182;&#25552;&#20132;&#35282;&#33394;&#20998;&#37197;&#35831;&#27714;</text><polygon fill="#181818" points="429.4325,1711.1641,439.4325,1715.1641,429.4325,1719.1641,433.4325,1715.1641" style="stroke:#181818;stroke-width:1.0;"/><line style="stroke:#181818;stroke-width:1.0;" x1="248.4323" x2="435.4325" y1="1715.1641" y2="1715.1641"/><text fill="#000000" font-family="sans-serif" font-size="13" lengthAdjust="spacing" textLength="104.0001" x="255.4323" y="1710.0981">&#25552;&#20132;&#35282;&#33394;&#20998;&#37197;&#35831;&#27714;</text><polygon fill="#181818" points="622.4327,1740.2969,632.4327,1744.2969,622.4327,1748.2969,626.4327,1744.2969" style="stroke:#181818;stroke-width:1.0;"/><line style="stroke:#181818;stroke-width:1.0;" x1="441.4325" x2="628.4327" y1="1744.2969" y2="1744.2969"/><text fill="#000000" font-family="sans-serif" font-size="13" lengthAdjust="spacing" textLength="104.0001" x="448.4325" y="1739.231">&#22788;&#29702;&#35282;&#33394;&#20998;&#37197;&#35831;&#27714;</text><polygon fill="#181818" points="789.4329,1769.4297,799.4329,1773.4297,789.4329,1777.4297,793.4329,1773.4297" style="stroke:#181818;stroke-width:1.0;"/><line style="stroke:#181818;stroke-width:1.0;" x1="634.4327" x2="795.4329" y1="1773.4297" y2="1773.4297"/><text fill="#000000" font-family="sans-serif" font-size="13" lengthAdjust="spacing" textLength="117.0001" x="641.4327" y="1768.3638">&#26356;&#26032;&#37197;&#32622;&#30340;&#35282;&#33394;&#20998;&#37197;</text><polygon fill="#181818" points="645.4327,1798.5625,635.4327,1802.5625,645.4327,1806.5625,641.4327,1802.5625" style="stroke:#181818;stroke-width:1.0;"/><line style="stroke:#181818;stroke-width:1.0;stroke-dasharray:2.0,2.0;" x1="639.4327" x2="800.4329" y1="1802.5625" y2="1802.5625"/><text fill="#000000" font-family="sans-serif" font-size="13" lengthAdjust="spacing" textLength="104.0001" x="651.4327" y="1797.4966">&#36820;&#22238;&#35282;&#33394;&#20998;&#37197;&#32467;&#26524;</text><polygon fill="#181818" points="452.4325,1827.6953,442.4325,1831.6953,452.4325,1835.6953,448.4325,1831.6953" style="stroke:#181818;stroke-width:1.0;"/><line style="stroke:#181818;stroke-width:1.0;stroke-dasharray:2.0,2.0;" x1="446.4325" x2="633.4327" y1="1831.6953" y2="1831.6953"/><text fill="#000000" font-family="sans-serif" font-size="13" lengthAdjust="spacing" textLength="104.0001" x="458.4325" y="1826.6294">&#36820;&#22238;&#35282;&#33394;&#20998;&#37197;&#32467;&#26524;</text><polygon fill="#181818" points="259.4323,1856.8281,249.4323,1860.8281,259.4323,1864.8281,255.4323,1860.8281" style="stroke:#181818;stroke-width:1.0;"/><line style="stroke:#181818;stroke-width:1.0;stroke-dasharray:2.0,2.0;" x1="253.4323" x2="440.4325" y1="1860.8281" y2="1860.8281"/><text fill="#000000" font-family="sans-serif" font-size="13" lengthAdjust="spacing" textLength="104.0001" x="265.4323" y="1855.7622">&#26174;&#31034;&#35282;&#33394;&#20998;&#37197;&#32467;&#26524;</text><polygon fill="#181818" points="66.4321,1885.9609,56.4321,1889.9609,66.4321,1893.9609,62.4321,1889.9609" style="stroke:#181818;stroke-width:1.0;"/><line style="stroke:#181818;stroke-width:1.0;stroke-dasharray:2.0,2.0;" x1="60.4321" x2="247.4323" y1="1889.9609" y2="1889.9609"/><text fill="#000000" font-family="sans-serif" font-size="13" lengthAdjust="spacing" textLength="104.0001" x="72.4321" y="1884.895">&#25552;&#31034;&#35282;&#33394;&#20998;&#37197;&#25104;&#21151;</text><!--SRC=[dPP1Rjf0543tFeKlq0jaKQdosb8a3b0vu4H8O4kEMwcxjY8HfAMXXKGa92H69BIBOXAbeKcKS1dFsBv5npE63fu_fYaRXEVzyVzl_dnX55tRKL-LgcLBsR3VM2N3UQTgjhLPtj8DozWogwRbhfDlrTXMDNrTATgMwzYLbD7Ohuhfq7KjirmmdRVb8eijA2N3DJQCRLEjqfrV5ocJBEgQej0Sr1SlaxUigT6iXtOkufrc-3WEnrxOseszN_7fG26h5D88uq_nrKUUmGSJt1mhcaQH0a6-JD7-8OGK4aGdk-2pYyWV08XETfblC-kWNb-opJmRAPFkavI5kq_Xy1w2ah88HIsigUZg8CEbvIj6nLNP4_IrYnkZoFkC1dsqTyvWt6u6ZoUAIZuPeKzj8XGVJWZDq63cuGy-HJcfUByLt0zvZcbct48i6jQIv2KOA1Urck5eWhi-QbsYwJNwsKKdtoalc6PXuKCRzrajITNyBilnytS29v71uyvHvFjSvVEge0FwfzZbSoFsPE4qnAoGzkUNWzzDe91K7cTtiIoweXJd2hG1KqBXC0RLo4XSRw6zCrQQLL9eUTdkh9_7HyCLtHc_R-1FFr8nTxUi2LaatrVPDXM9J8EAmC8kdnVSXOpWP0XMHK8mAYAGJKQbDY6BmMoCEtV_Ov55vbaKYOn54LXOvFFYheRWad5vBaL2S2aYa4j6vRZaXzAgUKbHVEe53xUIIKc9l1af0E1qp9C7ZiFquN4jZGS72J0H5-2pPk6AAFaKNCwB7aScyrLf2zLBHXU8WQEB7UhgqHMDlaMDQrJV9Oa-xzBnaNbNJyPbUaY6_UsatWqPoEd_XUCQpyCjnHDvjrB62Vfb87G0IrxJUsgL_W00]--></g></svg>