<svg xmlns="http://www.w3.org/2000/svg" xmlns:xlink="http://www.w3.org/1999/xlink" contentStyleType="text/css" height="842px" preserveAspectRatio="none" style="width:463px;height:842px;background:#FFFFFF;" version="1.1" viewBox="0 0 463 842" width="463px" zoomAndPan="magnify"><defs/><g><ellipse cx="219.0009" cy="20" fill="#222222" rx="10" ry="10" style="stroke:#222222;stroke-width:1.0;"/><rect fill="#F1F1F1" height="33.9688" rx="12.5" ry="12.5" style="stroke:#181818;stroke-width:0.5;" width="116.0007" x="161.0005" y="50"/><text fill="#000000" font-family="sans-serif" font-size="12" lengthAdjust="spacing" textLength="96.0007" x="171.0005" y="71.1387">&#30331;&#24405;&#20026;&#31649;&#29702;&#21592;&#36134;&#21495;</text><rect fill="#F1F1F1" height="33.9688" rx="12.5" ry="12.5" style="stroke:#181818;stroke-width:0.5;" width="140.0009" x="149.0004" y="152.3711"/><text fill="#000000" font-family="sans-serif" font-size="12" lengthAdjust="spacing" textLength="120.0009" x="159.0004" y="173.5098">&#23545;&#34920;&#21333;&#30340;&#22686;&#21024;&#25913;&#26597;&#25805;&#20316;</text><polygon fill="#F1F1F1" points="186.0011,103.9688,252.0006,103.9688,264.0006,115.9688,252.0006,127.9688,186.0011,127.9688,174.0011,115.9688,186.0011,103.9688" style="stroke:#181818;stroke-width:0.5;"/><text fill="#000000" font-family="sans-serif" font-size="11" lengthAdjust="spacing" textLength="6.7192" x="223.0009" y="138.1792">Y</text><text fill="#000000" font-family="sans-serif" font-size="11" lengthAdjust="spacing" textLength="65.9995" x="186.0011" y="119.7769">&#26159;&#21542;&#31649;&#29702;&#34920;&#21333;</text><text fill="#000000" font-family="sans-serif" font-size="11" lengthAdjust="spacing" textLength="8.2285" x="264.0006" y="113.3745">N</text><polygon fill="#F1F1F1" points="219.0009,206.3398,231.0009,218.3398,219.0009,230.3398,207.0009,218.3398,219.0009,206.3398" style="stroke:#181818;stroke-width:0.5;"/><rect fill="#555555" height="6" rx="2.5" ry="2.5" style="stroke:#555555;stroke-width:1.0;" width="416.0017" x="11" y="298.7422"/><rect fill="#F1F1F1" height="33.9688" rx="12.5" ry="12.5" style="stroke:#181818;stroke-width:0.5;" width="104.0006" x="23" y="324.7422"/><text fill="#000000" font-family="sans-serif" font-size="12" lengthAdjust="spacing" textLength="84.0006" x="33" y="345.8809">&#20026;&#29992;&#25143;&#36171;&#20104;&#35282;&#33394;</text><rect fill="#F1F1F1" height="33.9688" rx="12.5" ry="12.5" style="stroke:#181818;stroke-width:0.5;" width="68.0004" x="155.0006" y="324.7422"/><text fill="#000000" font-family="sans-serif" font-size="12" lengthAdjust="spacing" textLength="48.0004" x="165.0006" y="345.8809">&#21024;&#38500;&#29992;&#25143;</text><rect fill="#F1F1F1" height="33.9688" rx="12.5" ry="12.5" style="stroke:#181818;stroke-width:0.5;" width="68.0004" x="251.001" y="324.7422"/><text fill="#000000" font-family="sans-serif" font-size="12" lengthAdjust="spacing" textLength="48.0004" x="261.001" y="345.8809">&#20923;&#32467;&#29992;&#25143;</text><rect fill="#F1F1F1" height="33.9688" rx="12.5" ry="12.5" style="stroke:#181818;stroke-width:0.5;" width="68.0004" x="347.0014" y="324.7422"/><text fill="#000000" font-family="sans-serif" font-size="12" lengthAdjust="spacing" textLength="48.0004" x="357.0014" y="345.8809">&#26597;&#25214;&#29992;&#25143;</text><polygon fill="#F1F1F1" points="219.0009,368.7109,231.0009,380.7109,219.0009,392.7109,207.0009,380.7109,219.0009,368.7109" style="stroke:#181818;stroke-width:0.5;"/><polygon fill="#F1F1F1" points="186.0011,250.3398,252.0006,250.3398,264.0006,262.3398,252.0006,274.3398,186.0011,274.3398,174.0011,262.3398,186.0011,250.3398" style="stroke:#181818;stroke-width:0.5;"/><text fill="#000000" font-family="sans-serif" font-size="11" lengthAdjust="spacing" textLength="6.7192" x="223.0009" y="284.5503">Y</text><text fill="#000000" font-family="sans-serif" font-size="11" lengthAdjust="spacing" textLength="65.9995" x="186.0011" y="266.1479">&#26159;&#21542;&#31649;&#29702;&#29992;&#25143;</text><text fill="#000000" font-family="sans-serif" font-size="11" lengthAdjust="spacing" textLength="8.2285" x="264.0006" y="259.7456">N</text><polygon fill="#F1F1F1" points="219.0009,412.7109,231.0009,424.7109,219.0009,436.7109,207.0009,424.7109,219.0009,412.7109" style="stroke:#181818;stroke-width:0.5;"/><rect fill="#F1F1F1" height="33.9688" rx="12.5" ry="12.5" style="stroke:#181818;stroke-width:0.5;" width="140.0009" x="149.0004" y="505.1133"/><text fill="#000000" font-family="sans-serif" font-size="12" lengthAdjust="spacing" textLength="120.0009" x="159.0004" y="526.252">&#23545;&#35282;&#33394;&#30340;&#22686;&#21024;&#25913;&#26597;&#25805;&#20316;</text><polygon fill="#F1F1F1" points="186.0011,456.7109,252.0006,456.7109,264.0006,468.7109,252.0006,480.7109,186.0011,480.7109,174.0011,468.7109,186.0011,456.7109" style="stroke:#181818;stroke-width:0.5;"/><text fill="#000000" font-family="sans-serif" font-size="11" lengthAdjust="spacing" textLength="6.7192" x="223.0009" y="490.9214">Y</text><text fill="#000000" font-family="sans-serif" font-size="11" lengthAdjust="spacing" textLength="65.9995" x="186.0011" y="472.519">&#26159;&#21542;&#31649;&#29702;&#35282;&#33394;</text><text fill="#000000" font-family="sans-serif" font-size="11" lengthAdjust="spacing" textLength="8.2285" x="264.0006" y="466.1167">N</text><polygon fill="#F1F1F1" points="219.0009,559.082,231.0009,571.082,219.0009,583.082,207.0009,571.082,219.0009,559.082" style="stroke:#181818;stroke-width:0.5;"/><rect fill="#555555" height="6" rx="2.5" ry="2.5" style="stroke:#555555;stroke-width:1.0;" width="264.0013" x="87.0002" y="651.4844"/><rect fill="#F1F1F1" height="33.9688" rx="12.5" ry="12.5" style="stroke:#181818;stroke-width:0.5;" width="104.0006" x="101.0002" y="677.4844"/><text fill="#000000" font-family="sans-serif" font-size="12" lengthAdjust="spacing" textLength="84.0006" x="111.0002" y="698.623">&#27969;&#31243;&#30340;&#22686;&#21024;&#25913;&#26597;</text><rect fill="#F1F1F1" height="33.9688" rx="12.5" ry="12.5" style="stroke:#181818;stroke-width:0.5;" width="104.0006" x="233.0009" y="677.4844"/><text fill="#000000" font-family="sans-serif" font-size="12" lengthAdjust="spacing" textLength="84.0006" x="243.0009" y="698.623">&#20026;&#27969;&#31243;&#20998;&#37197;&#35282;&#33394;</text><polygon fill="#F1F1F1" points="219.0009,721.4531,231.0009,733.4531,219.0009,745.4531,207.0009,733.4531,219.0009,721.4531" style="stroke:#181818;stroke-width:0.5;"/><polygon fill="#F1F1F1" points="186.0011,603.082,252.0006,603.082,264.0006,615.082,252.0006,627.082,186.0011,627.082,174.0011,615.082,186.0011,603.082" style="stroke:#181818;stroke-width:0.5;"/><text fill="#000000" font-family="sans-serif" font-size="11" lengthAdjust="spacing" textLength="6.7192" x="223.0009" y="637.2925">Y</text><text fill="#000000" font-family="sans-serif" font-size="11" lengthAdjust="spacing" textLength="65.9995" x="186.0011" y="618.8901">&#26159;&#21542;&#31649;&#29702;&#27969;&#31243;</text><text fill="#000000" font-family="sans-serif" font-size="11" lengthAdjust="spacing" textLength="8.2285" x="264.0006" y="612.4878">N</text><polygon fill="#F1F1F1" points="219.0009,765.4531,231.0009,777.4531,219.0009,789.4531,207.0009,777.4531,219.0009,765.4531" style="stroke:#181818;stroke-width:0.5;"/><ellipse cx="219.0009" cy="820.4531" fill="none" rx="11" ry="11" style="stroke:#222222;stroke-width:1.0;"/><ellipse cx="219.0009" cy="820.4531" fill="#222222" rx="6" ry="6" style="stroke:#222222;stroke-width:1.0;"/><line style="stroke:#181818;stroke-width:1.0;" x1="219.0009" x2="219.0009" y1="30" y2="50"/><polygon fill="#181818" points="215.0009,40,219.0009,50,223.0009,40,219.0009,44" style="stroke:#181818;stroke-width:1.0;"/><line style="stroke:#181818;stroke-width:1.0;" x1="219.0009" x2="219.0009" y1="127.9688" y2="152.3711"/><polygon fill="#181818" points="215.0009,142.3711,219.0009,152.3711,223.0009,142.3711,219.0009,146.3711" style="stroke:#181818;stroke-width:1.0;"/><line style="stroke:#181818;stroke-width:1.0;" x1="264.0006" x2="299.0013" y1="115.9688" y2="115.9688"/><polygon fill="#181818" points="295.0013,159.3555,299.0013,169.3555,303.0013,159.3555,299.0013,163.3555" style="stroke:#181818;stroke-width:1.0;"/><line style="stroke:#181818;stroke-width:1.0;" x1="299.0013" x2="299.0013" y1="115.9688" y2="218.3398"/><line style="stroke:#181818;stroke-width:1.0;" x1="299.0013" x2="231.0009" y1="218.3398" y2="218.3398"/><polygon fill="#181818" points="241.0009,214.3398,231.0009,218.3398,241.0009,222.3398,237.0009,218.3398" style="stroke:#181818;stroke-width:1.0;"/><line style="stroke:#181818;stroke-width:1.0;" x1="219.0009" x2="219.0009" y1="186.3398" y2="206.3398"/><polygon fill="#181818" points="215.0009,196.3398,219.0009,206.3398,223.0009,196.3398,219.0009,200.3398" style="stroke:#181818;stroke-width:1.0;"/><line style="stroke:#181818;stroke-width:1.0;" x1="219.0009" x2="219.0009" y1="83.9688" y2="103.9688"/><polygon fill="#181818" points="215.0009,93.9688,219.0009,103.9688,223.0009,93.9688,219.0009,97.9688" style="stroke:#181818;stroke-width:1.0;"/><line style="stroke:#181818;stroke-width:1.0;" x1="75.0003" x2="75.0003" y1="304.7422" y2="324.7422"/><polygon fill="#181818" points="71.0003,314.7422,75.0003,324.7422,79.0003,314.7422,75.0003,318.7422" style="stroke:#181818;stroke-width:1.0;"/><line style="stroke:#181818;stroke-width:1.0;" x1="189.0008" x2="189.0008" y1="304.7422" y2="324.7422"/><polygon fill="#181818" points="185.0008,314.7422,189.0008,324.7422,193.0008,314.7422,189.0008,318.7422" style="stroke:#181818;stroke-width:1.0;"/><line style="stroke:#181818;stroke-width:1.0;" x1="285.0012" x2="285.0012" y1="304.7422" y2="324.7422"/><polygon fill="#181818" points="281.0012,314.7422,285.0012,324.7422,289.0012,314.7422,285.0012,318.7422" style="stroke:#181818;stroke-width:1.0;"/><line style="stroke:#181818;stroke-width:1.0;" x1="381.0016" x2="381.0016" y1="304.7422" y2="324.7422"/><polygon fill="#181818" points="377.0016,314.7422,381.0016,324.7422,385.0016,314.7422,381.0016,318.7422" style="stroke:#181818;stroke-width:1.0;"/><line style="stroke:#181818;stroke-width:1.0;" x1="75.0003" x2="75.0003" y1="358.7109" y2="380.7109"/><line style="stroke:#181818;stroke-width:1.0;" x1="75.0003" x2="207.0009" y1="380.7109" y2="380.7109"/><polygon fill="#181818" points="197.0009,376.7109,207.0009,380.7109,197.0009,384.7109,201.0009,380.7109" style="stroke:#181818;stroke-width:1.0;"/><line style="stroke:#181818;stroke-width:1.0;" x1="189.0008" x2="189.0008" y1="358.7109" y2="380.7109"/><line style="stroke:#181818;stroke-width:1.0;" x1="189.0008" x2="207.0009" y1="380.7109" y2="380.7109"/><polygon fill="#181818" points="197.0009,376.7109,207.0009,380.7109,197.0009,384.7109,201.0009,380.7109" style="stroke:#181818;stroke-width:1.0;"/><line style="stroke:#181818;stroke-width:1.0;" x1="285.0012" x2="285.0012" y1="358.7109" y2="380.7109"/><line style="stroke:#181818;stroke-width:1.0;" x1="285.0012" x2="231.0009" y1="380.7109" y2="380.7109"/><polygon fill="#181818" points="241.0009,376.7109,231.0009,380.7109,241.0009,384.7109,237.0009,380.7109" style="stroke:#181818;stroke-width:1.0;"/><line style="stroke:#181818;stroke-width:1.0;" x1="381.0016" x2="381.0016" y1="358.7109" y2="380.7109"/><line style="stroke:#181818;stroke-width:1.0;" x1="381.0016" x2="231.0009" y1="380.7109" y2="380.7109"/><polygon fill="#181818" points="241.0009,376.7109,231.0009,380.7109,241.0009,384.7109,237.0009,380.7109" style="stroke:#181818;stroke-width:1.0;"/><line style="stroke:#181818;stroke-width:1.0;" x1="219.0009" x2="219.0009" y1="274.3398" y2="298.7422"/><polygon fill="#181818" points="215.0009,288.7422,219.0009,298.7422,223.0009,288.7422,219.0009,292.7422" style="stroke:#181818;stroke-width:1.0;"/><line style="stroke:#181818;stroke-width:1.0;" x1="264.0006" x2="437.0017" y1="262.3398" y2="262.3398"/><polygon fill="#181818" points="433.0017,340.7266,437.0017,350.7266,441.0017,340.7266,437.0017,344.7266" style="stroke:#181818;stroke-width:1.0;"/><line style="stroke:#181818;stroke-width:1.0;" x1="437.0017" x2="437.0017" y1="262.3398" y2="424.7109"/><line style="stroke:#181818;stroke-width:1.0;" x1="437.0017" x2="231.0009" y1="424.7109" y2="424.7109"/><polygon fill="#181818" points="241.0009,420.7109,231.0009,424.7109,241.0009,428.7109,237.0009,424.7109" style="stroke:#181818;stroke-width:1.0;"/><line style="stroke:#181818;stroke-width:1.0;" x1="219.0009" x2="219.0009" y1="392.7109" y2="412.7109"/><polygon fill="#181818" points="215.0009,402.7109,219.0009,412.7109,223.0009,402.7109,219.0009,406.7109" style="stroke:#181818;stroke-width:1.0;"/><line style="stroke:#181818;stroke-width:1.0;" x1="219.0009" x2="219.0009" y1="230.3398" y2="250.3398"/><polygon fill="#181818" points="215.0009,240.3398,219.0009,250.3398,223.0009,240.3398,219.0009,244.3398" style="stroke:#181818;stroke-width:1.0;"/><line style="stroke:#181818;stroke-width:1.0;" x1="219.0009" x2="219.0009" y1="480.7109" y2="505.1133"/><polygon fill="#181818" points="215.0009,495.1133,219.0009,505.1133,223.0009,495.1133,219.0009,499.1133" style="stroke:#181818;stroke-width:1.0;"/><line style="stroke:#181818;stroke-width:1.0;" x1="264.0006" x2="299.0013" y1="468.7109" y2="468.7109"/><polygon fill="#181818" points="295.0013,512.0977,299.0013,522.0977,303.0013,512.0977,299.0013,516.0977" style="stroke:#181818;stroke-width:1.0;"/><line style="stroke:#181818;stroke-width:1.0;" x1="299.0013" x2="299.0013" y1="468.7109" y2="571.082"/><line style="stroke:#181818;stroke-width:1.0;" x1="299.0013" x2="231.0009" y1="571.082" y2="571.082"/><polygon fill="#181818" points="241.0009,567.082,231.0009,571.082,241.0009,575.082,237.0009,571.082" style="stroke:#181818;stroke-width:1.0;"/><line style="stroke:#181818;stroke-width:1.0;" x1="219.0009" x2="219.0009" y1="539.082" y2="559.082"/><polygon fill="#181818" points="215.0009,549.082,219.0009,559.082,223.0009,549.082,219.0009,553.082" style="stroke:#181818;stroke-width:1.0;"/><line style="stroke:#181818;stroke-width:1.0;" x1="219.0009" x2="219.0009" y1="436.7109" y2="456.7109"/><polygon fill="#181818" points="215.0009,446.7109,219.0009,456.7109,223.0009,446.7109,219.0009,450.7109" style="stroke:#181818;stroke-width:1.0;"/><line style="stroke:#181818;stroke-width:1.0;" x1="153.0005" x2="153.0005" y1="657.4844" y2="677.4844"/><polygon fill="#181818" points="149.0005,667.4844,153.0005,677.4844,157.0005,667.4844,153.0005,671.4844" style="stroke:#181818;stroke-width:1.0;"/><line style="stroke:#181818;stroke-width:1.0;" x1="285.0012" x2="285.0012" y1="657.4844" y2="677.4844"/><polygon fill="#181818" points="281.0012,667.4844,285.0012,677.4844,289.0012,667.4844,285.0012,671.4844" style="stroke:#181818;stroke-width:1.0;"/><line style="stroke:#181818;stroke-width:1.0;" x1="153.0005" x2="153.0005" y1="711.4531" y2="733.4531"/><line style="stroke:#181818;stroke-width:1.0;" x1="153.0005" x2="207.0009" y1="733.4531" y2="733.4531"/><polygon fill="#181818" points="197.0009,729.4531,207.0009,733.4531,197.0009,737.4531,201.0009,733.4531" style="stroke:#181818;stroke-width:1.0;"/><line style="stroke:#181818;stroke-width:1.0;" x1="285.0012" x2="285.0012" y1="711.4531" y2="733.4531"/><line style="stroke:#181818;stroke-width:1.0;" x1="285.0012" x2="231.0009" y1="733.4531" y2="733.4531"/><polygon fill="#181818" points="241.0009,729.4531,231.0009,733.4531,241.0009,737.4531,237.0009,733.4531" style="stroke:#181818;stroke-width:1.0;"/><line style="stroke:#181818;stroke-width:1.0;" x1="219.0009" x2="219.0009" y1="627.082" y2="651.4844"/><polygon fill="#181818" points="215.0009,641.4844,219.0009,651.4844,223.0009,641.4844,219.0009,645.4844" style="stroke:#181818;stroke-width:1.0;"/><line style="stroke:#181818;stroke-width:1.0;" x1="264.0006" x2="361.0015" y1="615.082" y2="615.082"/><polygon fill="#181818" points="357.0015,693.4688,361.0015,703.4688,365.0015,693.4688,361.0015,697.4688" style="stroke:#181818;stroke-width:1.0;"/><line style="stroke:#181818;stroke-width:1.0;" x1="361.0015" x2="361.0015" y1="615.082" y2="777.4531"/><line style="stroke:#181818;stroke-width:1.0;" x1="361.0015" x2="231.0009" y1="777.4531" y2="777.4531"/><polygon fill="#181818" points="241.0009,773.4531,231.0009,777.4531,241.0009,781.4531,237.0009,777.4531" style="stroke:#181818;stroke-width:1.0;"/><line style="stroke:#181818;stroke-width:1.0;" x1="219.0009" x2="219.0009" y1="745.4531" y2="765.4531"/><polygon fill="#181818" points="215.0009,755.4531,219.0009,765.4531,223.0009,755.4531,219.0009,759.4531" style="stroke:#181818;stroke-width:1.0;"/><line style="stroke:#181818;stroke-width:1.0;" x1="219.0009" x2="219.0009" y1="583.082" y2="603.082"/><polygon fill="#181818" points="215.0009,593.082,219.0009,603.082,223.0009,593.082,219.0009,597.082" style="stroke:#181818;stroke-width:1.0;"/><line style="stroke:#181818;stroke-width:1.0;" x1="219.0009" x2="219.0009" y1="789.4531" y2="809.4531"/><polygon fill="#181818" points="215.0009,799.4531,219.0009,809.4531,223.0009,799.4531,219.0009,803.4531" style="stroke:#181818;stroke-width:1.0;"/><!--SRC=[Aov9B2hXide-S_VJlLEVxDZrVDt2vnFQdawSyMBBigVzswsvCjCqdirO_tJ2CeZCYuKhdlPErIp9ICtJYDJaKb2mUhf-9qJm-QoMfulcFUrOy6pApcVpbpwRtFjaxnnhhjISubGDFqskrBoKp3HquvvFMV6iOpkISMdvHTb02cWko35WsHTRkv_iwdYnVDABpatMK2KAYUc9cNaGXK0RNyvS0b6BLRvjz_FTat7BWzpQkGyX3tIeGcvgKNegVgT378GU4c11SaBYsTR6vokwiOO4H0hDK6m-0GOPHEtJZhQNhRs88CFbfUAI_080]--></g></svg>