<svg xmlns="http://www.w3.org/2000/svg" xmlns:xlink="http://www.w3.org/1999/xlink" contentStyleType="text/css" height="1670px" preserveAspectRatio="none" style="width:707px;height:1670px;background:#FFFFFF;" version="1.1" viewBox="0 0 707 1670" width="707px" zoomAndPan="magnify"><defs/><g><rect fill="none" height="1241.6641" style="stroke:#000000;stroke-width:1.5;" width="690.6543" x="10" y="331.3594"/><line style="stroke:#181818;stroke-width:0.5;stroke-dasharray:5.0,5.0;" x1="45" x2="45" y1="81.2969" y2="1590.0234"/><line style="stroke:#181818;stroke-width:0.5;stroke-dasharray:5.0,5.0;" x1="238.1047" x2="238.1047" y1="81.2969" y2="1590.0234"/><line style="stroke:#181818;stroke-width:0.5;stroke-dasharray:5.0,5.0;" x1="383.76" x2="383.76" y1="81.2969" y2="1590.0234"/><line style="stroke:#181818;stroke-width:0.5;stroke-dasharray:5.0,5.0;" x1="511.4759" x2="511.4759" y1="81.2969" y2="1590.0234"/><line style="stroke:#181818;stroke-width:0.5;stroke-dasharray:5.0,5.0;" x1="639.9492" x2="639.9492" y1="81.2969" y2="1590.0234"/><text fill="#000000" font-family="sans-serif" font-size="14" lengthAdjust="spacing" textLength="44.8643" x="20" y="77.9951">Admin</text><ellipse cx="45.4321" cy="13.5" fill="#E2E2F0" rx="8" ry="8" style="stroke:#181818;stroke-width:0.5;"/><path d="M45.4321,21.5 L45.4321,48.5 M32.4321,29.5 L58.4321,29.5 M45.4321,48.5 L32.4321,63.5 M45.4321,48.5 L58.4321,63.5 " fill="none" style="stroke:#181818;stroke-width:0.5;"/><text fill="#000000" font-family="sans-serif" font-size="14" lengthAdjust="spacing" textLength="44.8643" x="20" y="1602.0186">Admin</text><ellipse cx="45.4321" cy="1613.8203" fill="#E2E2F0" rx="8" ry="8" style="stroke:#181818;stroke-width:0.5;"/><path d="M45.4321,1621.8203 L45.4321,1648.8203 M32.4321,1629.8203 L58.4321,1629.8203 M45.4321,1648.8203 L32.4321,1663.8203 M45.4321,1648.8203 L58.4321,1663.8203 " fill="none" style="stroke:#181818;stroke-width:0.5;"/><text fill="#000000" font-family="sans-serif" font-size="14" lengthAdjust="spacing" textLength="158.6553" x="156.1047" y="77.9951">UserManagementPage</text><path d="M217.9323,37 L217.9323,61 M217.9323,49 L234.9323,49 " fill="none" style="stroke:#181818;stroke-width:0.5;"/><ellipse cx="246.9323" cy="49" fill="#E2E2F0" rx="12" ry="12" style="stroke:#181818;stroke-width:0.5;"/><text fill="#000000" font-family="sans-serif" font-size="14" lengthAdjust="spacing" textLength="158.6553" x="156.1047" y="1602.0186">UserManagementPage</text><path d="M217.9323,1609.3203 L217.9323,1633.3203 M217.9323,1621.3203 L234.9323,1621.3203 " fill="none" style="stroke:#181818;stroke-width:0.5;"/><ellipse cx="246.9323" cy="1621.3203" fill="#E2E2F0" rx="12" ry="12" style="stroke:#181818;stroke-width:0.5;"/><text fill="#000000" font-family="sans-serif" font-size="14" lengthAdjust="spacing" textLength="101.083" x="330.76" y="77.9951">UserController</text><ellipse cx="384.3015" cy="49" fill="#E2E2F0" rx="12" ry="12" style="stroke:#181818;stroke-width:0.5;"/><polygon fill="#181818" points="380.3015,37,386.3015,32,384.3015,37,386.3015,42,380.3015,37" style="stroke:#181818;stroke-width:1.0;"/><text fill="#000000" font-family="sans-serif" font-size="14" lengthAdjust="spacing" textLength="101.083" x="330.76" y="1602.0186">UserController</text><ellipse cx="384.3015" cy="1621.3203" fill="#E2E2F0" rx="12" ry="12" style="stroke:#181818;stroke-width:0.5;"/><polygon fill="#181818" points="380.3015,1609.3203,386.3015,1604.3203,384.3015,1609.3203,386.3015,1614.3203,380.3015,1609.3203" style="stroke:#181818;stroke-width:1.0;"/><text fill="#000000" font-family="sans-serif" font-size="14" lengthAdjust="spacing" textLength="83.6514" x="467.4759" y="77.9951">UserService</text><ellipse cx="512.3016" cy="49" fill="#E2E2F0" rx="12" ry="12" style="stroke:#181818;stroke-width:0.5;"/><polygon fill="#181818" points="508.3016,37,514.3016,32,512.3016,37,514.3016,42,508.3016,37" style="stroke:#181818;stroke-width:1.0;"/><text fill="#000000" font-family="sans-serif" font-size="14" lengthAdjust="spacing" textLength="83.6514" x="467.4759" y="1602.0186">UserService</text><ellipse cx="512.3016" cy="1621.3203" fill="#E2E2F0" rx="12" ry="12" style="stroke:#181818;stroke-width:0.5;"/><polygon fill="#181818" points="508.3016,1609.3203,514.3016,1604.3203,512.3016,1609.3203,514.3016,1614.3203,508.3016,1609.3203" style="stroke:#181818;stroke-width:1.0;"/><text fill="#000000" font-family="sans-serif" font-size="14" lengthAdjust="spacing" textLength="94.7051" x="589.9492" y="77.9951">manage_user</text><path d="M622.3017,29 C622.3017,19 640.3017,19 640.3017,19 C640.3017,19 658.3017,19 658.3017,29 L658.3017,55 C658.3017,65 640.3017,65 640.3017,65 C640.3017,65 622.3017,65 622.3017,55 L622.3017,29 " fill="#E2E2F0" style="stroke:#181818;stroke-width:1.5;"/><path d="M622.3017,29 C622.3017,39 640.3017,39 640.3017,39 C640.3017,39 658.3017,39 658.3017,29 " fill="none" style="stroke:#181818;stroke-width:1.5;"/><text fill="#000000" font-family="sans-serif" font-size="14" lengthAdjust="spacing" textLength="94.7051" x="589.9492" y="1602.0186">manage_user</text><path d="M622.3017,1615.3203 C622.3017,1605.3203 640.3017,1605.3203 640.3017,1605.3203 C640.3017,1605.3203 658.3017,1605.3203 658.3017,1615.3203 L658.3017,1641.3203 C658.3017,1651.3203 640.3017,1651.3203 640.3017,1651.3203 C640.3017,1651.3203 622.3017,1651.3203 622.3017,1641.3203 L622.3017,1615.3203 " fill="#E2E2F0" style="stroke:#181818;stroke-width:1.5;"/><path d="M622.3017,1615.3203 C622.3017,1625.3203 640.3017,1625.3203 640.3017,1625.3203 C640.3017,1625.3203 658.3017,1625.3203 658.3017,1615.3203 " fill="none" style="stroke:#181818;stroke-width:1.5;"/><polygon fill="#181818" points="226.4323,108.4297,236.4323,112.4297,226.4323,116.4297,230.4323,112.4297" style="stroke:#181818;stroke-width:1.0;"/><line style="stroke:#181818;stroke-width:1.0;" x1="45.4321" x2="232.4323" y1="112.4297" y2="112.4297"/><text fill="#000000" font-family="sans-serif" font-size="13" lengthAdjust="spacing" textLength="104.0001" x="52.4321" y="107.3638">&#36827;&#20837;&#29992;&#25143;&#31649;&#29702;&#39029;&#38754;</text><polygon fill="#181818" points="372.3015,137.5625,382.3015,141.5625,372.3015,145.5625,376.3015,141.5625" style="stroke:#181818;stroke-width:1.0;"/><line style="stroke:#181818;stroke-width:1.0;" x1="238.4323" x2="378.3015" y1="141.5625" y2="141.5625"/><text fill="#000000" font-family="sans-serif" font-size="13" lengthAdjust="spacing" textLength="104.0001" x="245.4323" y="136.4966">&#35831;&#27714;&#29992;&#25143;&#31649;&#29702;&#25968;&#25454;</text><polygon fill="#181818" points="500.3016,166.6953,510.3016,170.6953,500.3016,174.6953,504.3016,170.6953" style="stroke:#181818;stroke-width:1.0;"/><line style="stroke:#181818;stroke-width:1.0;" x1="384.3015" x2="506.3016" y1="170.6953" y2="170.6953"/><text fill="#000000" font-family="sans-serif" font-size="13" lengthAdjust="spacing" textLength="104.0001" x="391.3015" y="165.6294">&#33719;&#21462;&#29992;&#25143;&#31649;&#29702;&#25968;&#25454;</text><polygon fill="#181818" points="628.3017,195.8281,638.3017,199.8281,628.3017,203.8281,632.3017,199.8281" style="stroke:#181818;stroke-width:1.0;"/><line style="stroke:#181818;stroke-width:1.0;" x1="512.3016" x2="634.3017" y1="199.8281" y2="199.8281"/><text fill="#000000" font-family="sans-serif" font-size="13" lengthAdjust="spacing" textLength="104.0001" x="519.3016" y="194.7622">&#26597;&#35810;&#29992;&#25143;&#31649;&#29702;&#25968;&#25454;</text><polygon fill="#181818" points="523.3016,224.9609,513.3016,228.9609,523.3016,232.9609,519.3016,228.9609" style="stroke:#181818;stroke-width:1.0;"/><line style="stroke:#181818;stroke-width:1.0;stroke-dasharray:2.0,2.0;" x1="517.3016" x2="639.3017" y1="228.9609" y2="228.9609"/><text fill="#000000" font-family="sans-serif" font-size="13" lengthAdjust="spacing" textLength="104.0001" x="529.3016" y="223.895">&#36820;&#22238;&#29992;&#25143;&#31649;&#29702;&#25968;&#25454;</text><polygon fill="#181818" points="395.3015,254.0938,385.3015,258.0938,395.3015,262.0938,391.3015,258.0938" style="stroke:#181818;stroke-width:1.0;"/><line style="stroke:#181818;stroke-width:1.0;stroke-dasharray:2.0,2.0;" x1="389.3015" x2="511.3016" y1="258.0938" y2="258.0938"/><text fill="#000000" font-family="sans-serif" font-size="13" lengthAdjust="spacing" textLength="104.0001" x="401.3015" y="253.0278">&#36820;&#22238;&#29992;&#25143;&#31649;&#29702;&#25968;&#25454;</text><polygon fill="#181818" points="249.4323,283.2266,239.4323,287.2266,249.4323,291.2266,245.4323,287.2266" style="stroke:#181818;stroke-width:1.0;"/><line style="stroke:#181818;stroke-width:1.0;stroke-dasharray:2.0,2.0;" x1="243.4323" x2="383.3015" y1="287.2266" y2="287.2266"/><text fill="#000000" font-family="sans-serif" font-size="13" lengthAdjust="spacing" textLength="104.0001" x="255.4323" y="282.1606">&#26174;&#31034;&#29992;&#25143;&#31649;&#29702;&#25968;&#25454;</text><polygon fill="#181818" points="56.4321,312.3594,46.4321,316.3594,56.4321,320.3594,52.4321,316.3594" style="stroke:#181818;stroke-width:1.0;"/><line style="stroke:#181818;stroke-width:1.0;stroke-dasharray:2.0,2.0;" x1="50.4321" x2="237.4323" y1="316.3594" y2="316.3594"/><text fill="#000000" font-family="sans-serif" font-size="13" lengthAdjust="spacing" textLength="104.0001" x="62.4321" y="311.2935">&#23637;&#31034;&#29992;&#25143;&#31649;&#29702;&#39029;&#38754;</text><path d="M10,331.3594 L74.4429,331.3594 L74.4429,338.4922 L64.4429,348.4922 L10,348.4922 L10,331.3594 " fill="#EEEEEE" style="stroke:#000000;stroke-width:1.5;"/><rect fill="none" height="1241.6641" style="stroke:#000000;stroke-width:1.5;" width="690.6543" x="10" y="331.3594"/><text fill="#000000" font-family="sans-serif" font-size="13" font-weight="bold" lengthAdjust="spacing" textLength="19.4429" x="25" y="344.4263">alt</text><text fill="#000000" font-family="sans-serif" font-size="11" font-weight="bold" lengthAdjust="spacing" textLength="109.054" x="89.4429" y="343.5698">[&#31649;&#29702;&#21592;&#25191;&#34892;&#26597;&#25214;&#25805;&#20316;]</text><polygon fill="#181818" points="226.4323,365.625,236.4323,369.625,226.4323,373.625,230.4323,369.625" style="stroke:#181818;stroke-width:1.0;"/><line style="stroke:#181818;stroke-width:1.0;" x1="45.4321" x2="232.4323" y1="369.625" y2="369.625"/><text fill="#000000" font-family="sans-serif" font-size="13" lengthAdjust="spacing" textLength="78.0001" x="52.4321" y="364.5591">&#36755;&#20837;&#26597;&#25214;&#26465;&#20214;</text><polygon fill="#181818" points="372.3015,394.7578,382.3015,398.7578,372.3015,402.7578,376.3015,398.7578" style="stroke:#181818;stroke-width:1.0;"/><line style="stroke:#181818;stroke-width:1.0;" x1="238.4323" x2="378.3015" y1="398.7578" y2="398.7578"/><text fill="#000000" font-family="sans-serif" font-size="13" lengthAdjust="spacing" textLength="78.0001" x="245.4323" y="393.6919">&#25552;&#20132;&#26597;&#25214;&#35831;&#27714;</text><polygon fill="#181818" points="500.3016,423.8906,510.3016,427.8906,500.3016,431.8906,504.3016,427.8906" style="stroke:#181818;stroke-width:1.0;"/><line style="stroke:#181818;stroke-width:1.0;" x1="384.3015" x2="506.3016" y1="427.8906" y2="427.8906"/><text fill="#000000" font-family="sans-serif" font-size="13" lengthAdjust="spacing" textLength="78.0001" x="391.3015" y="422.8247">&#22788;&#29702;&#26597;&#25214;&#35831;&#27714;</text><polygon fill="#181818" points="628.3017,453.0234,638.3017,457.0234,628.3017,461.0234,632.3017,457.0234" style="stroke:#181818;stroke-width:1.0;"/><line style="stroke:#181818;stroke-width:1.0;" x1="512.3016" x2="634.3017" y1="457.0234" y2="457.0234"/><text fill="#000000" font-family="sans-serif" font-size="13" lengthAdjust="spacing" textLength="52.0001" x="519.3016" y="451.9575">&#26597;&#25214;&#29992;&#25143;</text><polygon fill="#181818" points="523.3016,482.1563,513.3016,486.1563,523.3016,490.1563,519.3016,486.1563" style="stroke:#181818;stroke-width:1.0;"/><line style="stroke:#181818;stroke-width:1.0;stroke-dasharray:2.0,2.0;" x1="517.3016" x2="639.3017" y1="486.1563" y2="486.1563"/><text fill="#000000" font-family="sans-serif" font-size="13" lengthAdjust="spacing" textLength="78.0001" x="529.3016" y="481.0903">&#36820;&#22238;&#26597;&#25214;&#32467;&#26524;</text><polygon fill="#181818" points="395.3015,511.2891,385.3015,515.2891,395.3015,519.2891,391.3015,515.2891" style="stroke:#181818;stroke-width:1.0;"/><line style="stroke:#181818;stroke-width:1.0;stroke-dasharray:2.0,2.0;" x1="389.3015" x2="511.3016" y1="515.2891" y2="515.2891"/><text fill="#000000" font-family="sans-serif" font-size="13" lengthAdjust="spacing" textLength="78.0001" x="401.3015" y="510.2231">&#36820;&#22238;&#26597;&#25214;&#32467;&#26524;</text><polygon fill="#181818" points="249.4323,540.4219,239.4323,544.4219,249.4323,548.4219,245.4323,544.4219" style="stroke:#181818;stroke-width:1.0;"/><line style="stroke:#181818;stroke-width:1.0;stroke-dasharray:2.0,2.0;" x1="243.4323" x2="383.3015" y1="544.4219" y2="544.4219"/><text fill="#000000" font-family="sans-serif" font-size="13" lengthAdjust="spacing" textLength="78.0001" x="255.4323" y="539.356">&#26174;&#31034;&#26597;&#25214;&#32467;&#26524;</text><polygon fill="#181818" points="56.4321,569.5547,46.4321,573.5547,56.4321,577.5547,52.4321,573.5547" style="stroke:#181818;stroke-width:1.0;"/><line style="stroke:#181818;stroke-width:1.0;stroke-dasharray:2.0,2.0;" x1="50.4321" x2="237.4323" y1="573.5547" y2="573.5547"/><text fill="#000000" font-family="sans-serif" font-size="13" lengthAdjust="spacing" textLength="78.0001" x="62.4321" y="568.4888">&#25552;&#31034;&#26597;&#25214;&#23436;&#25104;</text><line style="stroke:#000000;stroke-width:1.0;stroke-dasharray:2.0,2.0;" x1="10" x2="700.6543" y1="582.5547" y2="582.5547"/><text fill="#000000" font-family="sans-serif" font-size="11" font-weight="bold" lengthAdjust="spacing" textLength="109.054" x="15" y="592.7651">[&#31649;&#29702;&#21592;&#25191;&#34892;&#21024;&#38500;&#25805;&#20316;]</text><polygon fill="#181818" points="226.4323,613.4922,236.4323,617.4922,226.4323,621.4922,230.4323,617.4922" style="stroke:#181818;stroke-width:1.0;"/><line style="stroke:#181818;stroke-width:1.0;" x1="45.4321" x2="232.4323" y1="617.4922" y2="617.4922"/><text fill="#000000" font-family="sans-serif" font-size="13" lengthAdjust="spacing" textLength="143.0002" x="52.4321" y="612.4263">&#36873;&#25321;&#29992;&#25143;&#24182;&#25552;&#20132;&#21024;&#38500;&#35831;&#27714;</text><polygon fill="#181818" points="372.3015,642.625,382.3015,646.625,372.3015,650.625,376.3015,646.625" style="stroke:#181818;stroke-width:1.0;"/><line style="stroke:#181818;stroke-width:1.0;" x1="238.4323" x2="378.3015" y1="646.625" y2="646.625"/><text fill="#000000" font-family="sans-serif" font-size="13" lengthAdjust="spacing" textLength="78.0001" x="245.4323" y="641.5591">&#25552;&#20132;&#21024;&#38500;&#35831;&#27714;</text><polygon fill="#181818" points="500.3016,671.7578,510.3016,675.7578,500.3016,679.7578,504.3016,675.7578" style="stroke:#181818;stroke-width:1.0;"/><line style="stroke:#181818;stroke-width:1.0;" x1="384.3015" x2="506.3016" y1="675.7578" y2="675.7578"/><text fill="#000000" font-family="sans-serif" font-size="13" lengthAdjust="spacing" textLength="78.0001" x="391.3015" y="670.6919">&#22788;&#29702;&#21024;&#38500;&#35831;&#27714;</text><polygon fill="#181818" points="628.3017,700.8906,638.3017,704.8906,628.3017,708.8906,632.3017,704.8906" style="stroke:#181818;stroke-width:1.0;"/><line style="stroke:#181818;stroke-width:1.0;" x1="512.3016" x2="634.3017" y1="704.8906" y2="704.8906"/><text fill="#000000" font-family="sans-serif" font-size="13" lengthAdjust="spacing" textLength="52.0001" x="519.3016" y="699.8247">&#21024;&#38500;&#29992;&#25143;</text><polygon fill="#181818" points="523.3016,730.0234,513.3016,734.0234,523.3016,738.0234,519.3016,734.0234" style="stroke:#181818;stroke-width:1.0;"/><line style="stroke:#181818;stroke-width:1.0;stroke-dasharray:2.0,2.0;" x1="517.3016" x2="639.3017" y1="734.0234" y2="734.0234"/><text fill="#000000" font-family="sans-serif" font-size="13" lengthAdjust="spacing" textLength="78.0001" x="529.3016" y="728.9575">&#36820;&#22238;&#21024;&#38500;&#32467;&#26524;</text><polygon fill="#181818" points="395.3015,759.1563,385.3015,763.1563,395.3015,767.1563,391.3015,763.1563" style="stroke:#181818;stroke-width:1.0;"/><line style="stroke:#181818;stroke-width:1.0;stroke-dasharray:2.0,2.0;" x1="389.3015" x2="511.3016" y1="763.1563" y2="763.1563"/><text fill="#000000" font-family="sans-serif" font-size="13" lengthAdjust="spacing" textLength="78.0001" x="401.3015" y="758.0903">&#36820;&#22238;&#21024;&#38500;&#32467;&#26524;</text><polygon fill="#181818" points="249.4323,788.2891,239.4323,792.2891,249.4323,796.2891,245.4323,792.2891" style="stroke:#181818;stroke-width:1.0;"/><line style="stroke:#181818;stroke-width:1.0;stroke-dasharray:2.0,2.0;" x1="243.4323" x2="383.3015" y1="792.2891" y2="792.2891"/><text fill="#000000" font-family="sans-serif" font-size="13" lengthAdjust="spacing" textLength="78.0001" x="255.4323" y="787.2231">&#26174;&#31034;&#21024;&#38500;&#32467;&#26524;</text><polygon fill="#181818" points="56.4321,817.4219,46.4321,821.4219,56.4321,825.4219,52.4321,821.4219" style="stroke:#181818;stroke-width:1.0;"/><line style="stroke:#181818;stroke-width:1.0;stroke-dasharray:2.0,2.0;" x1="50.4321" x2="237.4323" y1="821.4219" y2="821.4219"/><text fill="#000000" font-family="sans-serif" font-size="13" lengthAdjust="spacing" textLength="78.0001" x="62.4321" y="816.356">&#25552;&#31034;&#21024;&#38500;&#23436;&#25104;</text><line style="stroke:#000000;stroke-width:1.0;stroke-dasharray:2.0,2.0;" x1="10" x2="700.6543" y1="830.4219" y2="830.4219"/><text fill="#000000" font-family="sans-serif" font-size="11" font-weight="bold" lengthAdjust="spacing" textLength="109.054" x="15" y="840.6323">[&#31649;&#29702;&#21592;&#25191;&#34892;&#26032;&#22686;&#25805;&#20316;]</text><polygon fill="#181818" points="226.4323,861.3594,236.4323,865.3594,226.4323,869.3594,230.4323,865.3594" style="stroke:#181818;stroke-width:1.0;"/><line style="stroke:#181818;stroke-width:1.0;" x1="45.4321" x2="232.4323" y1="865.3594" y2="865.3594"/><text fill="#000000" font-family="sans-serif" font-size="13" lengthAdjust="spacing" textLength="104.0001" x="52.4321" y="860.2935">&#36755;&#20837;&#26032;&#22686;&#29992;&#25143;&#20449;&#24687;</text><polygon fill="#181818" points="372.3015,890.4922,382.3015,894.4922,372.3015,898.4922,376.3015,894.4922" style="stroke:#181818;stroke-width:1.0;"/><line style="stroke:#181818;stroke-width:1.0;" x1="238.4323" x2="378.3015" y1="894.4922" y2="894.4922"/><text fill="#000000" font-family="sans-serif" font-size="13" lengthAdjust="spacing" textLength="78.0001" x="245.4323" y="889.4263">&#25552;&#20132;&#26032;&#22686;&#35831;&#27714;</text><polygon fill="#181818" points="500.3016,919.625,510.3016,923.625,500.3016,927.625,504.3016,923.625" style="stroke:#181818;stroke-width:1.0;"/><line style="stroke:#181818;stroke-width:1.0;" x1="384.3015" x2="506.3016" y1="923.625" y2="923.625"/><text fill="#000000" font-family="sans-serif" font-size="13" lengthAdjust="spacing" textLength="78.0001" x="391.3015" y="918.5591">&#22788;&#29702;&#26032;&#22686;&#35831;&#27714;</text><polygon fill="#181818" points="628.3017,948.7578,638.3017,952.7578,628.3017,956.7578,632.3017,952.7578" style="stroke:#181818;stroke-width:1.0;"/><line style="stroke:#181818;stroke-width:1.0;" x1="512.3016" x2="634.3017" y1="952.7578" y2="952.7578"/><text fill="#000000" font-family="sans-serif" font-size="13" lengthAdjust="spacing" textLength="52.0001" x="519.3016" y="947.6919">&#26032;&#22686;&#29992;&#25143;</text><polygon fill="#181818" points="523.3016,977.8906,513.3016,981.8906,523.3016,985.8906,519.3016,981.8906" style="stroke:#181818;stroke-width:1.0;"/><line style="stroke:#181818;stroke-width:1.0;stroke-dasharray:2.0,2.0;" x1="517.3016" x2="639.3017" y1="981.8906" y2="981.8906"/><text fill="#000000" font-family="sans-serif" font-size="13" lengthAdjust="spacing" textLength="78.0001" x="529.3016" y="976.8247">&#36820;&#22238;&#26032;&#22686;&#32467;&#26524;</text><polygon fill="#181818" points="395.3015,1007.0234,385.3015,1011.0234,395.3015,1015.0234,391.3015,1011.0234" style="stroke:#181818;stroke-width:1.0;"/><line style="stroke:#181818;stroke-width:1.0;stroke-dasharray:2.0,2.0;" x1="389.3015" x2="511.3016" y1="1011.0234" y2="1011.0234"/><text fill="#000000" font-family="sans-serif" font-size="13" lengthAdjust="spacing" textLength="78.0001" x="401.3015" y="1005.9575">&#36820;&#22238;&#26032;&#22686;&#32467;&#26524;</text><polygon fill="#181818" points="249.4323,1036.1563,239.4323,1040.1563,249.4323,1044.1563,245.4323,1040.1563" style="stroke:#181818;stroke-width:1.0;"/><line style="stroke:#181818;stroke-width:1.0;stroke-dasharray:2.0,2.0;" x1="243.4323" x2="383.3015" y1="1040.1563" y2="1040.1563"/><text fill="#000000" font-family="sans-serif" font-size="13" lengthAdjust="spacing" textLength="78.0001" x="255.4323" y="1035.0903">&#26174;&#31034;&#26032;&#22686;&#32467;&#26524;</text><polygon fill="#181818" points="56.4321,1065.2891,46.4321,1069.2891,56.4321,1073.2891,52.4321,1069.2891" style="stroke:#181818;stroke-width:1.0;"/><line style="stroke:#181818;stroke-width:1.0;stroke-dasharray:2.0,2.0;" x1="50.4321" x2="237.4323" y1="1069.2891" y2="1069.2891"/><text fill="#000000" font-family="sans-serif" font-size="13" lengthAdjust="spacing" textLength="78.0001" x="62.4321" y="1064.2231">&#25552;&#31034;&#26032;&#22686;&#23436;&#25104;</text><line style="stroke:#000000;stroke-width:1.0;stroke-dasharray:2.0,2.0;" x1="10" x2="700.6543" y1="1078.2891" y2="1078.2891"/><text fill="#000000" font-family="sans-serif" font-size="11" font-weight="bold" lengthAdjust="spacing" textLength="109.054" x="15" y="1088.4995">[&#31649;&#29702;&#21592;&#25191;&#34892;&#20923;&#32467;&#25805;&#20316;]</text><polygon fill="#181818" points="226.4323,1109.2266,236.4323,1113.2266,226.4323,1117.2266,230.4323,1113.2266" style="stroke:#181818;stroke-width:1.0;"/><line style="stroke:#181818;stroke-width:1.0;" x1="45.4321" x2="232.4323" y1="1113.2266" y2="1113.2266"/><text fill="#000000" font-family="sans-serif" font-size="13" lengthAdjust="spacing" textLength="143.0002" x="52.4321" y="1108.1606">&#36873;&#25321;&#29992;&#25143;&#24182;&#25552;&#20132;&#20923;&#32467;&#35831;&#27714;</text><polygon fill="#181818" points="372.3015,1138.3594,382.3015,1142.3594,372.3015,1146.3594,376.3015,1142.3594" style="stroke:#181818;stroke-width:1.0;"/><line style="stroke:#181818;stroke-width:1.0;" x1="238.4323" x2="378.3015" y1="1142.3594" y2="1142.3594"/><text fill="#000000" font-family="sans-serif" font-size="13" lengthAdjust="spacing" textLength="78.0001" x="245.4323" y="1137.2935">&#25552;&#20132;&#20923;&#32467;&#35831;&#27714;</text><polygon fill="#181818" points="500.3016,1167.4922,510.3016,1171.4922,500.3016,1175.4922,504.3016,1171.4922" style="stroke:#181818;stroke-width:1.0;"/><line style="stroke:#181818;stroke-width:1.0;" x1="384.3015" x2="506.3016" y1="1171.4922" y2="1171.4922"/><text fill="#000000" font-family="sans-serif" font-size="13" lengthAdjust="spacing" textLength="78.0001" x="391.3015" y="1166.4263">&#22788;&#29702;&#20923;&#32467;&#35831;&#27714;</text><polygon fill="#181818" points="628.3017,1196.625,638.3017,1200.625,628.3017,1204.625,632.3017,1200.625" style="stroke:#181818;stroke-width:1.0;"/><line style="stroke:#181818;stroke-width:1.0;" x1="512.3016" x2="634.3017" y1="1200.625" y2="1200.625"/><text fill="#000000" font-family="sans-serif" font-size="13" lengthAdjust="spacing" textLength="52.0001" x="519.3016" y="1195.5591">&#20923;&#32467;&#29992;&#25143;</text><polygon fill="#181818" points="523.3016,1225.7578,513.3016,1229.7578,523.3016,1233.7578,519.3016,1229.7578" style="stroke:#181818;stroke-width:1.0;"/><line style="stroke:#181818;stroke-width:1.0;stroke-dasharray:2.0,2.0;" x1="517.3016" x2="639.3017" y1="1229.7578" y2="1229.7578"/><text fill="#000000" font-family="sans-serif" font-size="13" lengthAdjust="spacing" textLength="78.0001" x="529.3016" y="1224.6919">&#36820;&#22238;&#20923;&#32467;&#32467;&#26524;</text><polygon fill="#181818" points="395.3015,1254.8906,385.3015,1258.8906,395.3015,1262.8906,391.3015,1258.8906" style="stroke:#181818;stroke-width:1.0;"/><line style="stroke:#181818;stroke-width:1.0;stroke-dasharray:2.0,2.0;" x1="389.3015" x2="511.3016" y1="1258.8906" y2="1258.8906"/><text fill="#000000" font-family="sans-serif" font-size="13" lengthAdjust="spacing" textLength="78.0001" x="401.3015" y="1253.8247">&#36820;&#22238;&#20923;&#32467;&#32467;&#26524;</text><polygon fill="#181818" points="249.4323,1284.0234,239.4323,1288.0234,249.4323,1292.0234,245.4323,1288.0234" style="stroke:#181818;stroke-width:1.0;"/><line style="stroke:#181818;stroke-width:1.0;stroke-dasharray:2.0,2.0;" x1="243.4323" x2="383.3015" y1="1288.0234" y2="1288.0234"/><text fill="#000000" font-family="sans-serif" font-size="13" lengthAdjust="spacing" textLength="78.0001" x="255.4323" y="1282.9575">&#26174;&#31034;&#20923;&#32467;&#32467;&#26524;</text><polygon fill="#181818" points="56.4321,1313.1563,46.4321,1317.1563,56.4321,1321.1563,52.4321,1317.1563" style="stroke:#181818;stroke-width:1.0;"/><line style="stroke:#181818;stroke-width:1.0;stroke-dasharray:2.0,2.0;" x1="50.4321" x2="237.4323" y1="1317.1563" y2="1317.1563"/><text fill="#000000" font-family="sans-serif" font-size="13" lengthAdjust="spacing" textLength="78.0001" x="62.4321" y="1312.0903">&#25552;&#31034;&#20923;&#32467;&#23436;&#25104;</text><line style="stroke:#000000;stroke-width:1.0;stroke-dasharray:2.0,2.0;" x1="10" x2="700.6543" y1="1326.1563" y2="1326.1563"/><text fill="#000000" font-family="sans-serif" font-size="11" font-weight="bold" lengthAdjust="spacing" textLength="131.0538" x="15" y="1336.3667">[&#31649;&#29702;&#21592;&#25191;&#34892;&#35282;&#33394;&#36171;&#20104;&#25805;&#20316;]</text><polygon fill="#181818" points="226.4323,1357.0938,236.4323,1361.0938,226.4323,1365.0938,230.4323,1361.0938" style="stroke:#181818;stroke-width:1.0;"/><line style="stroke:#181818;stroke-width:1.0;" x1="45.4321" x2="232.4323" y1="1361.0938" y2="1361.0938"/><text fill="#000000" font-family="sans-serif" font-size="13" lengthAdjust="spacing" textLength="169.0002" x="52.4321" y="1356.0278">&#36873;&#25321;&#29992;&#25143;&#24182;&#25552;&#20132;&#35282;&#33394;&#36171;&#20104;&#35831;&#27714;</text><polygon fill="#181818" points="372.3015,1386.2266,382.3015,1390.2266,372.3015,1394.2266,376.3015,1390.2266" style="stroke:#181818;stroke-width:1.0;"/><line style="stroke:#181818;stroke-width:1.0;" x1="238.4323" x2="378.3015" y1="1390.2266" y2="1390.2266"/><text fill="#000000" font-family="sans-serif" font-size="13" lengthAdjust="spacing" textLength="104.0001" x="245.4323" y="1385.1606">&#25552;&#20132;&#35282;&#33394;&#36171;&#20104;&#35831;&#27714;</text><polygon fill="#181818" points="500.3016,1415.3594,510.3016,1419.3594,500.3016,1423.3594,504.3016,1419.3594" style="stroke:#181818;stroke-width:1.0;"/><line style="stroke:#181818;stroke-width:1.0;" x1="384.3015" x2="506.3016" y1="1419.3594" y2="1419.3594"/><text fill="#000000" font-family="sans-serif" font-size="13" lengthAdjust="spacing" textLength="104.0001" x="391.3015" y="1414.2935">&#22788;&#29702;&#35282;&#33394;&#36171;&#20104;&#35831;&#27714;</text><polygon fill="#181818" points="628.3017,1444.4922,638.3017,1448.4922,628.3017,1452.4922,632.3017,1448.4922" style="stroke:#181818;stroke-width:1.0;"/><line style="stroke:#181818;stroke-width:1.0;" x1="512.3016" x2="634.3017" y1="1448.4922" y2="1448.4922"/><text fill="#000000" font-family="sans-serif" font-size="13" lengthAdjust="spacing" textLength="78.0001" x="519.3016" y="1443.4263">&#26356;&#26032;&#29992;&#25143;&#35282;&#33394;</text><polygon fill="#181818" points="523.3016,1473.625,513.3016,1477.625,523.3016,1481.625,519.3016,1477.625" style="stroke:#181818;stroke-width:1.0;"/><line style="stroke:#181818;stroke-width:1.0;stroke-dasharray:2.0,2.0;" x1="517.3016" x2="639.3017" y1="1477.625" y2="1477.625"/><text fill="#000000" font-family="sans-serif" font-size="13" lengthAdjust="spacing" textLength="104.0001" x="529.3016" y="1472.5591">&#36820;&#22238;&#35282;&#33394;&#36171;&#20104;&#32467;&#26524;</text><polygon fill="#181818" points="395.3015,1502.7578,385.3015,1506.7578,395.3015,1510.7578,391.3015,1506.7578" style="stroke:#181818;stroke-width:1.0;"/><line style="stroke:#181818;stroke-width:1.0;stroke-dasharray:2.0,2.0;" x1="389.3015" x2="511.3016" y1="1506.7578" y2="1506.7578"/><text fill="#000000" font-family="sans-serif" font-size="13" lengthAdjust="spacing" textLength="104.0001" x="401.3015" y="1501.6919">&#36820;&#22238;&#35282;&#33394;&#36171;&#20104;&#32467;&#26524;</text><polygon fill="#181818" points="249.4323,1531.8906,239.4323,1535.8906,249.4323,1539.8906,245.4323,1535.8906" style="stroke:#181818;stroke-width:1.0;"/><line style="stroke:#181818;stroke-width:1.0;stroke-dasharray:2.0,2.0;" x1="243.4323" x2="383.3015" y1="1535.8906" y2="1535.8906"/><text fill="#000000" font-family="sans-serif" font-size="13" lengthAdjust="spacing" textLength="104.0001" x="255.4323" y="1530.8247">&#26174;&#31034;&#35282;&#33394;&#36171;&#20104;&#32467;&#26524;</text><polygon fill="#181818" points="56.4321,1561.0234,46.4321,1565.0234,56.4321,1569.0234,52.4321,1565.0234" style="stroke:#181818;stroke-width:1.0;"/><line style="stroke:#181818;stroke-width:1.0;stroke-dasharray:2.0,2.0;" x1="50.4321" x2="237.4323" y1="1565.0234" y2="1565.0234"/><text fill="#000000" font-family="sans-serif" font-size="13" lengthAdjust="spacing" textLength="104.0001" x="62.4321" y="1559.9575">&#25552;&#31034;&#35282;&#33394;&#36171;&#20104;&#23436;&#25104;</text><!--SRC=[bPBFQjj048Vl-nJx0da17mf5Pq70w5msjYW1MmPPAVJMbZRO96dSEWafJjpAEAIvs4bfOcfJ-sMqQ_ajkjhn7rcZtH9T93JVpEvy_5WfgFdqPRcwxv6zse5NPlvRwjHTtsOUU-rMNI_ObM_AwjInTqcfvWL-hQ882xuhhg-grbQnwFflzalGLoHb5h0zLdTfLKrzTL279jiXH9rDTruaymiqddNufvlvsK_H6Cq7uRnrk0WV5zSz8giAiYGp78c73sb6dD-Bam5nB8KK9V9vn4ylyf1YWjXEWOhlD_6mbuFO3jrPZPcTyKvNCsPr6orZ0PEi9Iwdy_uu3qhMafIoKA3yuJp3BTSdh19G-CE_N8hcRHmUomr4SohQ9z7VAqBbar4vRKkLI-WwZ2PF2ag95AUjQDm70gG2iTR8-n-Jgo8WBL6MuBwgXEGjYKbRTA_MpLlgC874OMHRcrnaJV71iMYqY5kHSSi8uuqVYszzhR35kwOukeDb-9ydi0CzwUMp_Z2HyOU1jJyecVmj2OC_J21_6Cdp1vJ1dxYuvxtk_mAd85WfceNY_L0JEyMPOeU0JUnIPsXY1uGfTeZ0iKD8RkmKPOhTuIIPyRpOgHvZx12HZHq2Dh5J9MFiW3353X4uTWZ9ZPsY3FxYswznyrVyU1ID6y-pcEuqkTHn6QCwR9FBpc-P1hW4mFbsquDCZdKSCgq3ytodsPLrh_mF]--></g></svg>