<svg xmlns="http://www.w3.org/2000/svg" xmlns:xlink="http://www.w3.org/1999/xlink" contentStyleType="text/css" height="823px" preserveAspectRatio="none" style="width:608px;height:823px;background:#FFFFFF;" version="1.1" viewBox="0 0 608 823" width="608px" zoomAndPan="magnify"><defs/><g><rect fill="none" height="265" style="stroke:#000000;stroke-width:1.5;" width="591.6589" x="10" y="460.8906"/><line style="stroke:#181818;stroke-width:0.5;stroke-dasharray:5.0,5.0;" x1="38" x2="38" y1="81.2969" y2="742.8906"/><line style="stroke:#181818;stroke-width:0.5;stroke-dasharray:5.0,5.0;" x1="140.6886" x2="140.6886" y1="81.2969" y2="742.8906"/><line style="stroke:#181818;stroke-width:0.5;stroke-dasharray:5.0,5.0;" x1="294.363" x2="294.363" y1="81.2969" y2="742.8906"/><line style="stroke:#181818;stroke-width:0.5;stroke-dasharray:5.0,5.0;" x1="406.5476" x2="406.5476" y1="81.2969" y2="742.8906"/><line style="stroke:#181818;stroke-width:0.5;stroke-dasharray:5.0,5.0;" x1="527.3005" x2="527.3005" y1="81.2969" y2="742.8906"/><text fill="#000000" font-family="sans-serif" font-size="14" lengthAdjust="spacing" textLength="31.9102" x="20" y="77.9951">User</text><ellipse cx="38.9551" cy="13.5" fill="#E2E2F0" rx="8" ry="8" style="stroke:#181818;stroke-width:0.5;"/><path d="M38.9551,21.5 L38.9551,48.5 M25.9551,29.5 L51.9551,29.5 M38.9551,48.5 L25.9551,63.5 M38.9551,48.5 L51.9551,63.5 " fill="none" style="stroke:#181818;stroke-width:0.5;"/><text fill="#000000" font-family="sans-serif" font-size="14" lengthAdjust="spacing" textLength="31.9102" x="20" y="754.8857">User</text><ellipse cx="38.9551" cy="766.6875" fill="#E2E2F0" rx="8" ry="8" style="stroke:#181818;stroke-width:0.5;"/><path d="M38.9551,774.6875 L38.9551,801.6875 M25.9551,782.6875 L51.9551,782.6875 M38.9551,801.6875 L25.9551,816.6875 M38.9551,801.6875 L51.9551,816.6875 " fill="none" style="stroke:#181818;stroke-width:0.5;"/><text fill="#000000" font-family="sans-serif" font-size="14" lengthAdjust="spacing" textLength="70.5332" x="102.6886" y="77.9951">FormPage</text><path d="M120.4552,37 L120.4552,61 M120.4552,49 L137.4552,49 " fill="none" style="stroke:#181818;stroke-width:0.5;"/><ellipse cx="149.4552" cy="49" fill="#E2E2F0" rx="12" ry="12" style="stroke:#181818;stroke-width:0.5;"/><text fill="#000000" font-family="sans-serif" font-size="14" lengthAdjust="spacing" textLength="70.5332" x="102.6886" y="754.8857">FormPage</text><path d="M120.4552,762.1875 L120.4552,786.1875 M120.4552,774.1875 L137.4552,774.1875 " fill="none" style="stroke:#181818;stroke-width:0.5;"/><ellipse cx="149.4552" cy="774.1875" fill="#E2E2F0" rx="12" ry="12" style="stroke:#181818;stroke-width:0.5;"/><text fill="#000000" font-family="sans-serif" font-size="14" lengthAdjust="spacing" textLength="105.1846" x="239.363" y="77.9951">FormController</text><ellipse cx="294.9553" cy="49" fill="#E2E2F0" rx="12" ry="12" style="stroke:#181818;stroke-width:0.5;"/><polygon fill="#181818" points="290.9553,37,296.9553,32,294.9553,37,296.9553,42,290.9553,37" style="stroke:#181818;stroke-width:1.0;"/><text fill="#000000" font-family="sans-serif" font-size="14" lengthAdjust="spacing" textLength="105.1846" x="239.363" y="754.8857">FormController</text><ellipse cx="294.9553" cy="774.1875" fill="#E2E2F0" rx="12" ry="12" style="stroke:#181818;stroke-width:0.5;"/><polygon fill="#181818" points="290.9553,762.1875,296.9553,757.1875,294.9553,762.1875,296.9553,767.1875,290.9553,762.1875" style="stroke:#181818;stroke-width:1.0;"/><text fill="#000000" font-family="sans-serif" font-size="14" lengthAdjust="spacing" textLength="87.7529" x="360.5476" y="77.9951">FormService</text><ellipse cx="407.4241" cy="49" fill="#E2E2F0" rx="12" ry="12" style="stroke:#181818;stroke-width:0.5;"/><polygon fill="#181818" points="403.4241,37,409.4241,32,407.4241,37,409.4241,42,403.4241,37" style="stroke:#181818;stroke-width:1.0;"/><text fill="#000000" font-family="sans-serif" font-size="14" lengthAdjust="spacing" textLength="87.7529" x="360.5476" y="754.8857">FormService</text><ellipse cx="407.4241" cy="774.1875" fill="#E2E2F0" rx="12" ry="12" style="stroke:#181818;stroke-width:0.5;"/><polygon fill="#181818" points="403.4241,762.1875,409.4241,757.1875,407.4241,762.1875,409.4241,767.1875,403.4241,762.1875" style="stroke:#181818;stroke-width:1.0;"/><text fill="#000000" font-family="sans-serif" font-size="14" lengthAdjust="spacing" textLength="121.3584" x="464.3005" y="77.9951">manage_function</text><path d="M509.9797,29 C509.9797,19 527.9797,19 527.9797,19 C527.9797,19 545.9797,19 545.9797,29 L545.9797,55 C545.9797,65 527.9797,65 527.9797,65 C527.9797,65 509.9797,65 509.9797,55 L509.9797,29 " fill="#E2E2F0" style="stroke:#181818;stroke-width:1.5;"/><path d="M509.9797,29 C509.9797,39 527.9797,39 527.9797,39 C527.9797,39 545.9797,39 545.9797,29 " fill="none" style="stroke:#181818;stroke-width:1.5;"/><text fill="#000000" font-family="sans-serif" font-size="14" lengthAdjust="spacing" textLength="121.3584" x="464.3005" y="754.8857">manage_function</text><path d="M509.9797,768.1875 C509.9797,758.1875 527.9797,758.1875 527.9797,758.1875 C527.9797,758.1875 545.9797,758.1875 545.9797,768.1875 L545.9797,794.1875 C545.9797,804.1875 527.9797,804.1875 527.9797,804.1875 C527.9797,804.1875 509.9797,804.1875 509.9797,794.1875 L509.9797,768.1875 " fill="#E2E2F0" style="stroke:#181818;stroke-width:1.5;"/><path d="M509.9797,768.1875 C509.9797,778.1875 527.9797,778.1875 527.9797,778.1875 C527.9797,778.1875 545.9797,778.1875 545.9797,768.1875 " fill="none" style="stroke:#181818;stroke-width:1.5;"/><polygon fill="#181818" points="128.9552,108.4297,138.9552,112.4297,128.9552,116.4297,132.9552,112.4297" style="stroke:#181818;stroke-width:1.0;"/><line style="stroke:#181818;stroke-width:1.0;" x1="38.9551" x2="134.9552" y1="112.4297" y2="112.4297"/><text fill="#000000" font-family="sans-serif" font-size="13" lengthAdjust="spacing" textLength="78.0001" x="45.9551" y="107.3638">&#36827;&#20837;&#32534;&#36753;&#39029;&#38754;</text><polygon fill="#181818" points="282.9553,137.5625,292.9553,141.5625,282.9553,145.5625,286.9553,141.5625" style="stroke:#181818;stroke-width:1.0;"/><line style="stroke:#181818;stroke-width:1.0;" x1="140.9552" x2="288.9553" y1="141.5625" y2="141.5625"/><text fill="#000000" font-family="sans-serif" font-size="13" lengthAdjust="spacing" textLength="78.0001" x="147.9552" y="136.4966">&#35831;&#27714;&#34920;&#21333;&#25968;&#25454;</text><polygon fill="#181818" points="395.4241,166.6953,405.4241,170.6953,395.4241,174.6953,399.4241,170.6953" style="stroke:#181818;stroke-width:1.0;"/><line style="stroke:#181818;stroke-width:1.0;" x1="294.9553" x2="401.4241" y1="170.6953" y2="170.6953"/><text fill="#000000" font-family="sans-serif" font-size="13" lengthAdjust="spacing" textLength="78.0001" x="301.9553" y="165.6294">&#33719;&#21462;&#34920;&#21333;&#25968;&#25454;</text><polygon fill="#181818" points="515.9797,195.8281,525.9797,199.8281,515.9797,203.8281,519.9797,199.8281" style="stroke:#181818;stroke-width:1.0;"/><line style="stroke:#181818;stroke-width:1.0;" x1="407.4241" x2="521.9797" y1="199.8281" y2="199.8281"/><text fill="#000000" font-family="sans-serif" font-size="13" lengthAdjust="spacing" textLength="78.0001" x="414.4241" y="194.7622">&#26597;&#35810;&#34920;&#21333;&#25968;&#25454;</text><polygon fill="#181818" points="418.4241,224.9609,408.4241,228.9609,418.4241,232.9609,414.4241,228.9609" style="stroke:#181818;stroke-width:1.0;"/><line style="stroke:#181818;stroke-width:1.0;stroke-dasharray:2.0,2.0;" x1="412.4241" x2="526.9797" y1="228.9609" y2="228.9609"/><text fill="#000000" font-family="sans-serif" font-size="13" lengthAdjust="spacing" textLength="78.0001" x="424.4241" y="223.895">&#36820;&#22238;&#34920;&#21333;&#25968;&#25454;</text><polygon fill="#181818" points="305.9553,254.0938,295.9553,258.0938,305.9553,262.0938,301.9553,258.0938" style="stroke:#181818;stroke-width:1.0;"/><line style="stroke:#181818;stroke-width:1.0;stroke-dasharray:2.0,2.0;" x1="299.9553" x2="406.4241" y1="258.0938" y2="258.0938"/><text fill="#000000" font-family="sans-serif" font-size="13" lengthAdjust="spacing" textLength="78.0001" x="311.9553" y="253.0278">&#36820;&#22238;&#34920;&#21333;&#25968;&#25454;</text><polygon fill="#181818" points="151.9552,283.2266,141.9552,287.2266,151.9552,291.2266,147.9552,287.2266" style="stroke:#181818;stroke-width:1.0;"/><line style="stroke:#181818;stroke-width:1.0;stroke-dasharray:2.0,2.0;" x1="145.9552" x2="293.9553" y1="287.2266" y2="287.2266"/><text fill="#000000" font-family="sans-serif" font-size="13" lengthAdjust="spacing" textLength="78.0001" x="157.9552" y="282.1606">&#26174;&#31034;&#34920;&#21333;&#25968;&#25454;</text><polygon fill="#181818" points="49.9551,312.3594,39.9551,316.3594,49.9551,320.3594,45.9551,316.3594" style="stroke:#181818;stroke-width:1.0;"/><line style="stroke:#181818;stroke-width:1.0;stroke-dasharray:2.0,2.0;" x1="43.9551" x2="139.9552" y1="316.3594" y2="316.3594"/><text fill="#000000" font-family="sans-serif" font-size="13" lengthAdjust="spacing" textLength="78.0001" x="55.9551" y="311.2935">&#23637;&#31034;&#34920;&#21333;&#35814;&#24773;</text><polygon fill="#181818" points="128.9552,341.4922,138.9552,345.4922,128.9552,349.4922,132.9552,345.4922" style="stroke:#181818;stroke-width:1.0;"/><line style="stroke:#181818;stroke-width:1.0;" x1="38.9551" x2="134.9552" y1="345.4922" y2="345.4922"/><text fill="#000000" font-family="sans-serif" font-size="13" lengthAdjust="spacing" textLength="78.0001" x="45.9551" y="340.4263">&#32534;&#36753;&#34920;&#21333;&#25968;&#25454;</text><polygon fill="#181818" points="282.9553,370.625,292.9553,374.625,282.9553,378.625,286.9553,374.625" style="stroke:#181818;stroke-width:1.0;"/><line style="stroke:#181818;stroke-width:1.0;" x1="140.9552" x2="288.9553" y1="374.625" y2="374.625"/><text fill="#000000" font-family="sans-serif" font-size="13" lengthAdjust="spacing" textLength="130.0002" x="147.9552" y="369.5591">&#25552;&#20132;&#32534;&#36753;&#21518;&#30340;&#34920;&#21333;&#25968;&#25454;</text><polygon fill="#181818" points="395.4241,399.7578,405.4241,403.7578,395.4241,407.7578,399.4241,403.7578" style="stroke:#181818;stroke-width:1.0;"/><line style="stroke:#181818;stroke-width:1.0;" x1="294.9553" x2="401.4241" y1="403.7578" y2="403.7578"/><text fill="#000000" font-family="sans-serif" font-size="13" lengthAdjust="spacing" textLength="78.0001" x="301.9553" y="398.6919">&#22788;&#29702;&#32534;&#36753;&#35831;&#27714;</text><line style="stroke:#181818;stroke-width:1.0;" x1="407.4241" x2="449.4241" y1="432.8906" y2="432.8906"/><line style="stroke:#181818;stroke-width:1.0;" x1="449.4241" x2="449.4241" y1="432.8906" y2="445.8906"/><line style="stroke:#181818;stroke-width:1.0;" x1="408.4241" x2="449.4241" y1="445.8906" y2="445.8906"/><polygon fill="#181818" points="418.4241,441.8906,408.4241,445.8906,418.4241,449.8906,414.4241,445.8906" style="stroke:#181818;stroke-width:1.0;"/><text fill="#000000" font-family="sans-serif" font-size="13" lengthAdjust="spacing" textLength="78.0001" x="414.4241" y="427.8247">&#39564;&#35777;&#25968;&#25454;&#35268;&#33539;</text><path d="M10,460.8906 L74.4429,460.8906 L74.4429,468.0234 L64.4429,478.0234 L10,478.0234 L10,460.8906 " fill="#EEEEEE" style="stroke:#000000;stroke-width:1.5;"/><rect fill="none" height="265" style="stroke:#000000;stroke-width:1.5;" width="591.6589" x="10" y="460.8906"/><text fill="#000000" font-family="sans-serif" font-size="13" font-weight="bold" lengthAdjust="spacing" textLength="19.4429" x="25" y="473.9575">alt</text><text fill="#000000" font-family="sans-serif" font-size="11" font-weight="bold" lengthAdjust="spacing" textLength="87.0542" x="89.4429" y="473.1011">[&#25968;&#25454;&#19981;&#31526;&#21512;&#35268;&#33539;]</text><polygon fill="#181818" points="305.9553,495.1563,295.9553,499.1563,305.9553,503.1563,301.9553,499.1563" style="stroke:#181818;stroke-width:1.0;"/><line style="stroke:#181818;stroke-width:1.0;stroke-dasharray:2.0,2.0;" x1="299.9553" x2="406.4241" y1="499.1563" y2="499.1563"/><text fill="#000000" font-family="sans-serif" font-size="13" lengthAdjust="spacing" textLength="78.0001" x="311.9553" y="494.0903">&#36820;&#22238;&#38169;&#35823;&#20449;&#24687;</text><polygon fill="#181818" points="151.9552,524.2891,141.9552,528.2891,151.9552,532.2891,147.9552,528.2891" style="stroke:#181818;stroke-width:1.0;"/><line style="stroke:#181818;stroke-width:1.0;stroke-dasharray:2.0,2.0;" x1="145.9552" x2="293.9553" y1="528.2891" y2="528.2891"/><text fill="#000000" font-family="sans-serif" font-size="13" lengthAdjust="spacing" textLength="78.0001" x="157.9552" y="523.2231">&#26174;&#31034;&#38169;&#35823;&#20449;&#24687;</text><polygon fill="#181818" points="49.9551,553.4219,39.9551,557.4219,49.9551,561.4219,45.9551,557.4219" style="stroke:#181818;stroke-width:1.0;"/><line style="stroke:#181818;stroke-width:1.0;stroke-dasharray:2.0,2.0;" x1="43.9551" x2="139.9552" y1="557.4219" y2="557.4219"/><text fill="#000000" font-family="sans-serif" font-size="13" lengthAdjust="spacing" textLength="78.0001" x="55.9551" y="552.356">&#25552;&#31034;&#25968;&#25454;&#38169;&#35823;</text><line style="stroke:#000000;stroke-width:1.0;stroke-dasharray:2.0,2.0;" x1="10" x2="601.6589" y1="566.4219" y2="566.4219"/><text fill="#000000" font-family="sans-serif" font-size="11" font-weight="bold" lengthAdjust="spacing" textLength="76.0542" x="15" y="576.6323">[&#25968;&#25454;&#31526;&#21512;&#35268;&#33539;]</text><polygon fill="#181818" points="515.9797,597.3594,525.9797,601.3594,515.9797,605.3594,519.9797,601.3594" style="stroke:#181818;stroke-width:1.0;"/><line style="stroke:#181818;stroke-width:1.0;" x1="407.4241" x2="521.9797" y1="601.3594" y2="601.3594"/><text fill="#000000" font-family="sans-serif" font-size="13" lengthAdjust="spacing" textLength="78.0001" x="414.4241" y="596.2935">&#26356;&#26032;&#34920;&#21333;&#25968;&#25454;</text><polygon fill="#181818" points="418.4241,626.4922,408.4241,630.4922,418.4241,634.4922,414.4241,630.4922" style="stroke:#181818;stroke-width:1.0;"/><line style="stroke:#181818;stroke-width:1.0;stroke-dasharray:2.0,2.0;" x1="412.4241" x2="526.9797" y1="630.4922" y2="630.4922"/><text fill="#000000" font-family="sans-serif" font-size="13" lengthAdjust="spacing" textLength="78.0001" x="424.4241" y="625.4263">&#36820;&#22238;&#26356;&#26032;&#32467;&#26524;</text><polygon fill="#181818" points="305.9553,655.625,295.9553,659.625,305.9553,663.625,301.9553,659.625" style="stroke:#181818;stroke-width:1.0;"/><line style="stroke:#181818;stroke-width:1.0;stroke-dasharray:2.0,2.0;" x1="299.9553" x2="406.4241" y1="659.625" y2="659.625"/><text fill="#000000" font-family="sans-serif" font-size="13" lengthAdjust="spacing" textLength="78.0001" x="311.9553" y="654.5591">&#36820;&#22238;&#25104;&#21151;&#20449;&#24687;</text><polygon fill="#181818" points="151.9552,684.7578,141.9552,688.7578,151.9552,692.7578,147.9552,688.7578" style="stroke:#181818;stroke-width:1.0;"/><line style="stroke:#181818;stroke-width:1.0;stroke-dasharray:2.0,2.0;" x1="145.9552" x2="293.9553" y1="688.7578" y2="688.7578"/><text fill="#000000" font-family="sans-serif" font-size="13" lengthAdjust="spacing" textLength="78.0001" x="157.9552" y="683.6919">&#26174;&#31034;&#25104;&#21151;&#20449;&#24687;</text><polygon fill="#181818" points="49.9551,713.8906,39.9551,717.8906,49.9551,721.8906,45.9551,717.8906" style="stroke:#181818;stroke-width:1.0;"/><line style="stroke:#181818;stroke-width:1.0;stroke-dasharray:2.0,2.0;" x1="43.9551" x2="139.9552" y1="717.8906" y2="717.8906"/><text fill="#000000" font-family="sans-serif" font-size="13" lengthAdjust="spacing" textLength="78.0001" x="55.9551" y="712.8247">&#25552;&#31034;&#32534;&#36753;&#25104;&#21151;</text><!--SRC=[VPBVIi9G7CVlprES5_05lEXck3jXCBgEurmXp0tc3BeqDIJyiqYbiXH5JIAQGc5OwCjupixUehET6QrPkng_p_Txlll-pf1Y6IOyBAWco1X5FOlCCoWQPbv29of41PYIW6BebcbemLZWxvfg1b28G5arJtCAjyaWYooKGGKLvf7E3ZiwBkgAbJDq7wT50FnCc3XW2Kb8DprSdRYVNRg-yePltiC8fAG02WmwIx8ufyCPRdH8PquQBo0b151ciBd4hMuKoZvCYqb81XFgZ28mBSB4phffuru_Pjsbxg42f-o3oStQ7Q-YL0geNoi9yQBppQap9ULgj32l6lFpQDAojwinbs2xwTvL_YYFnnNNlWZF2hOKblUXzrIdJebxw6E5rii08Cs2VB9zRxZFKspNGWJP4slljM-fusmtGr9okEBt1kAAdrjWHPY61t8bK3NsH_39tlpmudglf3kFjFO5iSlZElVZclJlzrSWDHjV3lwh45V4A_0LSoLGzUmN]--></g></svg>